<svg xmlns="http://www.w3.org/2000/svg" width="47" height="48" viewBox="0 0 47 48">
    <path data-name="合体 8" d="M16.2 47.406.543 31.348a1.893 1.893 0 0 1 0-2.653L24.024 4.607A12.828 12.828 0 0 1 33.272.682a12.767 12.767 0 0 1 7.662 2.537L43.66.559a1.986 1.986 0 0 1 2.77.006 1.893 1.893 0 0 1-.006 2.715l-2.75 2.684a13.466 13.466 0 0 1-1.164 17.355L19.029 47.406a1.985 1.985 0 0 1-2.831 0zM26.856 7.261 4.667 30.021 17.613 43.3l22.066-22.634A9.684 9.684 0 0 0 40.851 8.72l-2.38 2.323a5.839 5.839 0 0 1-1 7.12 6.168 6.168 0 0 1-8.579 0 5.84 5.84 0 0 1 0-8.4 6.1 6.1 0 0 1 4.29-1.736 6.18 6.18 0 0 1 2.353.461l2.585-2.52a8.874 8.874 0 0 0-11.264 1.293zm4.8 5.225a2.053 2.053 0 0 0 0 2.957 2.2 2.2 0 0 0 3.053 0 2.054 2.054 0 0 0 .373-2.468 1.959 1.959 0 0 1-.859-.495 1.914 1.914 0 0 1-.37-.508 2.21 2.21 0 0 0-.67-.1 2.171 2.171 0 0 0-1.526.613z" style="fill:#659d3b"/>
</svg>
