<svg xmlns="http://www.w3.org/2000/svg" width="50.5" height="47.225" viewBox="0 0 50.5 47.225">
    <g data-name="グループ 1564">
        <path data-name="パス 856" d="M140.8 45.993a3.4 3.4 0 1 1-4.8 0 3.395 3.395 0 0 1 4.8 0z" transform="translate(-111.579 -35.921)" style="stroke-miterlimit:10;fill:none;stroke:#659d3b;stroke-linecap:round;stroke-width:3.5px"/>
        <path data-name="線 34" transform="translate(28.618 2.475)" style="stroke-linejoin:round;fill:none;stroke:#659d3b;stroke-linecap:round;stroke-width:3.5px" d="M0 7.785 7.785 0"/>
        <path data-name="パス 857" d="M27.879 14.813 9 34.717l12.586 13.269 18.879-19.9a9.743 9.743 0 0 0 0-13.273 8.577 8.577 0 0 0-12.586 0z" transform="translate(-7.25 -9.008)" style="stroke-linejoin:round;fill:none;stroke:#659d3b;stroke-linecap:round;stroke-width:3.5px"/>
    </g>
    <path data-name="パス 8090" d="M1873 21238h21.658" transform="translate(-1845.908 -21203.275)" style="fill:none;stroke:#659d3b;stroke-linecap:round;stroke-width:3.5px"/>
    <path data-name="パス 8091" d="M0 0h21.658" transform="rotate(90 7.127 30.945)" style="fill:none;stroke:#659d3b;stroke-linecap:round;stroke-width:3.5px"/>
</svg>
