<svg xmlns="http://www.w3.org/2000/svg" width="46" height="27" viewBox="0 0 46 27">
    <path data-name="パス 840" d="M32.842 25.947H11.689a.857.857 0 0 1-.874-.839V.839A.857.857 0 0 1 11.689 0h21.153a.857.857 0 0 1 .874.839v24.268a.857.857 0 0 1-.874.839m-20.28-1.678h19.406V1.679H12.562z" transform="translate(.736 .527)" style="fill:#659d3b"/>
    <path data-name="パス 840 - アウトライン" d="M33.145 26.75H11.939a1.359 1.359 0 0 1-1.374-1.341V1.091A1.359 1.359 0 0 1 11.939-.25h21.206a1.359 1.359 0 0 1 1.374 1.341v24.318a1.359 1.359 0 0 1-1.374 1.341zM11.939.75a.362.362 0 0 0-.378.341v24.318a.362.362 0 0 0 .378.341h21.206a.362.362 0 0 0 .378-.341V1.091a.362.362 0 0 0-.378-.341zm20.33 24.317H12.814a.5.5 0 0 1-.5-.5V1.932a.5.5 0 0 1 .5-.5h19.455a.5.5 0 0 1 .5.5v22.635a.5.5 0 0 1-.5.5zm-18.957-1h18.459V2.432H13.312z" transform="translate(.459 .25)" style="fill:#659d3b"/>
    <path data-name="パス 841" d="M26.884 28.3a.926.926 0 0 1-.927-.927V19.5h-6.268v7.873a.927.927 0 1 1-1.853 0v-8.8a.926.926 0 0 1 .927-.927h8.121a.925.925 0 0 1 .927.927v8.8a.926.926 0 0 1-.927.927" transform="translate(.178 -1.824)" style="fill:#659d3b"/>
    <path data-name="パス 841 - アウトライン" d="M27.16 29.1a1.455 1.455 0 0 1-1.453-1.453V20.3h-5.215v7.347a1.453 1.453 0 0 1-2.906 0v-8.8a1.455 1.455 0 0 1 1.453-1.453h8.121a1.455 1.455 0 0 1 1.453 1.453v8.8A1.455 1.455 0 0 1 27.16 29.1zm-7.195-9.853h6.268a.527.527 0 0 1 .527.527v7.873a.4.4 0 0 0 .8 0v-8.8a.4.4 0 0 0-.4-.4h-8.121a.4.4 0 0 0-.4.4v8.8a.4.4 0 0 0 .8 0v-7.873a.527.527 0 0 1 .527-.527z" transform="translate(-.098 -2.1)" style="fill:#659d3b"/>
    <path data-name="パス 842" d="M11.936 28.13H1.687a.927.927 0 0 1 0-1.853h10.25a.927.927 0 1 1 0 1.853" transform="translate(.541 -1.657)" style="fill:#659d3b"/>
    <path data-name="パス 842 - アウトライン" d="M12.213 28.933H1.963a1.453 1.453 0 0 1 0-2.906h10.25a1.453 1.453 0 0 1 0 2.906zM1.963 27.08a.4.4 0 1 0 0 .8h10.25a.4.4 0 1 0 0-.8z" transform="translate(.265 -1.933)" style="fill:#659d3b"/>
    <path data-name="パス 843" d="M44 28.13H33.75a.927.927 0 0 1 0-1.853H44a.927.927 0 1 1 0 1.853" transform="translate(-.225 -1.657)" style="fill:#659d3b"/>
    <path data-name="パス 843 - アウトライン" d="M44.276 28.933h-10.25a1.453 1.453 0 0 1 0-2.906h10.25a1.453 1.453 0 1 1 0 2.906zm-10.25-1.853a.4.4 0 1 0 0 .8h10.25a.4.4 0 1 0 0-.8z" transform="translate(-.501 -1.933)" style="fill:#659d3b"/>
    <path data-name="パス 844" d="M3.395 26.116a.857.857 0 0 1-.927-.767V16.23a.857.857 0 0 1 .927-.767.857.857 0 0 1 .927.767v9.12a.857.857 0 0 1-.927.767" transform="translate(.574 .357)" style="fill:#659d3b"/>
    <path data-name="パス 844 - アウトライン" d="M3.671 26.919A1.354 1.354 0 0 1 2.218 25.7v-9.266a1.354 1.354 0 0 1 1.453-1.221 1.354 1.354 0 0 1 1.453 1.221V25.7a1.354 1.354 0 0 1-1.453 1.219zm0-10.821a.373.373 0 0 0-.4.336V25.7a.373.373 0 0 0 .4.336.373.373 0 0 0 .4-.336v-9.266a.373.373 0 0 0-.4-.334z" transform="translate(.298 .081)" style="fill:#659d3b"/>
    <path data-name="パス 845" d="M42.1 26.116a.858.858 0 0 1-.927-.767V16.23a.943.943 0 0 1 1.853 0v9.12a.857.857 0 0 1-.927.767" transform="translate(-.063 .357)" style="fill:#659d3b"/>
    <path data-name="パス 845 - アウトライン" d="M42.373 26.919A1.354 1.354 0 0 1 40.92 25.7v-9.266a1.475 1.475 0 0 1 2.906 0V25.7a1.354 1.354 0 0 1-1.453 1.219zm0-10.821a.373.373 0 0 0-.4.336V25.7a.406.406 0 0 0 .8 0v-9.266a.373.373 0 0 0-.4-.334z" transform="translate(-.34 .081)" style="fill:#659d3b"/>
    <path data-name="パス 846" d="M11.462 17.422H.889A.908.908 0 0 1 0 16.5v-5.581a.908.908 0 0 1 .889-.927h10.573a.927.927 0 0 1 0 1.853H1.777v3.724h9.685a.927.927 0 0 1 0 1.853" transform="translate(.526 -.574)" style="fill:#659d3b"/>
    <path data-name="パス 846 - アウトライン" d="M11.756 18.225H1.148a1.428 1.428 0 0 1-1.4-1.453V11.2a1.428 1.428 0 0 1 1.4-1.453h10.608a1.454 1.454 0 0 1 0 2.906h-9.21v2.671h9.209a1.454 1.454 0 0 1 0 2.906zM1.148 10.8a.393.393 0 0 0-.385.4v5.577a.393.393 0 0 0 .385.4h10.608a.4.4 0 0 0 0-.8H2.04a.517.517 0 0 1-.507-.527v-3.728a.517.517 0 0 1 .507-.522h9.716a.4.4 0 0 0 0-.8z" transform="translate(.25 -.849)" style="fill:#659d3b"/>
    <path data-name="パス 847" d="M44.285 17.422H33.713a.927.927 0 0 1 0-1.853H43.4v-3.724h-9.687a.927.927 0 0 1 0-1.853h10.572a.907.907 0 0 1 .888.927V16.5a.907.907 0 0 1-.888.927" transform="translate(.301 -.574)" style="fill:#659d3b"/>
    <path data-name="パス 847 - アウトライン" d="M44.579 18.225H33.972a1.454 1.454 0 0 1 0-2.906h9.208v-2.671h-9.208a1.454 1.454 0 0 1 0-2.906h10.607a1.428 1.428 0 0 1 1.4 1.453v5.577a1.428 1.428 0 0 1-1.4 1.453zm-10.607-1.853a.4.4 0 0 0 0 .8h10.607a.393.393 0 0 0 .384-.4V11.2a.393.393 0 0 0-.384-.4H33.972a.4.4 0 0 0 0 .8h9.715a.517.517 0 0 1 .507.527v3.724a.517.517 0 0 1-.507.527z" transform="translate(.024 -.849)" style="fill:#659d3b"/>
    <path data-name="パス 848" d="M27.178 14.25H14.412a.852.852 0 0 1-.751-.927V4.911a.852.852 0 0 1 .751-.927h12.766a.852.852 0 0 1 .751.927v8.413a.852.852 0 0 1-.751.927M15.163 12.4h11.265V5.836H15.163z" transform="translate(2.046 .242)" style="fill:#659d3b"/>
    <path data-name="パス 848 - アウトライン" d="M27.539 15.053H14.6a1.344 1.344 0 0 1-1.189-1.453V5.187A1.344 1.344 0 0 1 14.6 3.734h12.939a1.344 1.344 0 0 1 1.193 1.453V13.6a1.344 1.344 0 0 1-1.193 1.453zM14.6 4.787a.37.37 0 0 0-.328.4V13.6a.37.37 0 0 0 .328.4h12.939a.37.37 0 0 0 .328-.4V5.187a.37.37 0 0 0-.328-.4zM26.779 13.2H15.365a.486.486 0 0 1-.432-.527v-6.56a.486.486 0 0 1 .432-.527h11.414a.486.486 0 0 1 .432.527v6.56a.486.486 0 0 1-.432.527zM15.8 12.147h10.55V6.639H15.8z" transform="translate(1.77 .327)" style="fill:#659d3b"/>
    <path data-name="パス 849" d="M19.59 14.25a.927.927 0 0 1-.927-.927V4.91a.927.927 0 0 1 1.853 0v8.414a.926.926 0 0 1-.927.927" transform="translate(1.086 .242)" style="fill:#659d3b"/>
    <path data-name="パス 849 - アウトライン" d="M19.866 15.053a1.455 1.455 0 0 1-1.453-1.453V5.186a1.453 1.453 0 0 1 2.906 0V13.6a1.455 1.455 0 0 1-1.453 1.453zm0-10.267a.4.4 0 0 0-.4.4V13.6a.4.4 0 1 0 .8 0V5.186a.4.4 0 0 0-.4-.4z" transform="translate(.847 .327)" style="fill:#659d3b"/>
    <path data-name="パス 850" d="M25.148 14.25a.926.926 0 0 1-.927-.927V4.91a.927.927 0 0 1 1.853 0v8.414a.927.927 0 0 1-.927.927" transform="translate(-.072 .242)" style="fill:#659d3b"/>
    <path data-name="パス 850 - アウトライン" d="M25.424 15.053a1.455 1.455 0 0 1-1.453-1.453V5.186a1.453 1.453 0 0 1 2.906 0V13.6a1.455 1.455 0 0 1-1.453 1.453zm0-10.267a.4.4 0 0 0-.4.4V13.6a.4.4 0 0 0 .8 0V5.186a.4.4 0 0 0-.4-.4z" transform="translate(-.387 .327)" style="fill:#659d3b"/>
</svg>
