<svg xmlns="http://www.w3.org/2000/svg" width="20" height="18" viewBox="0 0 20 18" fill="currentColor">
    <path d="M2.6 18A2.591 2.591 0 0 1 0 15.427V2.436a.953.953 0 0 1 .96-.948h2.4v-.54a.96.96 0 0 1 1.919 0v.539H7.2V.948a.96.96 0 0 1 1.92 0v.539h1.919V.948a.96.96 0 0 1 1.919 0v.539h1.919V.948a.96.96 0 0 1 1.919 0v.539h2.244a.954.954 0 0 1 .96.948v12.992A2.591 2.591 0 0 1 17.4 18zm-.684-2.573a.68.68 0 0 0 .684.673h14.8a.68.68 0 0 0 .683-.676v-6.89H1.919zm16.164-8.79V3.384h-1.286v.409a.96.96 0 0 1-1.919 0v-.409h-1.919v.409a.96.96 0 0 1-1.919 0v-.409h-1.92v.409a.96.96 0 0 1-1.92 0v-.409H5.278v.409a.96.96 0 0 1-1.919 0v-.409h-1.44v3.253zM14.451 13.8a.822.822 0 1 1 .822.812.818.818 0 0 1-.822-.812zm-3.287 0a.822.822 0 1 1 .822.812.817.817 0 0 1-.823-.812zm-3.287 0a.822.822 0 1 1 .822.812.817.817 0 0 1-.823-.812zm-3.287 0a.822.822 0 1 1 .822.812.817.817 0 0 1-.823-.812zm9.862-3.248a.822.822 0 1 1 .822.812.818.818 0 0 1-.823-.809zm-3.287 0a.822.822 0 1 1 .822.812.817.817 0 0 1-.824-.809zm-3.287 0a.822.822 0 1 1 .822.812.817.817 0 0 1-.824-.809zm-3.287 0a.822.822 0 1 1 .822.812.817.817 0 0 1-.824-.809z" />
</svg>
