<svg xmlns="http://www.w3.org/2000/svg" width="44" height="44" viewBox="0 0 44 44">
    <g data-name="楕円形 11" style="fill:#fff;stroke:#659d3b;stroke-width:4px">
        <circle cx="22" cy="22" r="22" style="stroke:none"/>
        <circle cx="22" cy="22" r="20" style="fill:none"/>
    </g>
    <path data-name="パス 950" d="M15.075 12.688a23.528 23.528 0 0 1-.245-3.9V6.224h4.526a15.882 15.882 0 0 1 3.181.256V3.312a15.882 15.882 0 0 1-3.181.256H14.83V2.416L15.9.656h3.456a15.812 15.812 0 0 1 3.211.256v-3.168A15.622 15.622 0 0 1 19.356-2h-1.865l4.435-7.264c.642-1.056 1.621-2.528 2.019-3.072h-4.5a12.484 12.484 0 0 1-1.437 3.072l-4.86 8.448-4.863-8.448a13.494 13.494 0 0 1-1.468-3.072H2.352c.428.576 1.132 1.632 2.019 3.072L8.805-2H6.94a15.434 15.434 0 0 1-3.211-.256V.912A15.622 15.622 0 0 1 6.94.656h3.46l1.07 1.728v1.184H6.909A15.812 15.812 0 0 1 3.7 3.312V6.48a15.622 15.622 0 0 1 3.211-.256h4.557v2.56a24.794 24.794 0 0 1-.245 3.9z" transform="translate(8.852 23.664)" style="fill:#659d3b"/>
</svg>
