<svg xmlns="http://www.w3.org/2000/svg" width="43" height="44" viewBox="0 0 43 44">
    <path data-name="合体 9" d="M0 22A21.754 21.754 0 0 1 21.5 0 21.754 21.754 0 0 1 43 22a21.754 21.754 0 0 1-21.5 22A21.754 21.754 0 0 1 0 22zM9.061 9.273a18.3 18.3 0 0 0 0 25.456 17.31 17.31 0 0 0 24.877 0 18.3 18.3 0 0 0 0-25.456 17.31 17.31 0 0 0-24.877 0zm.7 9.574a6.154 6.154 0 0 1 6.081-6.223 6.661 6.661 0 0 1 6.081 3.96 6.661 6.661 0 0 1 6.081-3.96 6.153 6.153 0 0 1 6.081 6.223c0 5.515-6.564 11.1-12.162 14.708-5.593-3.607-12.158-9.193-12.158-14.708z" style="fill:#ea6500"/>
</svg>
