<svg xmlns="http://www.w3.org/2000/svg" width="28" height="28" viewBox="0 0 28 28">
    <path data-name="合体 16" d="M3.053 27.911a1.166 1.166 0 0 1-.72-1.078v-3.7A3.506 3.506 0 0 1 0 19.833V10.5A3.5 3.5 0 0 1 3.5 7h5.834V3.5a3.5 3.5 0 0 1 3.5-3.5H24.5A3.5 3.5 0 0 1 28 3.5v9.333a3.506 3.506 0 0 1-2.334 3.3v3.7a1.166 1.166 0 0 1-1.991.825l-4.325-4.325h-.684v3.632a3.5 3.5 0 0 1-3.5 3.368H8.65l-4.325 4.325a1.165 1.165 0 0 1-1.271.253zM2.334 10.5v9.333A1.168 1.168 0 0 0 3.5 21a1.167 1.167 0 0 1 1.167 1.167v1.85l2.675-2.675A1.167 1.167 0 0 1 8.166 21h7a1.168 1.168 0 0 0 1.167-1.167v-3.5h-3.5a3.5 3.5 0 0 1-3.5-3.5v-3.5H3.5A1.168 1.168 0 0 0 2.334 10.5zm9.333-7v9.333A1.168 1.168 0 0 0 12.833 14h7a1.168 1.168 0 0 1 .825.341l2.675 2.675v-1.85A1.167 1.167 0 0 1 24.5 14a1.168 1.168 0 0 0 1.167-1.167V3.5A1.168 1.168 0 0 0 24.5 2.333H12.833A1.168 1.168 0 0 0 11.667 3.5z" style="fill:#fff"/>
</svg>
