<svg width="47" height="47" viewBox="0 0 47 47" fill="none" xmlns="http://www.w3.org/2000/svg">
<g clip-path="url(#clip0_208_2)">
<path d="M41.7894 20.977H5.21143C3.81802 20.977 2.68843 22.1064 2.68843 23.4995C2.68843 24.8927 3.81802 26.022 5.21143 26.022H41.7894C43.1828 26.022 44.3124 24.8927 44.3124 23.4995C44.3124 22.1064 43.1828 20.977 41.7894 20.977Z" fill="currentColor"/>
<path d="M20.977 5.21057V41.7886C20.977 43.182 22.1064 44.3116 23.4995 44.3116C24.8927 44.3116 26.022 43.182 26.022 41.7886V5.21057C26.022 3.81715 24.8927 2.68757 23.4995 2.68757C22.1064 2.68757 20.977 3.81715 20.977 5.21057Z" fill="currentColor"/>
</g>
<defs>
<clipPath id="clip0_208_2">
<rect width="33" height="33" fill="white" transform="translate(0.165475 23.5) rotate(-45)"/>
</clipPath>
</defs>
</svg>
