<svg xmlns="http://www.w3.org/2000/svg" width="35" height="44" viewBox="0 0 35 44">
  <g id="icon_logout_orange" transform="translate(-0.4 -0.4)">
    <path id="パス_868" data-name="パス 868" fill="currentColor" d="M29.68,51H12.414A5.535,5.535,0,0,1,7,45.364V12.636A5.535,5.535,0,0,1,12.414,7H29.68a5.535,5.535,0,0,1,5.414,5.636,1.961,1.961,0,1,1-3.921,0A1.571,1.571,0,0,0,29.68,11H12.414a1.571,1.571,0,0,0-1.493,1.636V45.364A1.571,1.571,0,0,0,12.414,47H29.68a1.571,1.571,0,0,0,1.493-1.636,1.961,1.961,0,1,1,3.921,0A5.535,5.535,0,0,1,29.68,51Z" transform="translate(-6.6 -6.6)"/>
    <path id="パス_869" data-name="パス 869" fill="currentColor" d="M134.96,88.547a1.934,1.934,0,0,1-1.364-.564,2.029,2.029,0,0,1-.044-2.828l5.585-5.881-5.585-5.881a2.029,2.029,0,0,1,.044-2.828,1.933,1.933,0,0,1,2.772.045l6.885,7.25a2,2,0,0,1,.238.3,2.031,2.031,0,0,1-.217,2.51l-6.906,7.273A1.936,1.936,0,0,1,134.96,88.547Z" transform="translate(-108.427 -56.874)"/>
    <path id="線_41" data-name="線 41" fill="currentColor" d="M-.04,2A1.981,1.981,0,0,1-2,0,1.981,1.981,0,0,1-.04-2H16.105a1.981,1.981,0,0,1,1.96,2,1.981,1.981,0,0,1-1.96,2Z" transform="translate(16.642 22.287)"/>
  </g>
</svg>
