<svg xmlns="http://www.w3.org/2000/svg" width="51" height="47" viewBox="0 0 51 47">
    <path data-name="合体 6" d="M17.54 45.856 1.135 29.317a3.924 3.924 0 0 1 .8-6.142l9.516-5.555 5.51-9.593A3.887 3.887 0 0 1 18.37 6.6L28.78.526a3.851 3.851 0 0 1 4.681.619l16.4 16.539a3.924 3.924 0 0 1-.8 6.142l-9.515 5.555-5.507 9.587c-.017.029-.033.057-.051.085a3.894 3.894 0 0 1-.562.719 3.911 3.911 0 0 1-.714.567l-.085.051-10.4 6.074a3.849 3.849 0 0 1-4.68-.619zM3.874 26.554l16.4 16.539 9.136-5.333-16.4-16.538zm11.7-8.277L31.96 34.8l4.018-7-16.091-16.218a1.956 1.956 0 0 1-.285-.364l-4.046 7.046zm7.052-9.457L38.9 25.225l.015.015 8.213-4.794-16.4-16.54L22.5 8.7q.066.059.126.12z" style="fill:#659d3b"/>
</svg>
