<svg xmlns="http://www.w3.org/2000/svg" width="13.5" height="15.5" viewBox="0 0 13.5 15.5" stroke="currentColor">
    <path data-name="パス 912" d="M18 45v10.182a1.3 1.3 0 0 0 1.325 1.273h7.948a1.3 1.3 0 0 0 1.327-1.273V45" transform="translate(-16.588 -41.705)" style="fill:none;stroke-linecap:round;stroke-linejoin:round;stroke-width:1.5px"/>
    <path data-name="線 66" transform="translate(.75 3.632)" style="fill:none;stroke-linecap:round;stroke-linejoin:round;stroke-width:1.5px" d="M0 0h12"/>
    <path data-name="線 67" transform="translate(3.75 5.554)" style="fill:none;stroke-linecap:round;stroke-linejoin:round;stroke-width:1.5px" d="M0 0v6.725"/>
    <path data-name="線 68" transform="translate(6.75 5.554)" style="fill:none;stroke-linecap:round;stroke-linejoin:round;stroke-width:1.5px" d="M0 0v6.725"/>
    <path data-name="線 69" transform="translate(9.75 5.554)" style="fill:none;stroke-linecap:round;stroke-linejoin:round;stroke-width:1.5px" d="M0 0v6.725"/>
    <path data-name="パス 913" d="M59.3 11.545v-1.272A1.3 1.3 0 0 0 57.974 9h-2.649A1.3 1.3 0 0 0 54 10.273v1.273" transform="translate(-49.938 -8.25)" style="fill:none;stroke-linecap:round;stroke-linejoin:round;stroke-width:1.5px"/>
</svg>
