<svg xmlns="http://www.w3.org/2000/svg" width="37" height="35" viewBox="0 0 37 35">
    <defs>
        <clipPath id="57pctk0dga">
            <path data-name="長方形 1254" style="fill:#659d3b" d="M0 0h37v35H0z"/>
        </clipPath>
    </defs>
    <g data-name="グループ 32" style="clip-path:url(#57pctk0dga)">
        <path data-name="合体 1" d="M5.018 34.97a5.013 5.013 0 0 1-5.018-5V4.732A1.846 1.846 0 0 1 1.85 2.89h4.625V1.842a1.85 1.85 0 0 1 3.7 0V2.89h3.7V1.842a1.851 1.851 0 0 1 3.7 0V2.89h3.7V1.842a1.85 1.85 0 0 1 3.7 0V2.89h3.7V1.842a1.85 1.85 0 0 1 3.7 0V2.89H36.7a1.846 1.846 0 0 1 1.85 1.842V13a1.841 1.841 0 0 1 0 3.466v13.5a5.013 5.013 0 0 1-5.018 5zm-1.319-5a1.317 1.317 0 0 0 1.319 1.313h28.518a1.317 1.317 0 0 0 1.317-1.313V16.579H3.7zm31.154-17.076v-6.32h-2.479v.794a1.85 1.85 0 0 1-3.7 0v-.794h-3.7v.794a1.85 1.85 0 0 1-3.7 0v-.794h-3.7v.794a1.851 1.851 0 0 1-3.7 0v-.794h-3.7v.794a1.85 1.85 0 0 1-3.7 0v-.794H3.7v6.32zm-6.994 13.922a1.584 1.584 0 1 1 1.584 1.578 1.581 1.581 0 0 1-1.584-1.578zm-6.339 0a1.584 1.584 0 1 1 1.585 1.578 1.581 1.581 0 0 1-1.585-1.578zm-6.337 0a1.584 1.584 0 1 1 1.585 1.578 1.581 1.581 0 0 1-1.585-1.578zm-6.337 0a1.584 1.584 0 1 1 1.585 1.578 1.581 1.581 0 0 1-1.585-1.578zm19.013-6.31a1.584 1.584 0 1 1 1.584 1.578 1.581 1.581 0 0 1-1.584-1.577zm-6.339 0a1.584 1.584 0 1 1 1.585 1.578 1.581 1.581 0 0 1-1.585-1.577zm-6.337 0a1.584 1.584 0 1 1 1.585 1.578 1.581 1.581 0 0 1-1.585-1.577zm-6.337 0a1.584 1.584 0 1 1 1.585 1.578 1.581 1.581 0 0 1-1.585-1.577z" transform="translate(-.925 .001)" style="fill:#659d3b"/>
    </g>
</svg>
