<svg xmlns="http://www.w3.org/2000/svg" width="35" height="43" viewBox="0 0 35 43">
    <path data-name="パス 882" d="M4.611 26.629a1.95 1.95 0 0 1-1.944-1.955 6.814 6.814 0 0 1 1.993-4.837 6.743 6.743 0 0 1 4.812-2h26.25a1.955 1.955 0 0 1 0 3.909H9.472a2.89 2.89 0 0 0-2.062.854 2.92 2.92 0 0 0-.854 2.073 1.95 1.95 0 0 1-1.945 1.956z" transform="translate(-2.667 11.485)" style="fill:#ea6500"/>
    <path data-name="パス 883" d="M9.472.333h26.25a1.95 1.95 0 0 1 1.944 1.955v39.091a1.95 1.95 0 0 1-1.944 1.955H9.472a6.831 6.831 0 0 1-6.806-6.841V7.174A6.831 6.831 0 0 1 9.472.333zm24.306 3.909H9.472a2.928 2.928 0 0 0-2.916 2.932v29.318a2.928 2.928 0 0 0 2.917 2.932h24.305z" transform="translate(-2.667 -.333)" style="fill:#ea6500"/>
</svg>
