<svg xmlns="http://www.w3.org/2000/svg" width="32" height="32" viewBox="0 0 32 32">
    <g data-name="Group 1099">
        <path data-name="Rectangle 444" style="fill:transparent" d="M0 0h32v32H0z"/>
        <path data-name="Path 2041" d="M19.1 26.394H7.565A3.587 3.587 0 0 1 4 23.073L2.931 8.121l2.654-.189 1.068 14.952a.917.917 0 0 0 .912.85H19.1a.917.917 0 0 0 .912-.849l1.064-14.954 2.654.189-1.068 14.954a3.587 3.587 0 0 1-3.562 3.32z" transform="translate(2.999 3.244)" style="fill:#ce5a83"/>
        <path data-name="Line 178" d="M26.935 1.66H-1V-1h27.935z" transform="translate(3.069 7.28)" style="fill:#ce5a83"/>
        <path data-name="Path 2042" d="M18.638 5.819h-2.66V2.66H9.66v3.159H7V0h11.638z" transform="translate(3.51 2.289)" style="fill:#ce5a83"/>
    </g>
</svg>
