<svg xmlns="http://www.w3.org/2000/svg" width="48" height="48" viewBox="0 0 48 48">
    <path data-name="合体 16" d="M5.234 47.847A2 2 0 0 1 4 46v-6.343A6.011 6.011 0 0 1 0 34V18a6.007 6.007 0 0 1 6-6h10V6a6.006 6.006 0 0 1 6-6h20a6.006 6.006 0 0 1 6 6v16a6.01 6.01 0 0 1-4 5.657V34a2 2 0 0 1-3.414 1.414L33.172 28H32V34.23A6.007 6.007 0 0 1 26 40H14.828l-7.414 7.414a2 2 0 0 1-2.18.433zM4 18v16a2 2 0 0 0 2 2 2 2 0 0 1 2 2v3.172l4.585-4.585A2 2 0 0 1 14 36h12a2 2 0 0 0 2-2v-6h-6a6.006 6.006 0 0 1-6-6v-6H6a2 2 0 0 0-2 2zM20 6v16a2 2 0 0 0 2 2h12a2 2 0 0 1 1.415.585L40 29.171V26a2 2 0 0 1 2-2 2 2 0 0 0 2-2V6a2 2 0 0 0-2-2H22a2 2 0 0 0-2 2z" style="fill:#fff"/>
</svg>
