<svg xmlns="http://www.w3.org/2000/svg" width="29" height="31" viewBox="0 0 29 31">
  <defs>
    <style>
      .cls-1 {
        stroke-linecap: round;
      }
    </style>
  </defs>
  <g id="icon_profile_green" transform="translate(-204.75 353.5)">
    <g id="グループ_37" data-name="グループ 37" transform="translate(205.25 -353)">
      <path id="楕円形_8" data-name="楕円形 8" fill="currentColor" stroke="currentColor" class="cls-1" d="M-1.237-9C3.043-9,6.526-5.083,6.526-.268S3.043,8.464-1.237,8.464-9,4.547-9-.268-5.518-9-1.237-9Zm0,14.969c3.057,0,5.545-2.8,5.545-6.237S1.82-6.505-1.237-6.505s-5.545,2.8-5.545,6.237S-4.295,5.969-1.237,5.969Z" transform="translate(15.237 9)"/>
      <path id="パス_780" data-name="パス 780" fill="currentColor" stroke="currentColor" class="cls-1" d="M26.833,122.969a1.209,1.209,0,0,1-1.167-1.247c0-7.03-3.489-11.227-9.333-11.227H11.667c-5.844,0-9.333,4.2-9.333,11.227a1.209,1.209,0,0,1-1.167,1.247A1.209,1.209,0,0,1,0,121.722C0,113.386,4.579,108,11.667,108h4.667C23.421,108,28,113.386,28,121.722A1.209,1.209,0,0,1,26.833,122.969Z" transform="translate(0 -92.969)"/>
    </g>
  </g>
</svg>
