<svg xmlns="http://www.w3.org/2000/svg" xmlns:xlink="http://www.w3.org/1999/xlink" width="180" height="172" viewBox="0 0 180 172">
  <defs>
    <clipPath id="clip-path">
      <rect id="長方形_1782" data-name="長方形 1782" width="180" height="172" fill="none"/>
    </clipPath>
  </defs>
  <g id="illust_manipulator" transform="translate(-76)">
    <g id="グループ_2025" data-name="グループ 2025" transform="translate(76)" clip-path="url(#clip-path)">
      <path id="パス_1320" data-name="パス 1320" d="M606.579,744.182h70.245s-3.588-31.8-17.11-35.757-39.688-9.292-39.688-9.292L611.069,712.9Z" transform="translate(-500.056 -577.438)" fill="#fff"/>
      <path id="パス_1321" data-name="パス 1321" d="M179.824,744.379H109.579s3.588-31.8,17.11-35.757,39.689-9.292,39.689-9.292l8.956,13.766Z" transform="translate(-90.335 -577.601)" fill="#fff"/>
      <path id="パス_1322" data-name="パス 1322" d="M384.618,24l-4.85-1.5a14.9,14.9,0,0,0-12.037-10.506c-9.956-1.732-19.052,3.711-28.893,10.621S314.359,47.967,327.49,68c0,0-6.133,2.31-5.014,12.243s5.836,12.885,10.775,11.206c0,0,2.248,11.358,7.242,18.5l.588,11.562-2.439,2.677L335.487,135.7s-1.786,15.819,5.593,40.711h43.188s6.976-24.325,4.839-45.61l-1.8-6.65-2.364-2.365.333-12.558s4.956-5.564,7.311-17.27c0,0,7.239,1.941,10.2-7.694s-3.27-15.361-3.27-15.361S414.56,32.824,384.618,24" transform="translate(-265.68 -9.638)" fill="#fff"/>
      <path id="パス_1342" data-name="パス 1342" d="M37.485,2074.732c-6.774-.517-20.323-1.034-30.746,4.132s-16.676,19.628-16.676,19.628-13.549-11.363-10.943-23.76S-1.6,2046.84-1.6,2046.84s20.844-11.88,27.619-8.264,11.464,11.364,11.464,11.364a33.2,33.2,0,0,1,13.028,5.165c5.732,4.132,11.986,18.594,11.464,23.759s-7.817,16.012-7.817,16.012l-3.648,3.616S44.259,2075.249,37.485,2074.732Z" transform="translate(77.268 -2036.439)" fill="#ac9b93"/>
      <path id="パス_1323" data-name="パス 1323" d="M622.162,364.175a1.924,1.924,0,1,0-2.218-1.6,1.927,1.927,0,0,0,2.218,1.6" transform="translate(-511.055 -297.626)" fill="#494949"/>
      <path id="パス_1324" data-name="パス 1324" d="M547.693,461.944a1.924,1.924,0,1,0,2.217,1.6,1.927,1.927,0,0,0-2.217-1.6" transform="translate(-450.158 -381.516)" fill="#494949"/>
      <path id="パス_1325" data-name="パス 1325" d="M466.059,361.974a1.941,1.941,0,1,0,2.217-1.6,1.926,1.926,0,0,0-2.217,1.6" transform="translate(-384.194 -297.626)" fill="#494949"/>
      <path id="パス_1326" data-name="パス 1326" d="M604.06,308.984a2.036,2.036,0,0,0,2.728.871,2,2,0,0,0,.879-2.7c-.086-.165-2.14-4.05-6.3-4.57a9.885,9.885,0,0,0-7.322,2.519,1.99,1.99,0,0,0-.079,2.826,2.045,2.045,0,0,0,2.86.1,5.818,5.818,0,0,1,4.033-1.456,4.93,4.93,0,0,1,3.2,2.417" transform="translate(-489.208 -249.864)" fill="#494949"/>
      <path id="パス_1327" data-name="パス 1327" d="M578.752,87.785a2.025,2.025,0,0,0,1.955,1.484,2.049,2.049,0,0,0,.531-.07,2.007,2.007,0,0,0,1.427-2.464c-2.279-8.345-10.522-12.012-10.872-12.164a2.035,2.035,0,0,0-2.671,1.033,2,2,0,0,0,1.043,2.647c.068.029,6.809,3.025,8.587,9.534" transform="translate(-469.036 -61.451)" fill="#494949"/>
      <path id="パス_1328" data-name="パス 1328" d="M404.543,161.052a1.968,1.968,0,0,0,.242.014,2.021,2.021,0,0,0,2.01-1.772c2.654-22.1,13.3-28.658,13.465-28.759A2,2,0,0,0,421,127.8a2.037,2.037,0,0,0-2.768-.739c-.511.291-12.534,7.413-15.458,31.761a2.013,2.013,0,0,0,1.773,2.232" transform="translate(-332.027 -104.721)" fill="#494949"/>
      <path id="パス_1329" data-name="パス 1329" d="M408.394,14.483c.151-.125,15.17-12.423,27.231-10.221,9.967,1.819,10.372,9.164,10.386,9.51a1.987,1.987,0,0,0,2.025,1.916h.043a1.971,1.971,0,0,0,1.984-2.014c-.078-3.779-3.044-11.4-13.7-13.347-13.941-2.545-29.893,10.521-30.565,11.079a1.993,1.993,0,0,0-.255,2.826,2.039,2.039,0,0,0,2.854.249" transform="translate(-333.932 0)" fill="#494949"/>
      <path id="パス_1330" data-name="パス 1330" d="M470.558,157.729a2.035,2.035,0,0,0,2.69-.981,2,2,0,0,0-.99-2.666l-3.071-1.406c.807-1.121,1.631-2.195,2.454-3.189a2.019,2.019,0,0,0,1,.684,21.808,21.808,0,0,1,7.881,4.752,2.039,2.039,0,0,0,2.866-.017,2,2,0,0,0-.017-2.841,25.784,25.784,0,0,0-9.011-5.558,11.751,11.751,0,0,1,4.164-2.9c2.584-.806,7.64,4.642,10.24,8.578a2.038,2.038,0,0,0,2.805.581,2,2,0,0,0,.587-2.78c-1.355-2.055-8.44-12.2-14.846-10.213-7.572,2.354-16.24,18.124-16.6,18.794a2,2,0,0,0,.819,2.723,2.037,2.037,0,0,0,2.747-.813c.792-1.452,1.679-2.949,2.623-4.424Z" transform="translate(-379.599 -115.23)" fill="#494949"/>
      <path id="パス_1331" data-name="パス 1331" d="M357.405,183.48l-.015,0c11.237-3.776,16.21-9.156,18-11.615a1.984,1.984,0,0,0,.04.847l1.8,6.687a2.026,2.026,0,0,0,3.918-1.035l-1.8-6.687a2.031,2.031,0,0,0-2.482-1.423c-.024.006-.047.015-.07.022a1.99,1.99,0,0,0,.051-.532,71,71,0,0,1,.517-11.364c0-.031.005-.062.008-.093a53.32,53.32,0,0,0,6.917-16.37,7.139,7.139,0,0,0,1.425.147,7.562,7.562,0,0,0,5.52-2.584c4.256-4.482,5.976-14.166,3.473-19.551a11.84,11.84,0,0,0-2.313-3.442c3.249-10.767,4.436-19.773.521-31.014-4.329-12.428-17.185-15.51-17.73-15.635a2.01,2.01,0,1,0-.914,3.914c.112.026,11.207,2.682,14.812,13.032a37.631,37.631,0,0,1,1.373,20.969c-.664-16.941-11.027-20.072-11.527-20.212A2.01,2.01,0,0,0,377.8,91.4c.43.131,10.419,3.416,8.352,23.2a6.613,6.613,0,0,0-1.248.425,54.2,54.2,0,0,1-1.768-5.548,76.374,76.374,0,0,0-2.7-8.3c-3.257-7.909-8.37-6.875-8.588-6.826l.887,3.921a.506.506,0,0,1-.1.019c.742-.076,2.54.743,4.048,4.405a73.478,73.478,0,0,1,2.548,7.867c1.178,4.173,2.107,7.468,3.914,8.981A2.04,2.04,0,0,0,386,119.3a2,2,0,0,0,.3-.481,2.046,2.046,0,0,0,.259-.128,2.389,2.389,0,0,1,1.766-.139c.981.322,1.912,1.379,2.693,3.058,1.783,3.836.321,11.888-2.743,15.116a3.314,3.314,0,0,1-3.137,1.264,55.863,55.863,0,0,0,1.022-9.86,2.027,2.027,0,0,0-4.054,0c0,10.292-5.339,39.67-29.059,39.67s-29.06-29.379-29.06-39.67a2.027,2.027,0,0,0-4.054,0,55.853,55.853,0,0,0,1.022,9.86,3.314,3.314,0,0,1-3.136-1.264c-3.064-3.227-4.526-11.28-2.743-15.116.781-1.679,1.712-2.737,2.693-3.058a2.407,2.407,0,0,1,1.762.136,6.231,6.231,0,0,1,2.649,1.324,2.045,2.045,0,0,0,.441-.048,2.009,2.009,0,0,0,1.539-2.4,40.9,40.9,0,0,1,.209-18.676,2.006,2.006,0,0,0-1.357-2.5,2.031,2.031,0,0,0-2.525,1.345,43.4,43.4,0,0,0-.977,16.774c-.163-.027-.334-.048-.511-.064-12.661-21.834,5.7-37.235,6.5-37.884a2,2,0,0,0,.28-2.826,2.04,2.04,0,0,0-2.853-.279c-.219.178-21.273,17.707-7.98,42.028a10.269,10.269,0,0,0-3.549,4.444c-2.5,5.386-.782,15.07,3.474,19.551a7.558,7.558,0,0,0,5.519,2.583,7.148,7.148,0,0,0,1.425-.147,53.629,53.629,0,0,0,6.727,16.08,2.031,2.031,0,0,0,.017.22,73.532,73.532,0,0,1,.521,11.208,1.9,1.9,0,0,0,.154.827,2.03,2.03,0,0,0-2.475,1.425l-1.8,6.687a2.007,2.007,0,0,0,1.437,2.459,2.032,2.032,0,0,0,2.481-1.423l1.8-6.687a1.959,1.959,0,0,0,.048-.248c2.15,2.7,7.126,7.484,17.2,10.932l-.129.026m-14.645-14.491c.058-1.819.018-3.633-.062-5.258a28.522,28.522,0,0,0,39.727.186c-.066,1.415-.1,2.993-.071,4.644a2.064,2.064,0,0,0-.158.263c-.039.076-3.988,7.6-19.811,11.913-13.855-3.783-18.686-10.282-19.625-11.748" transform="translate(-255.755 -57.637)" fill="#494949"/>
      <path id="パス_1332" data-name="パス 1332" d="M502.72,510.992c9.153,0,11.374-10.985,11.464-11.452a2.013,2.013,0,0,0-.429-1.664,2.049,2.049,0,0,0-1.562-.743H493.247a2.049,2.049,0,0,0-1.562.743,2.028,2.028,0,0,0-.429,1.671c.09.467,2.312,11.445,11.464,11.445m6.743-9.856c-.958,2.437-2.972,5.795-6.743,5.795-3.744,0-5.766-3.358-6.733-5.795Z" transform="translate(-404.955 -410.598)" fill="#494949"/>
      <path id="パス_1333" data-name="パス 1333" d="M89.255,733.948a2.149,2.149,0,0,1-.449-.048,2.089,2.089,0,0,1-1.613-2.484c.2-.918,4.952-17.857,7.451-23.388a27.87,27.87,0,0,1,7.648-9.68,2.115,2.115,0,0,1,.667-.341l39.033-11.847a2.111,2.111,0,0,1,2.632,1.386,2.086,2.086,0,0,1-1.4,2.609l-38.638,11.727a23.885,23.885,0,0,0-6.1,7.854c-2.321,5.137-7.131,22.345-7.179,22.565a2.1,2.1,0,0,1-2.057,1.647" transform="translate(-71.841 -566.648)" fill="#494949"/>
      <path id="パス_1334" data-name="パス 1334" d="M752.606,738.647A2.1,2.1,0,0,1,750.549,737c-.048-.221-4.857-22.128-7.179-27.265a23.892,23.892,0,0,0-6.1-7.854l-38.637-11.727a2.086,2.086,0,0,1-1.4-2.609,2.11,2.11,0,0,1,2.632-1.386L738.9,698.006a2.112,2.112,0,0,1,.667.341,27.868,27.868,0,0,1,7.648,9.68c2.5,5.531,7.25,27.169,7.451,28.087a2.089,2.089,0,0,1-1.613,2.484,2.139,2.139,0,0,1-.449.048" transform="translate(-574.716 -566.646)" fill="#494949"/>
      <path id="パス_1335" data-name="パス 1335" d="M498.1,693.127a24.788,24.788,0,0,1-12.06-3.467,1.9,1.9,0,0,1-.589-2.644,1.942,1.942,0,0,1,2.666-.585c.147.091,8.337,5.1,15.694,1.627a1.939,1.939,0,0,1,2.574.906,1.907,1.907,0,0,1-.914,2.552,17.118,17.118,0,0,1-7.372,1.612" transform="translate(-399.948 -566.7)" fill="#494949"/>
      <path id="パス_1336" data-name="パス 1336" d="M281.254,730.922a2.1,2.1,0,0,1-2.107-2.089V706.379a2.085,2.085,0,0,1,1-1.774l30.088-18.534,0-6.844a2.1,2.1,0,0,1,2.106-2.09h0a2.1,2.1,0,0,1,2.107,2.088l.005,8.006a2.085,2.085,0,0,1-1,1.775L283.362,707.54v21.293a2.1,2.1,0,0,1-2.107,2.089" transform="translate(-230.125 -559.271)" fill="#494949"/>
      <path id="パス_1337" data-name="パス 1337" d="M343.415,856.576a5.222,5.222,0,1,1,5.268-5.222,5.251,5.251,0,0,1-5.268,5.222m0-6.266a1.044,1.044,0,1,0,1.054,1.044,1.05,1.05,0,0,0-1.054-1.044" transform="translate(-278.764 -698.85)" fill="#494949"/>
      <path id="パス_1338" data-name="パス 1338" d="M31.1,621.318s4.078-10.732,3.62-16.071a30.362,30.362,0,0,0-2.742-9.865s5.8-2.263,7.2.87,4.039,17.929,4.039,17.929l5.971.87s10.712-1.915,13,.87S64.47,624.8,64.47,624.8l-.928,33.114-38.4,4.219L22.147,653Z" transform="translate(-18.258 -491.095)" fill="#fff"/>
      <path id="パス_1339" data-name="パス 1339" d="M47.964,617.915a12.4,12.4,0,0,0,.594-3.319m-.777-4.061c-.115-.25-.234-.476-.353-.679,1.108-2.53,1.656-6.578-1.9-9.411-3.525-2.8-8.161-1.891-12.643-1.007a45.77,45.77,0,0,1-4.89.786c-.112.009-.221.022-.331.034-1.027-1.953-1.149-4.172-1.285-6.7-.176-3.256-.375-6.946-2.624-10.751-1.539-2.6-3.5-4.137-5.831-4.56a8.562,8.562,0,0,0-6.432,1.689,2,2,0,0,0-.7,2.038c.021.087,2.119,8.725,1.974,13.187-.139,4.265-2.417,10.437-4.248,15.4-.859,2.327-1.67,4.524-2.183,6.3C4.739,622.361.248,640.6.058,641.372A2.008,2.008,0,0,0,1.547,643.8,2.031,2.031,0,0,0,4,642.324c.047-.189,4.662-18.932,6.231-24.362.473-1.635,1.26-3.767,2.093-6.024,2.031-5.5,4.333-11.738,4.493-16.648.125-3.849-1.123-10-1.748-12.8a3.8,3.8,0,0,1,2.146-.289,4.9,4.9,0,0,1,3.04,2.635c1.751,2.963,1.908,5.863,2.074,8.934a21.412,21.412,0,0,0,1.312,7.452,17.491,17.491,0,0,0-6.369,4.2,1.993,1.993,0,0,0,.174,2.826,2.044,2.044,0,0,0,2.859-.161,13.366,13.366,0,0,1,8.026-3.864,48.787,48.787,0,0,0,5.344-.849c3.737-.736,7.265-1.431,9.315.2,2.41,1.918.572,5.032.36,5.371a1.939,1.939,0,0,0,.3,2.516c.072.074,1.755,1.864.227,5.893a2.058,2.058,0,0,0,.187,1.783,6.367,6.367,0,0,1,.507,4.412,4.478,4.478,0,0,1-1.723,3.067,1.846,1.846,0,0,0-1.091,1.034,1.879,1.879,0,0,0,.042,1.519c.04.113.952,2.809-2.582,6.452-1.787,1.842-5.62,3.3-10.832,4.123a2.029,2.029,0,0,0-3.941-.15l-.976,3.5a2.007,2.007,0,0,0,1.413,2.472,2.048,2.048,0,0,0,.541.073,2.025,2.025,0,0,0,1.953-1.474l.109-.391a2.028,2.028,0,0,0,.828.049c4.553-.659,10.647-2.135,13.827-5.414,3.644-3.756,3.988-7.181,3.788-9.109a8.993,8.993,0,0,0,2.617-4.952" transform="translate(0 -477.498)" fill="#494949"/>
      <path id="パス_1340" data-name="パス 1340" d="M195.825,759.824a2.034,2.034,0,0,0-2.592-1.213l-6,2.132a2,2,0,0,0-1.224,2.569,2.035,2.035,0,0,0,2.592,1.213l6-2.132a2.005,2.005,0,0,0,1.224-2.57" transform="translate(-153.244 -626.466)" fill="#494949"/>
      <path id="パス_1341" data-name="パス 1341" d="M203.381,810.04l-2.142,1.472a2,2,0,0,0-.512,2.8,2.039,2.039,0,0,0,2.82.506l2.143-1.472a2,2,0,0,0,.512-2.8,2.037,2.037,0,0,0-2.82-.507" transform="translate(-165.179 -668.744)" fill="#494949"/>
    </g>
  </g>
</svg>
