<svg xmlns="http://www.w3.org/2000/svg" width="150" height="113" viewBox="0 0 150 113">
    <defs>
        <clipPath id="rbqlbb3h5a">
            <path data-name="長方形 1776" style="fill:none" d="M0 0h95.669v103.795H0z"/>
        </clipPath>
        <clipPath id="rx6ohyl5lb">
            <path data-name="長方形 1778" style="stroke:#707070;fill:#fff" d="M0 0h90v83H0z"/>
        </clipPath>
        <clipPath id="jozqv16hvc">
            <path data-name="長方形 1777" style="fill:none" d="M0 0h182.104v182H0z"/>
        </clipPath>
    </defs>
    <g data-name="合体 18" style="fill:#fff">
        <path d="M211-117c-3.374 0-6.648-.66-9.731-1.965a24.916 24.916 0 0 1-7.946-5.357A24.916 24.916 0 0 1 186-142a24.915 24.915 0 0 1 7.322-17.678A24.915 24.915 0 0 1 211-167a24.915 24.915 0 0 1 17.678 7.322A24.915 24.915 0 0 1 236-142a24.95 24.95 0 0 1-3.48 12.73l2.48 9.56.426 1.646-1.646-.427-9.344-2.422A24.89 24.89 0 0 1 211-117z" style="stroke:none" transform="translate(-185 168)"/>
        <path d="M211-166c-13.254 0-24 10.745-24 24s10.746 24 24 24c4.902 0 9.461-1.47 13.26-3.992l9.771 2.533-2.584-9.967A23.885 23.885 0 0 0 235-142c0-13.255-10.745-24-24-24m0-2c3.51 0 6.914.688 10.121 2.044a25.911 25.911 0 0 1 8.264 5.571 25.91 25.91 0 0 1 5.571 8.264A25.84 25.84 0 0 1 237-142c0 4.534-1.176 8.968-3.408 12.878l3.229 12.453-12.22-3.168a25.888 25.888 0 0 1-13.6 3.837c-3.51 0-6.915-.687-10.122-2.044a25.911 25.911 0 0 1-8.263-5.57 25.911 25.911 0 0 1-5.572-8.265 25.839 25.839 0 0 1-2.044-10.12 25.91 25.91 0 0 1 7.615-18.385 25.91 25.91 0 0 1 8.264-5.572A25.84 25.84 0 0 1 211-168z" style="fill:#63564d;stroke:none" transform="translate(-185 168)"/>
    </g>
    <g data-name="グループ 2021">
        <g data-name="グループ 2018">
            <g data-name="グループ 2017" style="clip-path:url(#rbqlbb3h5a)" transform="translate(54.331 9)">
                <path data-name="パス 1268" d="M64.11 170.5s-5.5 11.065-16.208 12.371c0 0-4.719 4.179-9.694 8.6s-8.345 8.834-8.844 12.274 7.436 5.687 9.615 3.186l3.309 7.316s2.527 12.783-3.823 17.229S10.4 240.174 9.4 255.182h93.641a16.189 16.189 0 0 0-5.021-10.749c-4.9-4.393-19.972-9.747-24.3-12.833s-4.33-10.435-3.7-17.362c0 0 11.129-3.627 12.5-13.745S64.11 170.5 64.11 170.5" transform="translate(-8.373 -151.957)" style="fill:#fff"/>
                <path data-name="パス 1269" d="M227.923 37.192c-.382-1.291-.712-2.405-.913-3.211a40.711 40.711 0 0 1-.779-5.765c-.434-4.788-.974-10.746-4.44-15.9-4.184-6.215-8.866-6.931-10.475-6.98C208.4 1.8 204.878 0 200.843 0c-5.837 0-10.778 3.826-11.87 4.736-15.265 4.785-16.877 21.578-17.947 32.71-.163 1.7-.316 3.3-.5 4.651a60.986 60.986 0 0 0-.335 13.873c.1 6.034 5.232 8.868 8.981 10.94a13.11 13.11 0 0 1 3.68 2.5 2.308 2.308 0 0 0 1.758 1.137 1.517 1.517 0 0 0 1.163-.547c.28-.327 1.129-1.322.083-7.905a1.261 1.261 0 0 0-.09-.307l-3.718-8.488a1.255 1.255 0 0 0-2.2-.187 2.971 2.971 0 0 1-2.215 1.239 2.505 2.505 0 0 1-.489-.049.461.461 0 0 1-.334-.232c-.455-.708-.319-2.464-.077-3.483a1.255 1.255 0 0 0-.029-.69l-.943-2.833c1.069-2.211 3.33-4.622 6.892-7.354 2.757-2.114 6.474-6.658 7.6-8.063 9.928-1.236 14.844-6.937 17.051-10.715a91.32 91.32 0 0 1 9.984 15.492 103.841 103.841 0 0 0 5.571 9.942l-.975 3.007a1.218 1.218 0 0 0 .541 1.459c.18.117 1.033.8.224 2.7a1.256 1.256 0 0 1-1.349.831 6.151 6.151 0 0 1-2.483-.707 1.255 1.255 0 0 0-1.733.543l-3.718 7.534a1.3 1.3 0 0 0-.073.184c-.172.555-1.668 5.5-1.165 8.156a1.734 1.734 0 0 0 1.722 1.507c1.136 0 2.348-.955 4.98-3.114a50.085 50.085 0 0 1 8.539-6.014c6.976-3.583 2.955-17.156.553-25.265" transform="translate(-151.461)" style="fill:#ac9b93"/>
                <path data-name="パス 1270" d="M251.231 803.389a115.169 115.169 0 0 1-23.971 2.819 115.064 115.064 0 0 1-23.97-2.822 1.251 1.251 0 0 0-1.534 1.433l2.523 13.923a1.233 1.233 0 0 0 1.235 1.006h43.49a1.233 1.233 0 0 0 1.235-1.006l2.524-13.91a1.256 1.256 0 0 0-1.534-1.444" transform="translate(-179.796 -715.979)" style="fill:#ea6500"/>
                <path data-name="パス 1271" d="M78.076 176.9a62.043 62.043 0 0 1-6.285-2.636 1.254 1.254 0 0 0-1.545.359 14.8 14.8 0 0 1-5.7-4.3 1.326 1.326 0 0 0-.057-.074c-2.547-3.075-2.018-11.514-1.6-14.507 0-.019 0-.039.005-.058a31.376 31.376 0 0 0 3.545-7.619 3.579 3.579 0 0 0 2.849 1.414h.136a1.25 1.25 0 0 0-.167.633c0 .061 0 6.175-4.054 9.463a1.255 1.255 0 0 0 1.582 1.949c5.006-4.063 4.986-11.138 4.983-11.438a1.275 1.275 0 0 0-.664-1.1 3.577 3.577 0 0 0 .782-5.55 9.661 9.661 0 0 0 .914-1.457c1.449 2.434 3.563 8.629 1.2 12.086a1.255 1.255 0 0 0 2.072 1.418c3.429-5.01.079-13.109-1.461-15.336-1.47-2.123-8.606-13.729-8.678-13.846a1.261 1.261 0 0 0-2.153 1.315c.238.388 4.847 7.831 7.349 11.83a6.855 6.855 0 0 1-1.606 2.88 3.135 3.135 0 0 0-.238-.009 3.545 3.545 0 0 0-1.513.338 34.741 34.741 0 0 0 .571-5.809 1.255 1.255 0 1 0-2.509 0c0 6.431-3.306 24.786-18 24.786s-18-18.356-18-24.786a1.255 1.255 0 0 0-1.246-1.255c1.2-1.154 2.519-2.241 3.916-3.387a64.7 64.7 0 0 0 7.349-6.756c13.28-2.245 17.37-14.111 17.539-14.617a1.255 1.255 0 0 0-2.382-.794 20.684 20.684 0 0 1-12.467 12.164q.178-.236.357-.478c4.281-5.807 8.26-14.922 8.428-15.307a1.255 1.255 0 0 0-2.3-1c-.04.092-4.035 9.242-8.146 14.818a52.973 52.973 0 0 1-9.967 10.03c-1.5 1.231-2.918 2.394-4.232 3.68a26.775 26.775 0 0 0-6.917 10.8 1.256 1.256 0 0 0 .869 1.548 1.273 1.273 0 0 0 .34.047 1.256 1.256 0 0 0 1.208-.916 17.191 17.191 0 0 1 1.112-2.676c.149.231.312.462.492.689a3.58 3.58 0 0 0 1.505 5.882l-.017.033c-.107.234-2.54 5.8 3.649 11.86a1.255 1.255 0 1 0 1.757-1.794c-4.865-4.764-3.2-8.842-3.118-9.034a1.252 1.252 0 0 0-.032-1.087 3.6 3.6 0 0 0 1.7-1.223 31.376 31.376 0 0 0 3.546 7.62c0 .019 0 .038.005.058.419 2.992.949 11.432-1.6 14.507-.02.024-.039.049-.057.074a14.575 14.575 0 0 1-5.7 4.306 1.254 1.254 0 0 0-1.544-.361 62 62 0 0 1-6.285 2.634C8.711 180.08.432 184.56 0 195.728a1.234 1.234 0 0 0 1.252 1.284l27.587.027s.006.026.01.026a1.234 1.234 0 0 0 1.255-1.23 1.257 1.257 0 0 0-.071-.419l-3.96-18.344a17.163 17.163 0 0 0 7.064-5.259c2.454-3 2.655-8.77 2.467-12.637a16.752 16.752 0 0 0 12.227 4.958 16.751 16.751 0 0 0 12.227-4.958c-.188 3.867.013 9.636 2.467 12.637a17.164 17.164 0 0 0 7.063 5.258L65.6 195.558a1.218 1.218 0 0 0 1.227 1.481l27.587-.027a1.23 1.23 0 0 0 .9-.36 1.254 1.254 0 0 0 .349-.918c-.431-11.168-8.71-15.652-17.593-18.833m-8.786-32.081a1.072 1.072 0 1 1-1.072 1.072 1.074 1.074 0 0 1 1.072-1.072m-42.904 2.144a1.072 1.072 0 1 1 1.072-1.072 1.073 1.073 0 0 1-1.072 1.072m0-4.655c-.074 0-.146 0-.219.007a6.667 6.667 0 0 1-1.388-2.14 26.816 26.816 0 0 1 2.553-3.293 34.841 34.841 0 0 0 .569 5.763 3.561 3.561 0 0 0-1.516-.338" transform="translate(0 -93.27)" style="fill:#494949"/>
                <path data-name="パス 1272" d="M433.233 459.936a1.2 1.2 0 1 0-1.373-1 1.2 1.2 0 0 0 1.373 1" transform="translate(-384.878 -407.785)" style="fill:#494949"/>
                <path data-name="パス 1273" d="M172.5 247.808a1.255 1.255 0 0 0 1.64-.68c.044-.107 4.507-10.756 12.661-18.265a1.255 1.255 0 1 0-1.7-1.847c-8.557 7.88-13.091 18.7-13.281 19.152a1.256 1.256 0 0 0 .68 1.64" transform="translate(-153.047 -202.031)" style="fill:#494949"/>
                <path data-name="パス 1274" d="M337.825 38.024a1.262 1.262 0 0 0 .327-.043 32.572 32.572 0 0 1 9.564-.713 1.255 1.255 0 0 0 .168-2.505 34.777 34.777 0 0 0-10.383.793 1.255 1.255 0 0 0 .325 2.468" transform="translate(-299.966 -30.909)" style="fill:#494949"/>
                <path data-name="パス 1275" d="M384.135 505.817c5.669 0 7.044-6.87 7.1-7.162a1.29 1.29 0 0 0-1.235-1.524h-11.732a1.277 1.277 0 0 0-.967.478 1.3 1.3 0 0 0-.266 1.058c.056.292 1.432 7.151 7.1 7.151m4.176-6.185c-.593 1.523-1.841 3.621-4.176 3.621-2.318 0-3.571-2.1-4.17-3.621z" transform="translate(-336.01 -443.064)" style="fill:#494949"/>
                <path data-name="パス 1276" d="M499.115 356.577a1.255 1.255 0 1 0 1.358-2.111 6.2 6.2 0 0 0-5.587-.729 1.255 1.255 0 0 0 1 2.3 3.719 3.719 0 0 1 3.234.536" transform="translate(-440.387 -314.947)" style="fill:#494949"/>
                <path data-name="パス 1277" d="M334.043 355.386a1.255 1.255 0 0 0-.655-1.65 6.2 6.2 0 0 0-5.587.729 1.255 1.255 0 1 0 1.358 2.111 3.726 3.726 0 0 1 3.248-.53 1.255 1.255 0 0 0 1.636-.66" transform="translate(-291.637 -314.947)" style="fill:#494949"/>
                <path data-name="パス 1278" d="M484.22 295.144a1.255 1.255 0 0 0 1.722 1.827 3.59 3.59 0 0 1 2.5-.91 4.788 4.788 0 0 1 2.606 1.7 1.255 1.255 0 0 0 1.987-1.534 7.226 7.226 0 0 0-4.278-2.661 6.1 6.1 0 0 0-4.534 1.574" transform="translate(-431.21 -261.609)" style="fill:#494949"/>
            </g>
        </g>
        <g data-name="マスクグループ 25" transform="translate(2 30)" style="clip-path:url(#rx6ohyl5lb)">
            <g data-name="グループ 2020">
                <g data-name="グループ 2019" transform="translate(4.448 32)" style="clip-path:url(#jozqv16hvc)">
                    <path data-name="パス 1279" d="m233.6 31.912-1.17-19.6 22.2-.994 1.783 39.848-9.743.533a35.23 35.23 0 0 1 1.673 10.88l.362 3.772h2.864s5.869 21.919 8.159 31.335l2.091-1.166s52.007 6.347-5.037 15.277l-22.133-35.1-1.05-7.185 2.706-.667-5.825-20.971s-2.817-6.052-.392-10.188 3.511-5.769 3.511-5.769" transform="translate(-205.739 -10.164)" style="fill:#fff"/>
                    <path data-name="パス 1280" d="M296.829 647.847c-6.5 2.376-10.582-.942-12.258-9.578-2.132-10.986-8.144-48.7-8.144-48.7l15.852-2.633 10.236 32.24 1.8-1.112" transform="translate(-248.241 -527.091)" style="fill:#ffcc19"/>
                    <path data-name="パス 1281" d="M72.715 69.007a1.155 1.155 0 0 1-1.155-1.155v-3.426a1.155 1.155 0 1 1 2.309 0v3.426a1.155 1.155 0 0 1-1.155 1.155" transform="translate(-64.263 -56.819)" style="fill:#ffcc19"/>
                    <path data-name="パス 1282" d="M72.715 178.53a1.155 1.155 0 0 1-1.155-1.155v-3.426a1.155 1.155 0 1 1 2.309 0v3.426a1.155 1.155 0 0 1-1.155 1.155" transform="translate(-64.263 -155.175)" style="fill:#ffcc19"/>
                    <path data-name="パス 1283" d="M114.106 137.142h-3.426a1.155 1.155 0 0 1 0-2.309h3.426a1.155 1.155 0 0 1 0 2.309" transform="translate(-98.357 -121.084)" style="fill:#ffcc19"/>
                    <path data-name="パス 1284" d="M4.581 137.142H1.155a1.155 1.155 0 0 1 0-2.309h3.426a1.155 1.155 0 0 1 0 2.309" transform="translate(0 -121.084)" style="fill:#ffcc19"/>
                    <path data-name="パス 1285" d="M631.085 296.336a1.155 1.155 0 0 1-1.155-1.155v-2.768a1.155 1.155 0 0 1 2.309 0v2.768a1.155 1.155 0 0 1-1.155 1.155" transform="translate(-565.7 -261.56)" style="fill:#ffcc19"/>
                    <path data-name="パス 1286" d="M631.085 384.825a1.155 1.155 0 0 1-1.155-1.155v-2.77a1.155 1.155 0 1 1 2.309 0v2.768a1.155 1.155 0 0 1-1.155 1.155" transform="translate(-565.7 -341.026)" style="fill:#ffcc19"/>
                    <path data-name="パス 1287" d="M664.522 351.386h-2.768a1.155 1.155 0 1 1 0-2.309h2.768a1.155 1.155 0 1 1 0 2.309" transform="translate(-593.242 -313.483)" style="fill:#ffcc19"/>
                    <path data-name="パス 1288" d="M576.037 351.386h-2.768a1.155 1.155 0 1 1 0-2.309h2.768a1.155 1.155 0 0 1 0 2.309" transform="translate(-513.779 -313.483)" style="fill:#ffcc19"/>
                    <path data-name="パス 1289" d="M449.033 580.076a1.156 1.156 0 0 1-1.124-.894c-.041-.174-4.112-17.665-9.758-38.008a1.155 1.155 0 1 1 2.226-.618c5.659 20.393 9.741 37.929 9.782 38.1a1.156 1.156 0 0 1-1.126 1.416" transform="translate(-393.437 -484.678)" style="fill:#333"/>
                    <path data-name="パス 1290" d="M263.024 545.178a1.155 1.155 0 0 1-.24-2.284l14.8-3.157a1.155 1.155 0 1 1 .482 2.258l-14.8 3.157a1.163 1.163 0 0 1-.242.026" transform="translate(-235.168 -484.68)" style="fill:#333"/>
                    <path data-name="パス 1291" d="M282.238 654.932a5.716 5.716 0 0 1-1.967-.313c-6.212-2.268-7.928-13.732-9.588-24.819-.344-2.293-.668-4.46-1.03-6.547-2.065-11.895-4.518-28.971-4.542-29.143a1.155 1.155 0 1 1 2.286-.328c.025.171 2.473 17.215 4.532 29.076.367 2.114.708 4.394 1.039 6.6 1.488 9.934 3.174 21.194 8.1 22.992 2.8 1.023 10.714-1.338 32.491-18.4a1.155 1.155 0 0 1 1.424 1.818c-10.706 8.387-25.261 19.063-32.741 19.063" transform="translate(-238.068 -532.348)" style="fill:#333"/>
                    <path data-name="パス 1292" d="M385.324 291.708a1.155 1.155 0 0 1-1.155-1.152 41.829 41.829 0 0 0-2.455-13.02 1.155 1.155 0 0 1 .169-1.126 37.06 37.06 0 0 0 4.034-6.544c1.175-2.663.84-3.783.836-3.794a.313.313 0 0 0 .025.062l2.1-.957c.139.3.747 2-.85 5.622a37.346 37.346 0 0 1-3.934 6.515 43.713 43.713 0 0 1 2.383 13.237 1.155 1.155 0 0 1-1.152 1.157z" transform="translate(-342.724 -238.138)" style="fill:#333"/>
                    <path data-name="パス 1293" d="M336.342 199.289a1.155 1.155 0 0 1-.651-2.109c4.97-3.383 10.445-7.868 10.674-9.152a2.993 2.993 0 0 0-.254-1.574l-11.543 8.054a1.155 1.155 0 0 1-1.322-1.894l12.33-8.6a1.156 1.156 0 0 1 1.129-.109c.8.356 2.123 1.659 1.964 4.281-.17 2.785-8.224 8.554-11.678 10.906a1.152 1.152 0 0 1-.649.2" transform="translate(-298.824 -165.062)" style="fill:#333"/>
                    <path data-name="パス 1294" d="M293.338 160.024a1.155 1.155 0 0 1-.513-2.19c.095-.047 9.48-4.7 12.562-6.974 1.882-1.388 3.753-1.663 5.132-.756 1.46.961 1.961 2.96 1.375 5.486a1.155 1.155 0 0 1-2.249-.522c.413-1.777.046-2.745-.395-3.034-.509-.335-1.465-.072-2.493.685-3.245 2.392-12.515 6.991-12.908 7.185a1.15 1.15 0 0 1-.511.12" transform="translate(-262.39 -134.326)" style="fill:#333"/>
                    <path data-name="パス 1295" d="M228.587 109.015a1.155 1.155 0 0 1-1.06-1.611q.109-.256.234-.511c1.7-3.528 11.064-16.367 11.462-16.912a1.155 1.155 0 0 1 .742-.458 4.379 4.379 0 0 1 3.552.941 3.633 3.633 0 0 1 .868 3.328 1.165 1.165 0 0 1-.15.416l-5.95 9.972A1.155 1.155 0 0 1 236.3 103l5.827-9.766a1.432 1.432 0 0 0-.234-1.123 1.749 1.749 0 0 0-1.122-.331c-1.671 2.304-9.484 13.12-10.931 16.12-.067.14-.132.28-.192.42a1.155 1.155 0 0 1-1.061.7" transform="translate(-204.243 -80.342)" style="fill:#333"/>
                    <path data-name="パス 1296" d="M237.43 376.975a1.155 1.155 0 0 1-1.107-.829c-.036-.122-3.615-12.266-4.984-16.144a1.155 1.155 0 0 1 2.178-.769c1.388 3.935 4.873 15.759 5.021 16.26a1.156 1.156 0 0 1-1.108 1.481" transform="translate(-207.692 -321.913)" style="fill:#333"/>
                    <path data-name="パス 1297" d="M342.112 42.55a1.155 1.155 0 0 1-.05-2.308l7.724-.346-1.68-37.541-12.48.558a1.155 1.155 0 1 1-.1-2.307L349.156 0a1.155 1.155 0 0 1 1.205 1.1l1.783 39.848a1.154 1.154 0 0 1-1.1 1.205l-8.878.4h-.053" transform="translate(-300.321 .004)" style="fill:#333"/>
                    <path data-name="パス 1298" d="M252.4 30.6a1.155 1.155 0 0 1-1.153-1.1l-.847-19.149a1.155 1.155 0 0 1 1.1-1.205l1.5-.067a1.155 1.155 0 1 1 .1 2.307l-.35.016.8 17.988a1.155 1.155 0 0 1-1.1 1.205h-.05" transform="translate(-224.863 -8.151)" style="fill:#333"/>
                    <path data-name="パス 1299" d="M220.413 294.714a1.155 1.155 0 1 1-1.155-1.154 1.155 1.155 0 0 1 1.155 1.154" transform="translate(-195.865 -263.627)" style="fill:#ffcc19"/>
                    <path data-name="パス 1300" d="M301.952 9.325a1.155 1.155 0 1 1-1.152-1.154 1.155 1.155 0 0 1 1.155 1.154" transform="translate(-269.09 -7.337)" style="fill:#ffcc19"/>
                    <path data-name="パス 1301" d="M224.942 326.423a1.155 1.155 0 1 1-1.155-1.154 1.155 1.155 0 0 1 1.155 1.154" transform="translate(-199.932 -292.103)" style="fill:#ffcc19"/>
                </g>
            </g>
        </g>
    </g>
    <g data-name="グループ 8735">
        <g data-name="グループ 8736">
            <path data-name="パス 8897" d="M23.039 20v13.863a1.422 1.422 0 0 1-1.422 1.422H2.422A1.422 1.422 0 0 1 1 33.863V20" transform="translate(14.355 .109)" style="stroke:#464646;stroke-linejoin:round;stroke-width:2px;fill:none"/>
            <path data-name="線 203" transform="translate(15.37 18.741)" style="stroke-linecap:round;stroke:#464646;stroke-linejoin:round;stroke-width:2px;fill:none" d="M2.118 0 0 1.349"/>
            <path data-name="パス 8898" d="m28.888 3.134-3.015-1.909a1.375 1.375 0 0 0-1.506 0l-3 1.908" transform="translate(1.226 12.355)" style="stroke-linecap:round;stroke:#464646;stroke-linejoin:round;stroke-width:2px;fill:none"/>
            <path data-name="線 204" transform="translate(35.262 18.749)" style="stroke-linecap:round;stroke:#464646;stroke-linejoin:round;stroke-width:2px;fill:none" d="M2.118 1.341 0 0"/>
            <path data-name="パス 8899" d="M23.051 33.04 12.77 39.549a1.373 1.373 0 0 1-1.506 0L1.041 33.04" transform="translate(14.329 -8.295)" style="stroke-linecap:round;stroke:#464646;stroke-linejoin:round;stroke-width:2px;fill:none"/>
            <path data-name="パス 8900" d="M7 15.531V8.422A1.422 1.422 0 0 1 8.422 7h14.93a1.422 1.422 0 0 1 1.422 1.422v7.109" transform="translate(10.488 8.488)" style="stroke-linecap:round;stroke:#464646;stroke-linejoin:round;stroke-width:2px;fill:none"/>
        </g>
    </g>
</svg>
