<svg id="Icon_-_Instagram" data-name="Icon - Instagram" xmlns="http://www.w3.org/2000/svg" width="16.64" height="16.64" viewBox="0 0 16.64 16.64">
  <g id="グループ_1486" data-name="グループ 1486">
    <path id="パス_784" data-name="パス 784" fill="currentColor" d="M-106.032,185.832a2.953,2.953,0,0,1,2.949,2.95v6.727a2.953,2.953,0,0,1-2.949,2.949h-6.727a2.953,2.953,0,0,1-2.95-2.949v-6.727a2.953,2.953,0,0,1,2.95-2.95h6.727m0-2.007h-6.727a4.971,4.971,0,0,0-4.957,4.957v6.727a4.971,4.971,0,0,0,4.957,4.957h6.727a4.971,4.971,0,0,0,4.957-4.957v-6.727a4.971,4.971,0,0,0-4.957-4.957Z" transform="translate(117.715 -183.825)"/>
    <path id="パス_785" data-name="パス 785" fill="currentColor" d="M-83.653,191.825a1.062,1.062,0,0,0-1.062,1.062,1.062,1.062,0,0,0,1.062,1.062,1.062,1.062,0,0,0,1.062-1.062,1.062,1.062,0,0,0-1.062-1.062Z" transform="translate(96.398 -188.993)"/>
    <g id="グループ_1485" data-name="グループ 1485" transform="translate(3.894 3.894)">
      <path id="パス_786" data-name="パス 786" fill="currentColor" d="M-102.289,196.832a2.421,2.421,0,0,1,2.418,2.418,2.421,2.421,0,0,1-2.418,2.418,2.421,2.421,0,0,1-2.418-2.418,2.421,2.421,0,0,1,2.418-2.418m0-2.007a4.425,4.425,0,0,0-4.426,4.426,4.426,4.426,0,0,0,4.426,4.426,4.426,4.426,0,0,0,4.425-4.426,4.426,4.426,0,0,0-4.425-4.426Z" transform="translate(106.715 -194.825)"/>
    </g>
  </g>
</svg>
