<svg xmlns="http://www.w3.org/2000/svg" width="192" height="43" viewBox="0 0 192 43" fill="currentColor">
    <g data-name="グループ 2">
        <g data-name="グループ 1">
            <path data-name="パス 1" d="M344.643 490.787c0 1.042-.664 1.421-1.85 1.421-.712 0-1.139-.426-1.139-1.278 0-.428.047-2.321.047-4.452a25.083 25.083 0 0 1-9.582 6.868c-1.281.52-2.086-.616-1-1.422a25.586 25.586 0 0 0 9.155-9H337.1v.283c0 .995-.664 1.421-1.85 1.421q-1.139 0-1.139-1.279a66.2 66.2 0 0 0-.19-8.43.537.537 0 0 1 .712-.568 9.1 9.1 0 0 1 3.036 1.279h4.175c0-.853 0-1.8-.047-2.747h-9.346c-.617 0-1.044-.189-1.044-.947 0-.71.427-.947 1.044-.947h9.349a54.48 54.48 0 0 0-.239-3.693.565.565 0 0 1 .618-.663c1.28 0 4.6.236 4.6 1.23 0 .617-.759.995-2.04 1.089 0 .427-.047 1.185-.047 2.037h4.508c.758-1.089 1.708-2.272 2.229-2.272.808 0 3.606 2.32 3.606 3.267.047.616-.617.9-2.135.9h-8.254l-.047 2.747h4.126c.523-.758 1.187-1.42 1.613-1.42.807 0 3.274 1.893 3.274 2.888 0 .567-.663.947-1.375 1.279 0 1.184-.049 3.126-.049 3.836 0 1.467-.615 1.8-1.755 1.8a1.186 1.186 0 0 1-1.28-1.088H344.6zm22.106 15.345c1.044-1.516 2.372-3.268 3.13-3.268.95 0 4.46 2.889 4.46 4.073 0 .663-.759 1.089-2.657 1.089h-39.373c-.615 0-1.044-.189-1.044-.947 0-.711.428-.947 1.044-.947h9.582c.047-2.983.047-6.915-.142-8.808a.6.6 0 0 1 .664-.711c.807 0 4.792.188 4.792 1.326 0 .758-.807 1.089-2.04 1.374v6.819h6.593V495h-15.226c-.617 0-1.044-.189-1.044-.946 0-.711.427-.949 1.044-.949h27.086c.854-1.279 1.945-2.652 2.562-2.652.854 0 3.938 2.559 3.938 3.6 0 .614-.664.946-2.325.946h-11.812c0 .474-.285.805-.9.995v3.41h6.927c.9-1.279 1.991-2.7 2.608-2.7.854 0 3.936 2.6 3.936 3.647.049.614-.758.946-2.323.946H355.08v4.831zm-29.7-25.1h4.751l.047-2.084v-1.42H337.1c0 .568-.047 1.846-.047 2.841zm7.542-3.5v3.5h4.509a89.56 89.56 0 0 0 .095-3.5zm6.927 9.708a1.771 1.771 0 0 1-1.567 2.084c-1 .141-1.422-.805-2.039-1.658-.427-.568-.95-1.137-1.423-1.658-.712-.758-.332-1.7.9-1.468 1.95.375 3.896 1.038 4.134 2.696zm18.216-11.271a1.59 1.59 0 0 1 .853 1.089c0 .567-.664.853-2.087.9a20.352 20.352 0 0 1-3.462 6.3 20.38 20.38 0 0 0 9.157 3.835c1.564.238.948.949.094 1.326a3.849 3.849 0 0 0-1.849 1.421c-.476.663-.713 1.042-2.231.568a17.165 17.165 0 0 1-7.447-4.783 25.817 25.817 0 0 1-11.053 5.209c-1.423.332-1.755-.995-.473-1.514a26.091 26.091 0 0 0 9.866-5.826 22.256 22.256 0 0 1-2.893-6.157 20.26 20.26 0 0 1-3.843 4.358c-1.09.9-2.04.047-1.328-1.042a32.668 32.668 0 0 0 5.978-14.3c.046-.475.378-.71.949-.616 1.661.332 4.128 1.374 4.128 2.177 0 .663-.571.947-2.088.995-.476 1.374-1 2.747-1.567 4.168h7.828c.9-1.279 1.944-2.7 2.562-2.7.853 0 3.747 2.6 3.794 3.6 0 .663-.854.995-2.23.995zm-10.248.142a16.965 16.965 0 0 0 3.463 6.2 16.438 16.438 0 0 0 2.752-6.345h-6.166z" transform="translate(-330.612 -466.635)" />
            <path data-name="パス 2" d="M379.817 507.874c0 1.041-.664 1.563-2.087 1.563a1.165 1.165 0 0 1-1.281-1.326c0-3.031.285-17.287.046-24.011a43.351 43.351 0 0 1-5.55 6.393c-.995.995-2.135.1-1.28-1.089 5.217-6.772 9.392-14.633 10.721-22.02.095-.522.283-.758.853-.71 1.708.332 4.887 1.8 4.887 2.841.047.805-.9 1.042-2.325.854a63.953 63.953 0 0 1-4.7 9.707c1.137.475 2.608 1.231 2.608 1.895s-.807.949-1.8 1.089c-.141 2.273-.141 9.708-.141 11.224zm20.065-27.469c3.416 7.057 8.825 11.983 14.991 14.208 1.518.475.854 1.137.095 1.421a3.416 3.416 0 0 0-1.85 1.42c-.568.854-.948 1.138-2.229.57-4.46-2.51-8.967-8.145-11.907-15.345v4.973c0 1.61.047 5.966.095 10.277h2.942c.9-1.326 1.991-2.747 2.608-2.747.9 0 3.8 2.6 3.8 3.646 0 .663-.854.995-2.182.995h-7.163c.046 3.836.094 7.2.094 8.1 0 1.091-.663 1.705-2.134 1.705a1.3 1.3 0 0 1-1.423-1.42c0-.947.095-4.5.19-8.383h-6.979c-.617 0-1.044-.188-1.044-.947 0-.711.427-.946 1.044-.946h7.02c.095-3.931.19-7.768.19-9.329v-3.552c-3.083 6.346-7.779 12.219-13.71 15.676-1.281.8-2.181-.284-1.091-1.233a44.933 44.933 0 0 0 12.951-19.085h-10.579c-.617 0-1.044-.188-1.044-.946 0-.71.427-.947 1.044-.947h12.429a86.324 86.324 0 0 0-.569-10.657c-.094-.425.19-.663.617-.663 2.942 0 5.407.284 5.407 1.421 0 .806-.949 1.279-2.418 1.563-.047 1.563-.047 4.926-.095 8.336h7.447c1.044-1.516 2.372-3.316 3.13-3.316.95 0 4.507 2.936 4.507 4.119 0 .663-.9 1.089-2.7 1.089z" transform="translate(-318.294 -466.625)" />
        </g>
    </g>
    <g data-name="グループ 3">
        <path data-name="パス 3" d="M420.591 495.355a2.075 2.075 0 0 1-1.567.993 1.868 1.868 0 0 1-1.659-2.083c0-1.421.142-1.563.712-2.131 1.374-1.468 3.131-3.361 6.4-11.412a20.312 20.312 0 0 1-4.507.472c-2.181 0-3.13-.568-3.889-1.563a3.346 3.346 0 0 1-.664-1.374c0-.332.188-.472.38-.472a8.1 8.1 0 0 1 1.137.472 6.113 6.113 0 0 0 2.611.475 25.966 25.966 0 0 0 5.739-.758 20.836 20.836 0 0 0 .807-5.257c0-.379-.285-1.988-.285-2.319a1.405 1.405 0 0 1 1.423-1.28 2.655 2.655 0 0 1 2.42 2.51 23.954 23.954 0 0 1-1.66 5.54c.285-.141 1.754-.709 1.945-.8a4.612 4.612 0 0 1 1.327-.711c.808 0 1.993.568 1.993 1.562 0 .854-1.139 1.422-1.328 1.517-.9.379-2.323.8-4.933 1.562-1.232 3.219-4.98 13.21-6.402 15.057zm26.137 9.708c0 .995-.38 1.61-1.281 1.61a2.537 2.537 0 0 1-2.276-1.137c-.618-.616-3.607-3.6-5.315-4.5-.285 1.562-1.042 5.824-7.3 5.824-2.323 0-7.02-.9-7.02-4.263 0-3.126 3.509-5.067 8.444-5.067 1.186 0 2.136.095 2.941.142-.095-1.752-.237-5.684-.237-6.726 0-3.125.095-4.735 3.084-6.961a3.365 3.365 0 0 1 1.376-.663.723.723 0 0 1 .712.663c0 .379-1.33 1.563-1.566 1.847a4.814 4.814 0 0 0-1.139 3.172c0 1.47.807 7.957.807 9.283 3.458.856 8.771 4.413 8.771 6.776zm-16.413-5.589c-2.609 0-4.744.995-4.744 2.794 0 2.037 2.989 2.226 4.08 2.226 2.323 0 4.98-1.135 5.17-4.261a13.018 13.018 0 0 0-4.505-.759zm15.654-17.1c-.474 0-2.941.284-2.989.284-.094 0-.759 0-.759-.472 0-.522.807-.806 1.044-.854.618-.236 1.044-.474 1.044-.9 0-1.326-3.225-1.752-5.029-1.943-.236-.046-.664-.093-.664-.472 0-.616 2.325-1.138 3.7-1.138.712 0 6.642.238 6.642 3.647.001 1.853-2.182 1.853-2.988 1.853z" transform="translate(-308.252 -466.491)" />
        <path data-name="パス 4" d="M476.939 485.465c0 2.179-.191 9.14-2.372 13.355-3.084 5.825-7.686 6.393-10.2 6.393-6.12 0-10.1-3.74-10.1-9.756 0-5.73 3.937-11.887 5.645-14.018.474-.616 2.894-3.172 3.368-3.694a21.881 21.881 0 0 1-6.69 2.133c-1.518 0-2.323-1.564-2.323-3.222 0-.188 0-.663.332-.663a9.631 9.631 0 0 1 .995.475 3.576 3.576 0 0 0 1.613.332 13.531 13.531 0 0 0 7.068-2.226c.9-.758 1.093-.9 1.9-.9a2.226 2.226 0 0 1 2.276 1.988c0 .854-.283.995-1.85 1.754-2.752 1.325-9.013 9.945-9.013 17.238a7.752 7.752 0 0 0 1.85 5.494 7.449 7.449 0 0 0 5.123 1.8c5.788 0 11.2-6.156 11.2-22.352 0-.332 0-1.989-.047-2.131-.141-.807-1.469-4.121-1.469-4.831 0-.947.38-1.184 1.234-1.184 1.9 0 1.991.9 2.229 2.652.95 7.862 6.547 16.1 9.394 17.665 1.8.995 2.229 1.183 2.229 2.6 0 1.326-1.423 1.61-2.372 1.61-2.418 0-3.794-1.989-6.261-6.773a43.219 43.219 0 0 1-4.033-10.892c.035 1.043.274 6.679.274 7.153zm3.889-12.124c0-.237.237-.332.474-.332 1.993 0 5.5 1.374 5.5 3.789a1.544 1.544 0 0 1-1.422 1.514c-.95 0-1.091-.284-1.993-2.035a10.033 10.033 0 0 0-2.372-2.605.6.6 0 0 1-.187-.331zm8.538 1.421c-.854 0-1-.189-1.991-1.753a7.258 7.258 0 0 0-2.657-2.556.426.426 0 0 1-.239-.38c0-.379.617-.379.712-.379 2.563 0 5.693 1.326 5.693 3.554a1.527 1.527 0 0 1-1.517 1.514z" transform="translate(-298.885 -466.309)" />
    </g>
</svg>
