<?xml version="1.0" encoding="UTF-8"?>
<svg width="65px" height="25px" viewBox="0 0 65 25" version="1.1" xmlns="http://www.w3.org/2000/svg" xmlns:xlink="http://www.w3.org/1999/xlink">
    <title>Group 139</title>
    <defs>
        <polygon id="path-1" points="0 0.13745 1 0.13745 1 0.86255 0 0.86255"></polygon>
        <polygon id="path-3" points="0 0.17085 1 0.17085 1 0.82915 0 0.82915"></polygon>
        <polygon id="path-5" points="0 0.2152 1 0.2152 1 0.7848 0 0.7848"></polygon>
        <polygon id="path-7" points="7.10542736e-15 0 10.051847 0 10.051847 7.1949 7.10542736e-15 7.1949"></polygon>
        <polygon id="path-9" points="0 0.0316 1 0.0316 1 0.9684 0 0.9684"></polygon>
        <polygon id="path-11" points="0 0.18945 1 0.18945 1 0.81055 0 0.81055"></polygon>
        <polygon id="path-13" points="0 0.179480073 1 0.179480073 1 0.820519927 0 0.820519927"></polygon>
        <polygon id="path-15" points="0 0.158447314 1 0.158447314 1 0.841552686 0 0.841552686"></polygon>
        <polygon id="path-17" points="0 0.13745 1 0.13745 1 0.86255 0 0.86255"></polygon>
        <polygon id="path-19" points="0 0.17085 1 0.17085 1 0.82915 0 0.82915"></polygon>
        <polygon id="path-21" points="0 0.2152 1 0.2152 1 0.7848 0 0.7848"></polygon>
        <polygon id="path-23" points="0 0 9.92184698 0 9.92184698 7.1769 0 7.1769"></polygon>
        <polygon id="path-25" points="0 0.0316 1 0.0316 1 0.9684 0 0.9684"></polygon>
        <polygon id="path-27" points="0 0.18945 1 0.18945 1 0.81055 0 0.81055"></polygon>
        <polygon id="path-29" points="0 0.179480073 1 0.179480073 1 0.820519927 0 0.820519927"></polygon>
        <polygon id="path-31" points="0 0.158447314 1 0.158447314 1 0.841552686 0 0.841552686"></polygon>
        <polygon id="path-33" points="0 0.13745 1 0.13745 1 0.86255 0 0.86255"></polygon>
        <polygon id="path-35" points="0 0.17085 1 0.17085 1 0.82915 0 0.82915"></polygon>
        <polygon id="path-37" points="0 0.2152 1 0.2152 1 0.7848 0 0.7848"></polygon>
        <polygon id="path-39" points="0 0 9.97884698 0 9.97884698 7.1929 0 7.1929"></polygon>
        <polygon id="path-41" points="0 0.0316 1 0.0316 1 0.9684 0 0.9684"></polygon>
        <polygon id="path-43" points="0 0.18945 1 0.18945 1 0.81055 0 0.81055"></polygon>
        <polygon id="path-45" points="0 0.179480073 1 0.179480073 1 0.820519927 0 0.820519927"></polygon>
        <polygon id="path-47" points="0 0.158447314 1 0.158447314 1 0.841552686 0 0.841552686"></polygon>
    </defs>
    <g id="Cus_Search" stroke="none" stroke-width="1" fill="none" fill-rule="evenodd">
        <g id="Cus_1_3_ProList_Search_RequestPro-Copy" transform="translate(-155.000000, -394.000000)">
            <g id="Group-139" transform="translate(155.000000, 394.000000)">
                <path d="M46.1079,24.9173 C44.3219,23.2213 42.9189,21.7503 39.0729,18.9563 C38.8669,18.8073 38.6499,18.6273 38.4889,18.4063 C38.3509,18.2153 38.2699,17.9643 38.2699,17.7083 C38.2699,16.9853 38.8419,16.4583 39.2579,16.1113 C39.6899,15.7513 45.1109,10.8503 45.1079,10.8433 L45.9749,12.4493 C44.6919,13.3963 42.4809,14.8543 39.7759,16.9383 C39.3939,17.2283 39.3009,17.3483 39.3329,17.6383 C39.3599,17.8693 39.6309,18.0433 39.6309,18.0433 C39.6309,18.0433 43.0819,20.0503 43.6859,20.4513 C44.5389,21.0173 46.4969,22.3803 47.2589,22.9993 L46.1079,24.9173 Z" id="Fill-1" fill="#060001"></path>
                <path d="M9.741,13.6902 C7.023,13.5992 5.105,15.2322 4.353,15.9952 L4.353,11.3682 L3.9,11.3682 L3.9,11.5952 L2.77,11.5952 L2.77,14.3132 L0.508,14.3132 L0.508,15.2182 L2.77,15.2182 L2.77,17.4302 C2.915,17.4302 0.841,19.3752 -1.77635684e-15,20.4852 C0.355,20.9722 0.897,21.6902 0.897,21.6902 C0.897,21.6902 1.741,20.3802 2.996,18.9582 L2.996,23.1452 L3.77,23.1452 L4.353,23.1452 L4.353,17.4722 C5.12,16.5682 7.179,15.1262 9.408,15.1262 C10.89,15.1262 12.514,16.0452 12.514,18.2172 C12.514,23.5322 8.192,23.8792 6.84,24.1332 L6.84,24.6902 C8.828,24.6902 14.4150019,24.3072 14.4150019,17.9862 C14.417,15.6692 12.834,13.7922 9.741,13.6902" id="Fill-3" fill="#060001"></path>
                <path d="M56.0606,21.6604 C56.3046,21.3274 56.6396,21.1964 57.0666,21.2614 C57.9266,21.3974 58.4596,22.3014 58.4596,23.9184 C58.1636,23.9114 57.8656,23.8914 57.6416,23.8574 C57.1436,23.7784 56.7436,23.6394 56.4406,23.4424 C56.0446,23.1894 55.8026,22.5554 55.8616,22.1514 C55.8846,21.9684 55.9516,21.8054 56.0606,21.6604 M61.9966,24.1474 C63.4576,23.4294 64.3306,21.9344 64.3306,20.3854 C64.3306,20.2354 64.3216,20.0934 64.3076,19.9504 C64.1156,17.6854 61.7866,16.4124 59.7916,16.4124 C57.5446,16.3924 56.1576,17.3294 56.1576,17.3294 L61.2796,12.3834 L61.3026,11.3684 L55.6876,11.3684 L55.6876,12.2744 L59.5386,12.2744 L52.2276,19.4224 L53.0556,20.5324 C53.6676,19.9504 54.2536,19.3234 54.8096,18.9814 C56.2776,18.0754 57.8606,17.5154 59.5746,17.6514 C60.9186,17.7584 62.2656,18.5234 62.4376,20.0994 C62.5716,21.3184 62.0536,22.7294 61.0766,23.4134 C60.6396,23.7194 59.9996,23.8644 59.9996,23.8574 L59.9526,23.8524 C59.9526,22.9804 59.8036,22.1224 59.2446,21.4404 C58.0916,20.0274 54.8506,19.7624 54.6406,22.1224 C54.4346,24.4164 56.7976,24.7204 57.8156,24.8804 C57.8156,24.8804 59.9506,25.1524 61.9966,24.1474" id="Fill-5" fill="#060001"></path>
                <path d="M26.3634,12.4065 C24.6784,13.4115 22.8924,15.2785 24.8094,18.0845 C22.6164,19.0105 20.7394,20.3375 18.6884,21.9345 L19.7714,23.2185 C21.0064,21.8305 21.6824,21.2595 22.6414,20.5005 C23.5344,19.8075 24.4394,19.2055 25.3164,18.7405 C25.3594,18.7935 25.3974,18.8435 25.4434,18.8955 C26.3224,19.8865 26.6324,20.8135 26.8024,21.5805 C26.9194,22.1245 26.9374,22.7545 26.7384,23.0985 C26.5464,23.4475 26.2164,23.6715 25.7464,23.7755 C24.9184,23.9565 23.2814,23.5215 22.5554,22.7925 L22.1794,23.4855 C23.0614,24.3915 24.8464,24.9985 25.9944,24.9215 C27.2274,24.8405 28.1994,24.1765 28.6114,23.3495 C28.8984,22.7725 28.9504,22.0725 28.7694,21.2485 C28.2784,19.0085 25.3234,17.5175 25.1464,15.6355 C24.9654,13.7115 27.7434,13.1985 28.2264,13.1565" id="Fill-7" fill="#060001"></path>
                <path d="M29.7896,17.6804 C27.4516,16.6434 24.8736,17.7934 24.7716,17.8504 L25.0876,18.4164 C25.0876,18.5634 27.2456,17.2414 28.9416,18.2424 C30.1626,18.9604 31.1806,20.5954 31.4606,23.1454 L33.6116,23.1454 C33.2836,20.3704 31.9606,18.6454 29.7896,17.6804" id="Fill-9" fill="#060001"></path>
                <polyline id="Fill-11" fill="#060001" points="28.2291 13.1541 28.4601 12.2771 22.8581 10.7531 22.6231 11.6271 26.2161 12.6061"></polyline>
                <g id="Group-15" transform="translate(31.819210, 0.077750)">
                    <mask id="mask-2" fill="white">
                        <use xlink:href="#path-1"></use>
                    </mask>
                    <g id="Clip-14"></g>
                    <path d="M0.548390392,0.40005 C0.562390392,0.41805 0.548390392,0.44105 0.543390392,0.45405 C0.586390392,0.41605 0.638390392,0.34805 0.616390392,0.27105 C0.571390392,0.34805 0.562390392,0.31405 0.512390392,0.40705 C0.476390392,0.41605 0.449390392,0.37805 0.455390392,0.34805 C0.442390392,0.36805 0.399390392,0.32805 0.378390392,0.37805 C0.426390392,0.44505 0.485390392,0.45005 0.548390392,0.40005" id="Fill-13" fill="#B8C3D2" mask="url(#mask-2)"></path>
                </g>
                <g id="Group-18" transform="translate(32.348000, 0.044350)">
                    <mask id="mask-4" fill="white">
                        <use xlink:href="#path-3"></use>
                    </mask>
                    <g id="Clip-17"></g>
                    <path d="M0.517,0.32015 C0.503,0.32215 0.492,0.32915 0.483,0.33815 C0.494,0.33615 0.503,0.33415 0.515,0.33415 L0.517,0.32015 Z" id="Fill-16" fill="#B8C3D2" mask="url(#mask-4)"></path>
                </g>
                <path d="M29.3236,0.8718 C29.3466,0.8828 29.3646,0.8988 29.3806,0.9148 C29.3486,0.8738 29.4276,0.8178 29.3236,0.8718" id="Fill-19" fill="#B8C3D2"></path>
                <g id="Group-23" transform="translate(32.372745, 0.000000)">
                    <mask id="mask-6" fill="white">
                        <use xlink:href="#path-5"></use>
                    </mask>
                    <g id="Clip-22"></g>
                    <path d="M0.512654701,0.2713 L0.489654701,0.2713 C0.487654701,0.2803 0.485654701,0.2923 0.489654701,0.2983 C0.494654701,0.2823 0.501654701,0.2733 0.512654701,0.2713" id="Fill-21" fill="#B8C3D2" mask="url(#mask-6)"></path>
                </g>
                <path d="M34.7082,5.9856 C34.6812,5.9726 34.6562,5.9696 34.6362,5.9726 C34.6362,5.9786 34.6332,5.9856 34.6362,5.9946 L34.7082,5.9856 Z" id="Fill-24" fill="#B8C3D2"></path>
                <g id="Group-28" transform="translate(27.043853, 0.215200)">
                    <mask id="mask-8" fill="white">
                        <use xlink:href="#path-7"></use>
                    </mask>
                    <g id="Clip-27"></g>
                    <path d="M9.97384698,3.6549 C9.94084698,3.5689 9.90784698,3.5189 9.91684698,3.4269 C10.029847,3.4579 9.94084698,3.3639 10.026847,3.3329 C10.013847,3.3029 9.99384698,3.2769 9.97584698,3.2489 L9.94284698,3.2939 C9.92084698,3.2159 9.83984698,3.1659 9.84784698,3.0909 L9.90084698,3.1369 C9.87884698,3.0909 9.86584698,3.0409 9.83984698,2.9969 C9.83984698,3.0279 9.83684698,3.0589 9.83284698,3.0889 C9.76484698,3.0279 9.72884698,3.1299 9.71584698,3.0249 C9.73084698,3.0409 9.68884698,2.9539 9.72284698,2.8969 C9.68084698,2.8709 9.63884698,2.8469 9.63884698,2.7829 C9.66084698,2.7569 9.73584698,2.7549 9.74884698,2.7369 C9.66484698,2.7309 9.64484698,2.5779 9.55184698,2.5709 C9.57684698,2.5779 9.62084698,2.5559 9.62484698,2.5469 L9.55484698,2.5469 C9.55484698,2.5059 9.56084698,2.4969 9.59884698,2.4839 C9.55684698,2.3789 9.51484698,2.5689 9.49684698,2.4319 C9.50584698,2.4379 9.51284698,2.4289 9.52984698,2.4419 C9.48384698,2.3159 9.36284698,2.2479 9.32484698,2.1299 C9.38184698,2.0489 9.39984698,2.2069 9.44184698,2.1299 C9.32684698,1.9899 9.13984698,1.8989 9.04484698,1.7609 L9.05784698,1.7899 C8.94484698,1.8569 9.01984698,1.6559 8.91584698,1.6339 C8.93784698,1.6429 8.98684698,1.6059 8.97384698,1.6099 C8.91184698,1.5079 8.78384698,1.4589 8.62484698,1.3769 L8.66184698,1.3659 C8.62884698,1.2999 8.54084698,1.2299 8.48984698,1.1779 C8.45284698,1.1909 8.42184698,1.1629 8.41284698,1.2149 C8.37984698,1.0749 8.27384698,1.0289 8.17184698,0.9919 C8.06584698,0.9589 7.96184698,0.9419 7.91584698,0.8219 C7.93784698,0.8329 7.97984698,0.8259 7.96484698,0.8149 L7.80084698,0.7539 C7.78584698,0.8109 7.80584698,0.7959 7.81384698,0.8509 C7.77884698,0.8699 7.72784698,0.8659 7.69084698,0.8479 C7.77484698,0.8509 7.73284698,0.7679 7.71484698,0.7259 C7.71284698,0.7429 7.69284698,0.7559 7.68884698,0.7719 C7.65284698,0.6449 7.62484698,0.8659 7.54484698,0.7559 L7.56284698,0.7319 C7.51384698,0.7279 7.46084698,0.7459 7.42084698,0.7169 C7.42984698,0.6489 7.47684698,0.7079 7.50284698,0.6629 C7.43884698,0.6359 7.33084698,0.7189 7.29984698,0.6339 C7.33284698,0.6299 7.36984698,0.6469 7.40384698,0.6429 C7.37284698,0.5439 7.35684698,0.5579 7.31484698,0.5289 L7.31984698,0.5319 L7.21984698,0.4609 L7.24184698,0.4899 C7.10084698,0.6209 7.06384698,0.4609 6.91984698,0.5289 C7.05684698,0.4659 6.95484698,0.4769 6.98584698,0.4119 C6.96384698,0.3829 6.92684698,0.3459 6.94684698,0.3309 C6.87584698,0.3699 6.87084698,0.2539 6.76984698,0.3219 C6.77184698,0.2979 6.71184698,0.3069 6.74084698,0.2519 C6.66584698,0.2539 6.74784698,0.2959 6.73384698,0.3219 C6.60884698,0.3749 6.49984698,0.1669 6.32184698,0.2389 C6.18884698,0.2629 6.14284698,0.3259 6.03684698,0.3539 C6.02784698,0.3529 6.01884698,0.3529 6.00984698,0.3499 C5.99484698,0.3129 6.05884698,0.2799 6.05884698,0.2799 C5.99684698,0.2369 5.94384698,0.2369 5.87484698,0.2539 C5.89084698,0.2339 5.87984698,0.2169 5.86184698,0.1869 C5.80884698,0.1869 5.81784698,0.2669 5.75384698,0.2239 C5.76684698,0.1999 5.78684698,0.1599 5.81584698,0.1359 C5.75184698,0.1469 5.68784698,0.1879 5.62384698,0.2079 C5.60984698,0.1669 5.66584698,0.1469 5.69184698,0.1229 C5.61884698,0.1379 5.50184698,0.1509 5.47784698,0.2149 L5.52184698,0.2409 C5.49584698,0.2429 5.51084698,0.1839 5.53084698,0.1729 C5.59484698,0.1249 5.61684698,0.1999 5.61884698,0.2239 L5.57284698,0.2369 C5.60784698,0.3759 5.75384698,0.2189 5.84384698,0.2429 L5.80484698,0.3199 C5.58584698,0.2979 5.36084698,0.2829 5.12484698,0.2829 L5.11584698,0.2829 C5.11984698,0.2459 5.12684698,0.2059 5.12684698,0.1709 C5.13284698,0.1799 5.13984698,0.1839 5.15284698,0.1819 L5.17984698,0.1039 L5.12484698,0.1229 L5.12484698,0.1429 C5.12484698,0.1429 5.04584698,0.0499 4.97584698,0.0159 L4.87184698,0.0909 L4.83484698,0.0359 L4.92384698,0.0289 C4.87184698,-0.0221 4.84184698,0.0269 4.80584698,0.0609 C4.79684698,0.0319 4.78084698,0.0109 4.75784698,-0.0001 L4.66084698,0.1159 C4.64484698,0.0699 4.70184698,0.0219 4.63184698,-0.0001 C4.58684698,0.0539 4.68384698,0.0999 4.60684698,0.1379 C4.55484698,0.0879 4.56384698,0.0429 4.50984698,0.0909 C4.49784698,0.0609 4.50984698,0.0409 4.53184698,0.0269 C4.48284698,0.0629 4.39384698,0.0499 4.37384698,0.1179 C4.31484698,0.0589 4.19984698,0.1589 4.19284698,0.0469 C4.17984698,0.0769 4.11184698,0.1449 4.06384698,0.1559 C4.13184698,0.0139 3.88284698,0.1719 3.88284698,0.0289 C3.83784698,0.1489 3.65684698,0.1309 3.55784698,0.2199 C3.56184698,0.2079 3.56884698,0.1879 3.58284698,0.1899 C3.51684698,0.1949 3.48984698,0.1659 3.44184698,0.1539 C3.45784698,0.2509 3.36284698,0.2969 3.32684698,0.3669 C3.22284698,0.2939 3.34284698,0.2449 3.29484698,0.1629 C3.31984698,0.2349 3.18184698,0.2759 3.22684698,0.3349 C3.15284698,0.2989 3.16884698,0.3239 3.11384698,0.2579 C3.14084698,0.3779 3.06484698,0.2969 3.04184698,0.3849 C2.93784698,0.3549 2.98284698,0.2829 2.90184698,0.3509 C2.84284698,0.3309 2.91284698,0.2599 2.91284698,0.2599 C2.81584698,0.2919 2.89984698,0.3599 2.89684698,0.4189 C2.79284698,0.4819 2.81984698,0.3739 2.76584698,0.3419 C2.70284698,0.3899 2.68484698,0.4959 2.63284698,0.5139 C2.62384698,0.5029 2.60984698,0.4999 2.61484698,0.4779 C2.57184698,0.5779 2.40184698,0.5799 2.35884698,0.6999 C2.34984698,0.6949 2.34284698,0.6909 2.33884698,0.6839 C2.37284698,0.7179 2.39784698,0.7609 2.40884698,0.7909 C2.36784698,0.8089 2.36584698,0.8809 2.32284698,0.8329 C2.34784698,0.8219 2.33584698,0.7989 2.33884698,0.7769 L2.31184698,0.8239 C2.23484698,0.7679 2.35184698,0.7659 2.32284698,0.7089 C2.25684698,0.7809 2.20284698,0.8969 2.13084698,0.9079 C2.07384698,0.8429 2.25684698,0.8019 2.13684698,0.7839 L2.24584698,0.7559 C2.10984698,0.6819 2.30684698,0.7309 2.17384698,0.6429 C2.03584698,0.6949 2.05384698,0.7629 1.91784698,0.8149 C1.91584698,0.8719 1.96584698,0.8699 1.96284698,0.9259 C1.84384698,1.1049 1.71184698,0.8429 1.65384698,1.0209 C1.65584698,1.0889 1.70984698,1.1849 1.58984698,1.2029 L1.56084698,1.1049 C1.44084698,1.1819 1.58584698,1.2619 1.43384698,1.3069 C1.42984698,1.2619 1.49484698,1.2089 1.47284698,1.2139 C1.35284698,1.2179 1.45684698,1.2999 1.40484698,1.3479 L1.33684698,1.2929 C1.28484698,1.3479 1.23984698,1.4159 1.19384698,1.4809 C1.15384698,1.5539 1.11284698,1.6259 1.06284698,1.6919 C1.04984698,1.6689 1.04984698,1.6279 1.00484698,1.6399 C0.888846983,1.8159 0.714846983,1.9769 0.553846983,2.1149 L0.574846983,2.2219 C0.565846983,2.2379 0.529846983,2.2329 0.526846983,2.2079 C0.461846983,2.2599 0.562846983,2.2379 0.569846983,2.2829 C0.551846983,2.3239 0.501846983,2.3119 0.499846983,2.2759 C0.470846983,2.4259 0.429846983,2.6839 0.293846983,2.7809 L0.287846983,2.7469 C0.212846983,2.8419 0.377846983,2.9239 0.275846983,2.9959 L0.271846983,2.9739 C0.207846983,3.0799 0.180846983,3.2089 0.146846983,3.3269 C0.108846983,3.4419 0.0838469826,3.5559 0.0118469826,3.6439 C0.0638469826,3.6729 0.0338469826,3.7139 0.0248469826,3.8159 C0.0138469826,3.9039 0.00684698263,3.9949 0.0818469826,3.9809 C0.0568469826,4.0379 0.0408469826,4.0769 0.0278469826,4.1109 C0.0158469826,4.1419 -0.0131530174,4.1809 0.00684698263,4.1939 C0.0298469826,4.2329 0.0638469826,4.2759 0.192846983,4.3799 C0.228846983,4.4049 0.273846983,4.4049 0.316846983,4.3999 C0.364846983,4.3979 0.384846983,4.3779 0.418846983,4.3869 L0.379846983,4.4549 L0.492846983,4.4279 L0.472846983,4.5479 L0.531846983,4.5589 C0.513846983,4.5429 0.506846983,4.5049 0.520846983,4.4859 C0.614846983,4.5019 0.682846983,4.6429 0.664846983,4.6789 L0.881846983,4.7289 C0.861846983,4.7539 0.825846983,4.7449 0.791846983,4.7469 C0.929846983,4.7359 0.768846983,4.8289 0.895846983,4.8169 C0.893846983,4.7939 0.924846983,4.7809 0.933846983,4.7699 C0.954846983,4.8349 1.05684698,4.8959 1.14184698,4.9239 L1.10184698,4.9619 C1.23084698,5.0529 1.40184698,5.1069 1.55384698,5.1979 C1.51084698,5.1439 1.56984698,5.0709 1.61984698,5.0909 L1.59684698,5.1729 C1.65084698,5.1449 1.56484698,5.1189 1.65584698,5.0999 C1.70784698,5.1409 1.64684698,5.2019 1.60184698,5.2069 L1.68484698,5.2229 C1.67584698,5.2449 1.65384698,5.2479 1.63484698,5.2719 C1.68984698,5.2449 1.71484698,5.4129 1.80084698,5.3609 L1.79184698,5.3829 C1.94284698,5.4739 2.02684698,5.4899 2.15284698,5.5579 C2.19184698,5.4989 2.23184698,5.5399 2.29784698,5.5129 C2.37684698,5.5849 2.45184698,5.6909 2.56484698,5.7499 C2.65984698,5.7659 2.61684698,5.7119 2.67284698,5.6959 C2.64584698,5.7549 2.75884698,5.8139 2.67984698,5.8199 C2.81784698,5.8889 2.85684698,5.9089 3.04884698,5.9609 C3.04384698,5.9269 3.02784698,5.9069 3.05084698,5.8929 C3.08684698,5.9019 3.10784698,5.9569 3.08684698,5.9439 L3.07584698,5.9439 C3.31084698,6.0079 3.41484698,6.3959 3.63184698,6.3969 L3.62084698,6.3969 L3.81084698,6.3959 C3.87584698,6.4479 3.74284698,6.4119 3.77684698,6.4779 C3.99884698,6.4819 4.03284698,6.6449 4.20684698,6.6629 C4.21784698,6.8899 4.59084698,6.8719 4.67484698,7.0599 L4.68784698,7.0159 C4.71484698,7.0069 4.72884698,7.0229 4.74284698,7.0459 C4.75384698,7.0679 4.76284698,7.0959 4.78784698,7.1159 C4.79184698,7.0799 4.73084698,7.0369 4.78084698,7.0389 C4.88284698,7.0859 4.97984698,7.1389 5.07684698,7.1949 C5.18984698,7.1289 5.30284698,7.0709 5.42284698,7.0099 C5.49984698,6.9759 5.56984698,6.9479 5.64484698,6.9189 C5.79184698,6.8619 5.94284698,6.8099 6.08384698,6.7469 C6.20784698,6.6879 6.25484698,6.5139 6.25484698,6.5139 L6.25484698,6.3599 C6.43884698,6.1449 6.73184698,6.0899 6.91984698,5.8889 C6.91584698,5.9129 6.92684698,5.9329 6.90484698,5.9459 C6.98184698,5.9669 7.08284698,5.8449 7.06084698,5.8039 C7.09884698,5.7889 7.09184698,5.8359 7.12484698,5.8449 C7.19184698,5.8469 7.20884698,5.7119 7.26484698,5.7469 C7.27284698,5.7529 7.25984698,5.7709 7.25284698,5.7799 C7.27084698,5.7379 7.40384698,5.7009 7.33984698,5.6619 C7.44084698,5.6399 7.48784698,5.5409 7.57584698,5.5369 C7.58284698,5.4479 7.74184698,5.4849 7.70184698,5.3839 C7.74984698,5.4819 7.89584698,5.3739 7.92484698,5.2989 C7.92284698,5.3379 7.98884698,5.3009 7.99084698,5.3539 C8.05284698,5.3159 8.09884698,5.2669 8.05984698,5.2249 C8.24084698,5.2729 8.23384698,5.0019 8.38384698,5.1109 C8.53884698,4.9539 8.68684698,4.8229 8.83884698,4.7049 C8.88784698,4.8029 8.66184698,4.8189 8.72684698,4.9149 C8.86084698,4.7859 8.90284698,4.6529 9.07084698,4.5869 C9.11984698,4.5759 9.07284698,4.6419 9.06884698,4.6659 C9.20084698,4.5369 9.37584698,4.4999 9.48584698,4.3689 C9.49084698,4.3769 9.48184698,4.3949 9.47084698,4.4099 C9.49684698,4.3909 9.54384698,4.3879 9.51484698,4.3469 L9.49484698,4.3729 C9.41584698,4.3359 9.52784698,4.1809 9.51284698,4.1459 C9.53884698,4.2939 9.66684698,4.0979 9.68484698,4.2939 C9.69784698,4.2769 9.70884698,4.2419 9.68684698,4.2159 C9.71784698,4.2089 9.73784698,4.2199 9.72884698,4.2679 C9.73984698,4.2569 9.74684698,4.2489 9.75584698,4.2399 C9.76884698,4.2289 9.77784698,4.2179 9.78384698,4.2089 C9.79984698,4.1919 9.80384698,4.1769 9.81084698,4.1639 C9.82384698,4.1369 9.83484698,4.1149 9.90084698,4.0779 C9.92084698,4.0959 9.90084698,4.1179 9.90584698,4.1459 C9.92584698,4.1059 9.94084698,4.0719 9.96484698,4.0389 C9.97884698,4.0239 9.99184698,4.0079 10.013847,3.9929 C10.017847,3.9709 10.011847,3.9409 10.015847,3.9119 C10.031847,3.9249 10.048847,3.9189 10.051847,3.9579 C10.042847,3.8449 10.004847,3.7419 9.97384698,3.6549 L9.97384698,3.6549 Z" id="Fill-26" fill="#B8C3D2" mask="url(#mask-8)"></path>
                </g>
                <polygon id="Fill-29" fill="#B8C3D2" points="27.4037 4.7039 27.4127 4.6899 27.3897 4.6949"></polygon>
                <path d="M34.3689,0.7859 L34.3169,0.7409 C34.3369,0.7639 34.3549,0.7769 34.3689,0.7859" id="Fill-31" fill="#B8C3D2"></path>
                <g id="Group-35" transform="translate(33.539700, 0.183600)">
                    <mask id="mask-10" fill="white">
                        <use xlink:href="#path-9"></use>
                    </mask>
                    <g id="Clip-34"></g>
                    <path d="M0.508,0.4549 C0.499,0.4669 0.497,0.4739 0.492,0.4819 L0.508,0.4549 Z" id="Fill-33" fill="#B8C3D2" mask="url(#mask-10)"></path>
                </g>
                <path d="M36.5738,4.8015 C36.5688,4.8035 36.5668,4.8075 36.5648,4.8105 C36.5448,4.8375 36.5598,4.8215 36.5738,4.8015" id="Fill-36" fill="#B8C3D2"></path>
                <path d="M36.8339,3.2366 C36.8519,3.2476 36.8699,3.2586 36.8839,3.2746 C36.8789,3.2426 36.8719,3.2206 36.8339,3.2366" id="Fill-38" fill="#B8C3D2"></path>
                <polygon id="Fill-40" fill="#B8C3D2" points="35.0609 5.782 35.0589 5.78 35.0499 5.786"></polygon>
                <path d="M36.8859,3.2727 C36.8909,3.2977 36.8949,3.3267 36.9129,3.3447 C36.9149,3.3137 36.9019,3.2907 36.8859,3.2727" id="Fill-42" fill="#B8C3D2"></path>
                <g id="Group-46" transform="translate(32.045100, 0.025750)">
                    <mask id="mask-12" fill="white">
                        <use xlink:href="#path-11"></use>
                    </mask>
                    <g id="Clip-45"></g>
                    <path d="M0.492,0.30505 C0.492,0.30905 0.49,0.31405 0.49,0.31605 L0.51,0.30905 L0.492,0.30505 Z" id="Fill-44" fill="#B8C3D2" mask="url(#mask-12)"></path>
                </g>
                <g id="Group-49" transform="translate(31.994300, 0.035720)">
                    <mask id="mask-14" fill="white">
                        <use xlink:href="#path-13"></use>
                    </mask>
                    <g id="Clip-48"></g>
                    <path d="M0.4795,0.328780073 L0.5205,0.312780073 C0.5065,0.312780073 0.4905,0.307780073 0.4795,0.328780073" id="Fill-47" fill="#B8C3D2" mask="url(#mask-14)"></path>
                </g>
                <g id="Group-52" transform="translate(32.589100, 0.056753)">
                    <mask id="mask-16" fill="white">
                        <use xlink:href="#path-15"></use>
                    </mask>
                    <g id="Clip-51"></g>
                    <path d="M0.5655,0.366847314 C0.5335,0.355847314 0.4885,0.300847314 0.4415,0.309847314 L0.4345,0.330847314 C0.4615,0.293847314 0.5275,0.402847314 0.5655,0.366847314" id="Fill-50" fill="#B8C3D2" mask="url(#mask-16)"></path>
                </g>
                <polygon id="Fill-53" fill="#B8C3D2" points="36.5625 2.5593 36.5695 2.4973 36.5085 2.5093"></polygon>
                <g id="Group-57" transform="translate(23.770710, 0.077750)">
                    <mask id="mask-18" fill="white">
                        <use xlink:href="#path-17"></use>
                    </mask>
                    <g id="Clip-56"></g>
                    <path d="M0.548390392,0.40005 C0.562390392,0.41805 0.548390392,0.44105 0.543390392,0.45405 C0.586390392,0.41605 0.638390392,0.34805 0.616390392,0.27105 C0.571390392,0.34805 0.562390392,0.31405 0.512390392,0.40705 C0.476390392,0.41605 0.449390392,0.37805 0.455390392,0.34805 C0.442390392,0.36805 0.399390392,0.32805 0.378390392,0.37805 C0.426390392,0.44505 0.482390392,0.45005 0.548390392,0.40005" id="Fill-55" fill="#EBC6D0" mask="url(#mask-18)"></path>
                </g>
                <g id="Group-60" transform="translate(24.299700, 0.044350)">
                    <mask id="mask-20" fill="white">
                        <use xlink:href="#path-19"></use>
                    </mask>
                    <g id="Clip-59"></g>
                    <path d="M0.517,0.32015 C0.503,0.32215 0.492,0.32915 0.483,0.33815 C0.494,0.33615 0.503,0.33415 0.515,0.33415 L0.517,0.32015 Z" id="Fill-58" fill="#EBC6D0" mask="url(#mask-20)"></path>
                </g>
                <path d="M21.273,0.8718 C21.296,0.8828 21.314,0.8988 21.33,0.9148 C21.298,0.8738 21.379,0.8178 21.273,0.8718" id="Fill-61" fill="#EBC6D0"></path>
                <g id="Group-65" transform="translate(24.322045, 0.000000)">
                    <mask id="mask-22" fill="white">
                        <use xlink:href="#path-21"></use>
                    </mask>
                    <g id="Clip-64"></g>
                    <path d="M0.512654701,0.2713 L0.489654701,0.2713 C0.487654701,0.2803 0.485654701,0.2923 0.489654701,0.2983 C0.496654701,0.2823 0.503654701,0.2733 0.512654701,0.2713" id="Fill-63" fill="#EBC6D0" mask="url(#mask-22)"></path>
                </g>
                <path d="M26.6597,5.9856 C26.6327,5.9726 26.6077,5.9696 26.5877,5.9726 C26.5877,5.9786 26.5847,5.9856 26.5877,5.9946 L26.6597,5.9856 Z" id="Fill-66" fill="#EBC6D0"></path>
                <g id="Group-70" transform="translate(18.995453, 0.215200)">
                    <mask id="mask-24" fill="white">
                        <use xlink:href="#path-23"></use>
                    </mask>
                    <g id="Clip-69"></g>
                    <path d="M9.83484698,3.6549 C9.80184698,3.5689 9.76884698,3.5189 9.77784698,3.4269 C9.88884698,3.4579 9.80184698,3.3639 9.88684698,3.3329 C9.87384698,3.3029 9.85384698,3.2769 9.83684698,3.2489 L9.80384698,3.2939 C9.78184698,3.2159 9.70084698,3.1659 9.70984698,3.0909 L9.76184698,3.1369 C9.74084698,3.0909 9.72784698,3.0409 9.70084698,2.9969 C9.70084698,3.0279 9.69884698,3.0589 9.69484698,3.0889 C9.62684698,3.0279 9.59184698,3.1299 9.57884698,3.0249 C9.59384698,3.0409 9.55184698,2.9539 9.58484698,2.8969 C9.54384698,2.8709 9.50184698,2.8469 9.50184698,2.7829 C9.52384698,2.7569 9.59884698,2.7549 9.61184698,2.7369 C9.52784698,2.7309 9.50884698,2.5779 9.41684698,2.5709 C9.44084698,2.5779 9.48484698,2.5559 9.48884698,2.5469 L9.41884698,2.5469 C9.41884698,2.5059 9.42584698,2.4969 9.46284698,2.4839 C9.42084698,2.3789 9.37984698,2.5689 9.36184698,2.4319 C9.37084698,2.4379 9.37784698,2.4289 9.39484698,2.4419 C9.34884698,2.3159 9.22884698,2.2479 9.19184698,2.1299 C9.24884698,2.0489 9.26584698,2.2069 9.30784698,2.1299 C9.19384698,1.9899 9.00784698,1.8989 8.91384698,1.7609 L8.92684698,1.7899 C8.81584698,1.8569 8.88984698,1.6559 8.78684698,1.6339 C8.80884698,1.6429 8.85684698,1.6059 8.84384698,1.6099 C8.78284698,1.5079 8.65584698,1.4589 8.49784698,1.3769 L8.53584698,1.3659 C8.50284698,1.2999 8.41484698,1.2299 8.36484698,1.1779 C8.32784698,1.1909 8.29684698,1.1629 8.28784698,1.2149 C8.25584698,1.0749 8.15084698,1.0289 8.04984698,0.9919 C7.94484698,0.9589 7.84184698,0.9419 7.79584698,0.8219 C7.81784698,0.8329 7.85984698,0.8259 7.84384698,0.8149 L7.68284698,0.7539 C7.66684698,0.8109 7.68684698,0.7959 7.69584698,0.8509 C7.66084698,0.8699 7.60984698,0.8659 7.57284698,0.8479 C7.65584698,0.8509 7.61484698,0.7679 7.59684698,0.7259 C7.59484698,0.7429 7.57484698,0.7559 7.57084698,0.7719 C7.53584698,0.6449 7.50784698,0.8659 7.42884698,0.7559 L7.44584698,0.7319 C7.39784698,0.7279 7.34584698,0.7459 7.30584698,0.7169 C7.31484698,0.6489 7.36084698,0.7079 7.38684698,0.6629 C7.32384698,0.6359 7.21684698,0.7189 7.18584698,0.6339 C7.21884698,0.6299 7.25584698,0.6469 7.28884698,0.6429 C7.25784698,0.5439 7.24284698,0.5579 7.20084698,0.5289 L7.20584698,0.5319 L7.10684698,0.4609 L7.12884698,0.4899 C6.98884698,0.6209 6.95184698,0.4609 6.80984698,0.5289 C6.94584698,0.4659 6.84484698,0.4769 6.87584698,0.4119 C6.85384698,0.3829 6.81684698,0.3459 6.83584698,0.3309 C6.76584698,0.3699 6.76184698,0.2539 6.66084698,0.3219 C6.66284698,0.2979 6.60384698,0.3069 6.63284698,0.2519 C6.55784698,0.2539 6.63884698,0.2959 6.62584698,0.3219 C6.50184698,0.3749 6.39384698,0.1669 6.21684698,0.2389 C6.08584698,0.2629 6.03984698,0.3259 5.93484698,0.3539 C5.92584698,0.3529 5.91784698,0.3529 5.90884698,0.3499 C5.89384698,0.3129 5.95684698,0.2799 5.95684698,0.2799 C5.89584698,0.2369 5.84284698,0.2369 5.77584698,0.2539 C5.79084698,0.2339 5.77984698,0.2169 5.76184698,0.1869 C5.70984698,0.1869 5.71884698,0.2669 5.65484698,0.2239 C5.66784698,0.1999 5.68784698,0.1599 5.71584698,0.1359 C5.65284698,0.1469 5.58984698,0.1879 5.52584698,0.2079 C5.51284698,0.1669 5.56784698,0.1469 5.59384698,0.1229 C5.52184698,0.1379 5.40584698,0.1509 5.38184698,0.2149 L5.42584698,0.2409 C5.39884698,0.2429 5.41484698,0.1839 5.43384698,0.1729 C5.49784698,0.1249 5.51984698,0.1999 5.52184698,0.2239 L5.47584698,0.2369 C5.51084698,0.3759 5.65484698,0.2189 5.74484698,0.2429 L5.70484698,0.3199 C5.48884698,0.2979 5.26584698,0.2829 5.03184698,0.2829 L5.02284698,0.2829 C5.02684698,0.2459 5.03384698,0.2059 5.03384698,0.1709 C5.04084698,0.1799 5.04684698,0.1839 5.05984698,0.1819 L5.08684698,0.1039 L5.03184698,0.1229 L5.03184698,0.1429 C5.03184698,0.1429 5.04584698,0.0499 4.97584698,0.0159 L4.87184698,0.0909 L4.83484698,0.0359 L4.92384698,0.0289 C4.87184698,-0.0221 4.84184698,0.0269 4.80584698,0.0609 C4.79684698,0.0319 4.78084698,0.0109 4.75884698,-0.0001 L4.66084698,0.1159 C4.64484698,0.0699 4.70184698,0.0219 4.63184698,-0.0001 C4.58684698,0.0539 4.68384698,0.0999 4.60684698,0.1379 C4.55484698,0.0879 4.56384698,0.0429 4.50984698,0.0909 C4.49784698,0.0609 4.50984698,0.0409 4.53184698,0.0269 C4.48284698,0.0629 4.39384698,0.0499 4.37384698,0.1179 C4.31484698,0.0589 4.19984698,0.1589 4.19284698,0.0469 C4.17984698,0.0769 4.11184698,0.1449 4.06384698,0.1559 C4.13184698,0.0139 3.88284698,0.1719 3.88284698,0.0289 C3.83784698,0.1489 3.65684698,0.1309 3.55784698,0.2199 C3.56184698,0.2079 3.56884698,0.1879 3.58284698,0.1899 C3.51684698,0.1949 3.48984698,0.1659 3.44184698,0.1539 C3.45784698,0.2509 3.36284698,0.2969 3.32684698,0.3669 C3.22284698,0.2939 3.34284698,0.2449 3.29484698,0.1629 C3.31984698,0.2349 3.18184698,0.2759 3.22784698,0.3349 C3.15284698,0.2989 3.16884698,0.3239 3.11384698,0.2579 C3.14184698,0.3779 3.06484698,0.2969 3.04184698,0.3849 C2.93784698,0.3549 2.98284698,0.2829 2.90184698,0.3509 C2.84284698,0.3309 2.91284698,0.2599 2.91284698,0.2599 C2.81584698,0.2919 2.89984698,0.3599 2.89684698,0.4189 C2.79284698,0.4819 2.81984698,0.3739 2.76584698,0.3419 C2.70284698,0.3899 2.68484698,0.4959 2.63284698,0.5139 C2.62384698,0.5029 2.60984698,0.4999 2.61484698,0.4779 C2.57184698,0.5779 2.40184698,0.5799 2.35884698,0.6999 C2.34984698,0.6949 2.34284698,0.6909 2.33884698,0.6839 C2.37284698,0.7179 2.39784698,0.7609 2.40884698,0.7909 C2.36784698,0.8089 2.36584698,0.8809 2.32284698,0.8329 C2.34784698,0.8219 2.33684698,0.7989 2.33884698,0.7769 L2.31184698,0.8239 C2.23484698,0.7679 2.35184698,0.7659 2.32284698,0.7089 C2.25684698,0.7809 2.20284698,0.8969 2.13084698,0.9079 C2.07384698,0.8429 2.25684698,0.8019 2.13684698,0.7839 L2.24584698,0.7559 C2.10984698,0.6819 2.30684698,0.7309 2.17384698,0.6429 C2.03584698,0.6949 2.05384698,0.7629 1.91784698,0.8149 C1.91584698,0.8719 1.96584698,0.8699 1.96284698,0.9259 C1.84384698,1.1049 1.71184698,0.8429 1.65384698,1.0209 C1.65584698,1.0889 1.70984698,1.1849 1.58984698,1.2029 L1.56084698,1.1049 C1.44084698,1.1819 1.58584698,1.2619 1.43384698,1.3069 C1.42984698,1.2619 1.49484698,1.2089 1.47284698,1.2139 C1.35284698,1.2179 1.45684698,1.2999 1.40484698,1.3479 L1.33684698,1.2929 C1.28484698,1.3479 1.23984698,1.4159 1.19384698,1.4809 C1.15384698,1.5539 1.11284698,1.6259 1.06284698,1.6919 C1.04984698,1.6689 1.04984698,1.6279 1.00484698,1.6399 C0.888846983,1.8159 0.714846983,1.9769 0.553846983,2.1149 L0.574846983,2.2219 C0.565846983,2.2379 0.529846983,2.2329 0.526846983,2.2079 C0.461846983,2.2599 0.563846983,2.2379 0.569846983,2.2829 C0.551846983,2.3239 0.501846983,2.3119 0.499846983,2.2759 C0.470846983,2.4259 0.429846983,2.6839 0.293846983,2.7809 L0.287846983,2.7469 C0.212846983,2.8419 0.377846983,2.9239 0.275846983,2.9959 L0.271846983,2.9739 C0.207846983,3.0799 0.180846983,3.2089 0.146846983,3.3269 C0.108846983,3.4419 0.0838469826,3.5559 0.0118469826,3.6439 C0.0638469826,3.6729 0.0338469826,3.7139 0.0248469826,3.8159 C0.0138469826,3.9039 0.00684698263,3.9949 0.0818469826,3.9809 C0.0568469826,4.0379 0.0408469826,4.0769 0.0278469826,4.1109 C0.0158469826,4.1419 -0.0131530174,4.1809 0.00684698263,4.1939 C0.0298469826,4.2329 0.0638469826,4.2759 0.192846983,4.3799 C0.228846983,4.4049 0.273846983,4.4049 0.316846983,4.3999 C0.364846983,4.3979 0.384846983,4.3779 0.418846983,4.3869 L0.379846983,4.4549 L0.492846983,4.4279 L0.483846983,4.5299 L0.542846983,4.5409 C0.524846983,4.5249 0.517846983,4.4859 0.531846983,4.4679 C0.626846983,4.4839 0.694846983,4.6249 0.676846983,4.6609 L0.893846983,4.7109 C0.872846983,4.7359 0.836846983,4.7269 0.802846983,4.7289 C0.940846983,4.7179 0.780846983,4.8109 0.906846983,4.7989 C0.904846983,4.7759 0.936846983,4.7629 0.945846983,4.7509 C0.965846983,4.8169 1.06784698,4.8779 1.15384698,4.9059 L1.11284698,4.9439 C1.24184698,5.0349 1.41384698,5.0889 1.56484698,5.1799 C1.52184698,5.1249 1.58084698,5.0529 1.63084698,5.0729 L1.60784698,5.1549 C1.66284698,5.1269 1.57684698,5.0999 1.66684698,5.0819 C1.71884698,5.1229 1.65784698,5.1839 1.61284698,5.1879 L1.69684698,5.2049 C1.68684698,5.2269 1.66484698,5.2289 1.64684698,5.2539 C1.70084698,5.2269 1.72584698,5.3949 1.81184698,5.3429 L1.80284698,5.3649 C1.95384698,5.4559 2.03784698,5.4719 2.16484698,5.5399 C2.20284698,5.4809 2.24384698,5.5209 2.30884698,5.4949 C2.38884698,5.5669 2.46284698,5.6729 2.57584698,5.7319 C2.67084698,5.7479 2.62784698,5.6939 2.68484698,5.6779 C2.65784698,5.7369 2.77084698,5.7949 2.69184698,5.8019 C2.82884698,5.8699 2.86784698,5.8909 3.05984698,5.9429 C3.05584698,5.9089 3.03984698,5.8889 3.06184698,5.8749 C3.09884698,5.8839 3.11884698,5.9379 3.09884698,5.9439 L3.08684698,5.9439 C3.32284698,5.9899 3.42684698,6.3769 3.64384698,6.3969 L3.63184698,6.3969 L3.82184698,6.3769 C3.88784698,6.4299 3.75384698,6.3939 3.78784698,6.4589 C4.00984698,6.4639 4.04384698,6.6269 4.21784698,6.6449 C4.22884698,6.8719 4.60184698,6.8529 4.68584698,7.0409 L4.69984698,6.9979 C4.72684698,6.9889 4.73984698,7.0049 4.75384698,7.0279 C4.76484698,7.0499 4.77384698,7.0779 4.79884698,7.0979 C4.80384698,7.0619 4.74284698,7.0189 4.79184698,7.0209 C4.89384698,7.0679 4.99084698,7.1209 5.08884698,7.1769 C5.20184698,7.1109 5.31484698,7.0529 5.43484698,6.9909 C5.51184698,6.9579 5.58184698,6.9299 5.65584698,6.9009 C5.80284698,6.8439 5.95284698,6.7919 6.09484698,6.7289 C6.21884698,6.6699 6.16284698,6.4959 6.16284698,6.4959 L6.16284698,6.3429 C6.34384698,6.1269 6.63484698,6.0719 6.82084698,5.8709 C6.81684698,5.8949 6.82684698,5.9149 6.80584698,5.9279 C6.88184698,5.9499 6.98284698,5.8279 6.96084698,5.7859 C6.99784698,5.7709 6.99084698,5.8189 7.02384698,5.8279 C7.08984698,5.8299 7.10684698,5.6939 7.16184698,5.7289 C7.17084698,5.7359 7.15784698,5.7529 7.15084698,5.7619 C7.16884698,5.7209 7.29984698,5.6839 7.23584698,5.6439 C7.33684698,5.6229 7.38284698,5.5239 7.46984698,5.5199 C7.47684698,5.4299 7.63484698,5.4669 7.59484698,5.3669 C7.64284698,5.4649 7.78784698,5.3559 7.81584698,5.2819 C7.81384698,5.3209 7.87884698,5.2839 7.88184698,5.3359 C7.94284698,5.2989 7.98884698,5.2489 7.94884698,5.2079 C8.12884698,5.2549 8.12184698,4.9849 8.27084698,5.0939 C8.42384698,4.9369 8.57084698,4.8059 8.72084698,4.6869 C8.76984698,4.7859 8.54684698,4.8009 8.60984698,4.8969 C8.74284698,4.7689 8.78484698,4.6349 8.95084698,4.5699 C8.99884698,4.5589 8.95284698,4.6249 8.94884698,4.6479 C9.07984698,4.5199 9.25284698,4.4819 9.36184698,4.3509 C9.36684698,4.3599 9.35784698,4.3769 9.34684698,4.3929 C9.37284698,4.3729 9.41884698,4.3709 9.39084698,4.3299 L9.37084698,4.3549 C9.29184698,4.3179 9.40384698,4.1639 9.38884698,4.1279 C9.41484698,4.2769 9.54184698,4.0809 9.55884698,4.2769 C9.57184698,4.2599 9.58284698,4.2249 9.56084698,4.1979 C9.59184698,4.1919 9.61184698,4.2029 9.60284698,4.2509 C9.61384698,4.2399 9.61984698,4.2309 9.62884698,4.2229 C9.64184698,4.2109 9.65084698,4.2009 9.65684698,4.1919 C9.67284698,4.1739 9.67684698,4.1589 9.68384698,4.1459 C9.69684698,4.1199 9.70784698,4.0979 9.77284698,4.0609 C9.79284698,4.0779 9.77284698,4.0999 9.77784698,4.1279 C9.79684698,4.0889 9.81284698,4.0539 9.83684698,4.0209 C9.84984698,4.0059 9.86284698,3.9909 9.88484698,3.9759 C9.88884698,3.9539 9.88284698,3.9229 9.88684698,3.8949 C9.90184698,3.9079 9.91984698,3.9009 9.92184698,3.9409 C9.90184698,3.8449 9.86484698,3.7419 9.83484698,3.6549 L9.83484698,3.6549 Z" id="Fill-68" fill="#EBC6D0" mask="url(#mask-24)"></path>
                </g>
                <polygon id="Fill-71" fill="#EBC6D0" points="19.3552 4.7039 19.3642 4.6899 19.3412 4.6949"></polygon>
                <path d="M26.3183,0.7859 L26.2663,0.7409 C26.2893,0.7639 26.3043,0.7769 26.3183,0.7859" id="Fill-73" fill="#EBC6D0"></path>
                <g id="Group-77" transform="translate(25.489100, 0.183600)">
                    <mask id="mask-26" fill="white">
                        <use xlink:href="#path-25"></use>
                    </mask>
                    <g id="Clip-76"></g>
                    <path d="M0.508,0.4549 C0.499,0.4669 0.497,0.4739 0.492,0.4819 L0.508,0.4549 Z" id="Fill-75" fill="#EBC6D0" mask="url(#mask-26)"></path>
                </g>
                <path d="M28.5254,4.8015 C28.5204,4.8035 28.5184,4.8075 28.5164,4.8105 C28.4964,4.8375 28.5114,4.8215 28.5254,4.8015" id="Fill-78" fill="#EBC6D0"></path>
                <path d="M28.7854,3.2366 C28.8034,3.2476 28.8214,3.2586 28.8354,3.2746 C28.8284,3.2426 28.8214,3.2206 28.7854,3.2366" id="Fill-80" fill="#EBC6D0"></path>
                <polygon id="Fill-82" fill="#EBC6D0" points="26.9669 5.782 26.9669 5.78 26.9579 5.786"></polygon>
                <path d="M28.8352,3.2727 C28.8402,3.2977 28.8442,3.3267 28.8622,3.3447 C28.8642,3.3137 28.8532,3.2907 28.8352,3.2727" id="Fill-84" fill="#EBC6D0"></path>
                <g id="Group-88" transform="translate(23.994500, 0.025750)">
                    <mask id="mask-28" fill="white">
                        <use xlink:href="#path-27"></use>
                    </mask>
                    <g id="Clip-87"></g>
                    <path d="M0.492,0.30505 C0.492,0.30905 0.49,0.31405 0.49,0.31605 L0.51,0.30905 L0.492,0.30505 Z" id="Fill-86" fill="#EBC6D0" mask="url(#mask-28)"></path>
                </g>
                <g id="Group-91" transform="translate(23.945900, 0.035720)">
                    <mask id="mask-30" fill="white">
                        <use xlink:href="#path-29"></use>
                    </mask>
                    <g id="Clip-90"></g>
                    <path d="M0.4795,0.328780073 L0.5205,0.312780073 C0.5065,0.312780073 0.4885,0.307780073 0.4795,0.328780073" id="Fill-89" fill="#EBC6D0" mask="url(#mask-30)"></path>
                </g>
                <g id="Group-94" transform="translate(24.540600, 0.056753)">
                    <mask id="mask-32" fill="white">
                        <use xlink:href="#path-31"></use>
                    </mask>
                    <g id="Clip-93"></g>
                    <path d="M0.5655,0.366847314 C0.5335,0.355847314 0.4885,0.300847314 0.4415,0.309847314 L0.4345,0.330847314 C0.4595,0.293847314 0.5275,0.402847314 0.5655,0.366847314" id="Fill-92" fill="#EBC6D0" mask="url(#mask-32)"></path>
                </g>
                <polygon id="Fill-95" fill="#EBC6D0" points="28.5119 2.5593 28.5209 2.4973 28.4599 2.5093"></polygon>
                <g id="Group-99" transform="translate(39.996410, 0.077750)">
                    <mask id="mask-34" fill="white">
                        <use xlink:href="#path-33"></use>
                    </mask>
                    <g id="Clip-98"></g>
                    <path d="M0.548390392,0.40005 C0.562390392,0.41805 0.548390392,0.44105 0.543390392,0.45405 C0.586390392,0.41605 0.638390392,0.34805 0.616390392,0.27105 C0.571390392,0.34805 0.562390392,0.31405 0.512390392,0.40705 C0.476390392,0.41605 0.449390392,0.37805 0.455390392,0.34805 C0.442390392,0.36805 0.399390392,0.32805 0.378390392,0.37805 C0.426390392,0.44505 0.485390392,0.45005 0.548390392,0.40005" id="Fill-97" fill="#EBC6D0" mask="url(#mask-34)"></path>
                </g>
                <g id="Group-102" transform="translate(40.525400, 0.044350)">
                    <mask id="mask-36" fill="white">
                        <use xlink:href="#path-35"></use>
                    </mask>
                    <g id="Clip-101"></g>
                    <path d="M0.517,0.32015 C0.503,0.32215 0.492,0.32915 0.483,0.33815 C0.494,0.33615 0.503,0.33415 0.515,0.33415 L0.517,0.32015 Z" id="Fill-100" fill="#EBC6D0" mask="url(#mask-36)"></path>
                </g>
                <path d="M37.501,0.8718 C37.524,0.8828 37.542,0.8988 37.558,0.9148 C37.526,0.8738 37.605,0.8178 37.501,0.8718" id="Fill-103" fill="#EBC6D0"></path>
                <g id="Group-107" transform="translate(40.550145, 0.000000)">
                    <mask id="mask-38" fill="white">
                        <use xlink:href="#path-37"></use>
                    </mask>
                    <g id="Clip-106"></g>
                    <path d="M0.512654701,0.2713 L0.489654701,0.2713 C0.487654701,0.2803 0.485654701,0.2923 0.489654701,0.2983 C0.494654701,0.2823 0.501654701,0.2733 0.512654701,0.2713" id="Fill-105" fill="#EBC6D0" mask="url(#mask-38)"></path>
                </g>
                <path d="M42.8854,5.9856 C42.8584,5.9726 42.8334,5.9696 42.8134,5.9726 C42.8134,5.9786 42.8104,5.9856 42.8134,5.9946 L42.8854,5.9856 Z" id="Fill-108" fill="#EBC6D0"></path>
                <g id="Group-112" transform="translate(35.221153, 0.215200)">
                    <mask id="mask-40" fill="white">
                        <use xlink:href="#path-39"></use>
                    </mask>
                    <g id="Clip-111"></g>
                    <path d="M9.89084698,3.6549 C9.85884698,3.5689 9.82584698,3.5189 9.83384698,3.4269 C9.94584698,3.4579 9.85884698,3.3639 9.94384698,3.3329 C9.93084698,3.3029 9.91084698,3.2769 9.89384698,3.2489 L9.86084698,3.2939 C9.83884698,3.2159 9.75784698,3.1659 9.76684698,3.0909 L9.81884698,3.1369 C9.79684698,3.0909 9.78384698,3.0409 9.75784698,2.9969 C9.75784698,3.0279 9.75584698,3.0589 9.75084698,3.0889 C9.68384698,3.0279 9.64884698,3.1299 9.63484698,3.0249 C9.65084698,3.0409 9.60884698,2.9539 9.64184698,2.8969 C9.59984698,2.8709 9.55884698,2.8469 9.55884698,2.7829 C9.58084698,2.7569 9.65484698,2.7549 9.66784698,2.7369 C9.58484698,2.7309 9.56484698,2.5779 9.47384698,2.5709 C9.49784698,2.5779 9.54084698,2.5559 9.54584698,2.5469 L9.47584698,2.5469 C9.47584698,2.5059 9.48184698,2.4969 9.51984698,2.4839 C9.47784698,2.3789 9.43584698,2.5689 9.41884698,2.4319 C9.42784698,2.4379 9.43384698,2.4289 9.45184698,2.4419 C9.40584698,2.3159 9.28584698,2.2479 9.24784698,2.1299 C9.30484698,2.0489 9.32284698,2.2069 9.36384698,2.1299 C9.24984698,1.9899 9.06484698,1.8989 8.97084698,1.7609 L8.98384698,1.7899 C8.87184698,1.8569 8.94684698,1.6559 8.84384698,1.6339 C8.86584698,1.6429 8.91384698,1.6059 8.90084698,1.6099 C8.83884698,1.5079 8.71284698,1.4589 8.55484698,1.3769 L8.59184698,1.3659 C8.55884698,1.2999 8.47184698,1.2299 8.42184698,1.1779 C8.38384698,1.1909 8.35384698,1.1629 8.34484698,1.2149 C8.31184698,1.0749 8.20684698,1.0289 8.10684698,0.9919 C8.00184698,0.9589 7.89884698,0.9419 7.85284698,0.8219 C7.87484698,0.8329 7.91584698,0.8259 7.90084698,0.8149 L7.73884698,0.7539 C7.72384698,0.8109 7.74384698,0.7959 7.75184698,0.8509 C7.71684698,0.8699 7.66684698,0.8659 7.62984698,0.8479 C7.71284698,0.8509 7.67084698,0.7679 7.65384698,0.7259 C7.65184698,0.7429 7.63184698,0.7559 7.62784698,0.7719 C7.59284698,0.6449 7.56384698,0.8659 7.48484698,0.7559 L7.50284698,0.7319 C7.45484698,0.7279 7.40184698,0.7459 7.36284698,0.7169 C7.37184698,0.6489 7.41784698,0.7079 7.44384698,0.6629 C7.37984698,0.6359 7.27284698,0.7189 7.24284698,0.6339 C7.27584698,0.6299 7.31284698,0.6469 7.34584698,0.6429 C7.31484698,0.5439 7.29984698,0.5579 7.25784698,0.5289 L7.26184698,0.5319 L7.16384698,0.4609 L7.18584698,0.4899 C7.04584698,0.6209 7.00884698,0.4609 6.86684698,0.5289 C7.00184698,0.4659 6.90184698,0.4769 6.93184698,0.4119 C6.90984698,0.3829 6.87284698,0.3459 6.89284698,0.3309 C6.82284698,0.3699 6.81784698,0.2539 6.71784698,0.3219 C6.71984698,0.2979 6.66084698,0.3069 6.68884698,0.2519 C6.61484698,0.2539 6.69584698,0.2959 6.68284698,0.3219 C6.55784698,0.3749 6.45084698,0.1669 6.27384698,0.2389 C6.14284698,0.2629 6.09684698,0.3259 5.99184698,0.3539 C5.98284698,0.3529 5.97384698,0.3529 5.96484698,0.3499 C5.94984698,0.3129 6.01384698,0.2799 6.01384698,0.2799 C5.95184698,0.2369 5.89984698,0.2369 5.83184698,0.2539 C5.84684698,0.2339 5.83584698,0.2169 5.81884698,0.1869 C5.76584698,0.1869 5.77484698,0.2669 5.71184698,0.2239 C5.72484698,0.1999 5.74484698,0.1599 5.77284698,0.1359 C5.70984698,0.1469 5.64584698,0.1879 5.58284698,0.2079 C5.56984698,0.1669 5.62384698,0.1469 5.65084698,0.1229 C5.57784698,0.1379 5.46184698,0.1509 5.43784698,0.2149 L5.48184698,0.2409 C5.45584698,0.2429 5.47084698,0.1839 5.49084698,0.1729 C5.55384698,0.1249 5.57584698,0.1999 5.57784698,0.2239 L5.53184698,0.2369 C5.56684698,0.3759 5.71184698,0.2189 5.80084698,0.2429 L5.76184698,0.3199 C5.54584698,0.2979 5.32284698,0.2829 5.08884698,0.2829 L5.07984698,0.2829 C5.08384698,0.2459 5.09084698,0.2059 5.09084698,0.1709 C5.09684698,0.1799 5.10384698,0.1839 5.11684698,0.1819 L5.14284698,0.1039 L5.08884698,0.1229 L5.08884698,0.1429 C5.08884698,0.1429 5.04584698,0.0499 4.97584698,0.0159 L4.87184698,0.0909 L4.83484698,0.0359 L4.92384698,0.0289 C4.87184698,-0.0221 4.84184698,0.0269 4.80584698,0.0609 C4.79684698,0.0319 4.78084698,0.0109 4.75884698,-0.0001 L4.66084698,0.1159 C4.64584698,0.0699 4.70184698,0.0219 4.63184698,-0.0001 C4.58684698,0.0539 4.68384698,0.0999 4.60684698,0.1379 C4.55484698,0.0879 4.56384698,0.0429 4.50984698,0.0909 C4.49884698,0.0609 4.50984698,0.0409 4.53184698,0.0269 C4.48284698,0.0629 4.39384698,0.0499 4.37384698,0.1179 C4.31484698,0.0589 4.19984698,0.1589 4.19284698,0.0469 C4.17984698,0.0769 4.11184698,0.1449 4.06384698,0.1559 C4.13184698,0.0139 3.88284698,0.1719 3.88284698,0.0289 C3.83784698,0.1489 3.65684698,0.1309 3.55784698,0.2199 C3.56184698,0.2079 3.56884698,0.1879 3.58284698,0.1899 C3.51684698,0.1949 3.48984698,0.1659 3.44184698,0.1539 C3.45784698,0.2509 3.36284698,0.2969 3.32684698,0.3669 C3.22284698,0.2939 3.34284698,0.2449 3.29484698,0.1629 C3.31984698,0.2349 3.18184698,0.2759 3.22784698,0.3349 C3.15284698,0.2989 3.16884698,0.3239 3.11484698,0.2579 C3.14184698,0.3779 3.06484698,0.2969 3.04184698,0.3849 C2.93784698,0.3549 2.98284698,0.2829 2.90184698,0.3509 C2.84284698,0.3309 2.91284698,0.2599 2.91284698,0.2599 C2.81584698,0.2919 2.89984698,0.3599 2.89684698,0.4189 C2.79284698,0.4819 2.82084698,0.3739 2.76584698,0.3419 C2.70284698,0.3899 2.68484698,0.4959 2.63284698,0.5139 C2.62384698,0.5029 2.60984698,0.4999 2.61484698,0.4779 C2.57184698,0.5779 2.40184698,0.5799 2.35884698,0.6999 C2.34984698,0.6949 2.34284698,0.6909 2.33884698,0.6839 C2.37284698,0.7179 2.39784698,0.7609 2.40884698,0.7909 C2.36784698,0.8089 2.36584698,0.8809 2.32284698,0.8329 C2.34784698,0.8219 2.33684698,0.7989 2.33884698,0.7769 L2.31184698,0.8239 C2.23484698,0.7679 2.35184698,0.7659 2.32284698,0.7089 C2.25684698,0.7809 2.20284698,0.8969 2.13084698,0.9079 C2.07384698,0.8429 2.25684698,0.8019 2.13784698,0.7839 L2.24584698,0.7719 C2.10984698,0.6979 2.30684698,0.7479 2.17384698,0.6589 C2.03584698,0.7109 2.05384698,0.7789 1.91784698,0.8309 C1.91584698,0.8879 1.96584698,0.8859 1.96284698,0.9419 C1.84384698,1.1209 1.71184698,0.8579 1.65384698,1.0369 C1.65584698,1.1049 1.70984698,1.1999 1.58984698,1.2179 L1.56084698,1.1209 C1.44084698,1.1979 1.58584698,1.2769 1.43384698,1.3229 C1.42984698,1.2769 1.49484698,1.2249 1.47284698,1.2299 C1.35284698,1.2339 1.45684698,1.3159 1.40484698,1.3629 L1.33684698,1.3089 C1.28484698,1.3629 1.23984698,1.4309 1.19484698,1.4969 C1.15384698,1.5689 1.11284698,1.6419 1.06284698,1.7079 C1.04984698,1.6849 1.04984698,1.6439 1.00484698,1.6559 C0.888846983,1.8319 0.714846983,1.9929 0.554846983,2.1309 L0.574846983,2.2379 C0.565846983,2.2529 0.529846983,2.2489 0.526846983,2.2239 C0.461846983,2.2759 0.563846983,2.2529 0.569846983,2.2989 C0.551846983,2.3389 0.502846983,2.3279 0.499846983,2.2919 C0.470846983,2.4409 0.429846983,2.6999 0.293846983,2.7969 L0.287846983,2.7629 C0.212846983,2.8579 0.377846983,2.9399 0.275846983,3.0119 L0.271846983,2.9899 C0.207846983,3.0959 0.180846983,3.2249 0.146846983,3.3429 C0.108846983,3.4579 0.0838469826,3.5719 0.0118469826,3.6599 C0.0638469826,3.6889 0.0338469826,3.7299 0.0248469826,3.8319 C0.0138469826,3.9199 0.00684698263,4.0109 0.0818469826,3.9979 C0.0568469826,4.0539 0.0408469826,4.0919 0.0278469826,4.1259 C0.0158469826,4.1579 -0.0131530174,4.1969 0.00684698263,4.2099 C0.0298469826,4.2489 0.0638469826,4.2919 0.192846983,4.3959 C0.228846983,4.4209 0.273846983,4.4209 0.316846983,4.4159 C0.364846983,4.4139 0.384846983,4.3939 0.418846983,4.4029 L0.379846983,4.4709 L0.493846983,4.4429 L0.483846983,4.5449 L0.542846983,4.5569 C0.524846983,4.5409 0.517846983,4.5019 0.531846983,4.4839 C0.626846983,4.4999 0.694846983,4.6409 0.676846983,4.6769 L0.893846983,4.7269 C0.872846983,4.7509 0.836846983,4.7429 0.802846983,4.7449 C0.940846983,4.7329 0.780846983,4.8259 0.906846983,4.8149 C0.904846983,4.7919 0.936846983,4.7789 0.945846983,4.7679 C0.965846983,4.8329 1.06784698,4.8939 1.15384698,4.9209 L1.11284698,4.9599 C1.24184698,5.0499 1.41384698,5.1049 1.56484698,5.1949 C1.52184698,5.1409 1.58084698,5.0689 1.63084698,5.0889 L1.60784698,5.1699 C1.66284698,5.1439 1.57684698,5.1159 1.66684698,5.0979 C1.71884698,5.1389 1.65784698,5.1999 1.61284698,5.2049 L1.69684698,5.2199 C1.68684698,5.2429 1.66484698,5.2449 1.64684698,5.2699 C1.70084698,5.2429 1.72584698,5.4109 1.81184698,5.3579 L1.80284698,5.3809 C1.95384698,5.4719 2.03784698,5.4879 2.16484698,5.5559 C2.20284698,5.4969 2.24384698,5.5379 2.30884698,5.5099 C2.38884698,5.5829 2.46284698,5.6889 2.57584698,5.7479 C2.67084698,5.7639 2.62784698,5.7089 2.68484698,5.6939 C2.65784698,5.7519 2.77084698,5.8119 2.69184698,5.8179 C2.82984698,5.8859 2.86784698,5.9069 3.05984698,5.9579 C3.05584698,5.9249 3.03984698,5.9039 3.06284698,5.8909 C3.09884698,5.8999 3.11884698,5.9539 3.09884698,5.9439 L3.08684698,5.9439 C3.32284698,6.0059 3.42684698,6.3939 3.64384698,6.3969 L3.63184698,6.3969 L3.82184698,6.3939 C3.88784698,6.4459 3.75484698,6.4089 3.78784698,6.4749 C4.00984698,6.4789 4.04384698,6.6429 4.21784698,6.6609 C4.22884698,6.8869 4.60284698,6.8689 4.68584698,7.0569 L4.69984698,7.0139 C4.72684698,7.0049 4.73984698,7.0209 4.75384698,7.0429 C4.76484698,7.0659 4.77384698,7.0929 4.79884698,7.1139 C4.80384698,7.0779 4.74284698,7.0349 4.79184698,7.0369 C4.89384698,7.0839 4.99084698,7.1359 5.08884698,7.1929 C5.20184698,7.1269 5.31484698,7.0679 5.43484698,7.0069 C5.51184698,6.9729 5.58184698,6.9459 5.65584698,6.9159 C5.80284698,6.8599 5.95284698,6.8079 6.09484698,6.7449 C6.21884698,6.6859 6.21884698,6.5109 6.21884698,6.5109 L6.21884698,6.3579 C6.40084698,6.1419 6.69184698,6.0869 6.87684698,5.8869 C6.87284698,5.9109 6.88384698,5.9299 6.86184698,5.9429 C6.93884698,5.9649 7.03884698,5.8429 7.01684698,5.8009 C7.05484698,5.7859 7.04784698,5.8339 7.08084698,5.8429 C7.14584698,5.8449 7.16384698,5.7099 7.21884698,5.7449 C7.22684698,5.7509 7.21384698,5.7689 7.20784698,5.7769 C7.22484698,5.7359 7.35584698,5.6989 7.29284698,5.6599 C7.39384698,5.6379 7.43984698,5.5399 7.52684698,5.5349 C7.53384698,5.4449 7.69084698,5.4819 7.65184698,5.3819 C7.69984698,5.4799 7.84384698,5.3709 7.87284698,5.2969 C7.86984698,5.3359 7.93584698,5.2989 7.93784698,5.3519 C7.99984698,5.3139 8.04484698,5.2639 8.00584698,5.2229 C8.18484698,5.2699 8.17884698,4.9999 8.32784698,5.1089 C8.48084698,4.9519 8.62684698,4.8209 8.77784698,4.7029 C8.82584698,4.8009 8.60284698,4.8159 8.66684698,4.9129 C8.79984698,4.7839 8.84184698,4.6499 9.00784698,4.5849 C9.05584698,4.5739 9.00984698,4.6399 9.00484698,4.6639 C9.13684698,4.5349 9.30984698,4.4979 9.41884698,4.3669 C9.42284698,4.3749 9.41484698,4.3929 9.40384698,4.4079 C9.42984698,4.3879 9.47584698,4.3859 9.44684698,4.3449 L9.42784698,4.3709 C9.34884698,4.3339 9.45984698,4.1789 9.44484698,4.1439 C9.47084698,4.2919 9.59784698,4.0959 9.61584698,4.2919 C9.62884698,4.2749 9.63984698,4.2399 9.61784698,4.2139 C9.64884698,4.2069 9.66784698,4.2179 9.65884698,4.2659 C9.66984698,4.2549 9.67684698,4.2469 9.68584698,4.2379 C9.69884698,4.2269 9.70784698,4.2159 9.71384698,4.2069 C9.72884698,4.1889 9.73384698,4.1739 9.73984698,4.1609 C9.75384698,4.1349 9.76384698,4.1129 9.82984698,4.0759 C9.84984698,4.0939 9.82984698,4.1149 9.83384698,4.1439 C9.85384698,4.1039 9.86884698,4.0689 9.89284698,4.0369 C9.90684698,4.0209 9.91984698,4.0059 9.94184698,3.9909 C9.94584698,3.9689 9.93884698,3.9379 9.94384698,3.9099 C9.95884698,3.9229 9.97684698,3.9159 9.97884698,3.9559 C9.95884698,3.8449 9.92184698,3.7419 9.89084698,3.6549 L9.89084698,3.6549 Z" id="Fill-110" fill="#EBC6D0" mask="url(#mask-40)"></path>
                </g>
                <polygon id="Fill-113" fill="#EBC6D0" points="35.5811 4.7039 35.5901 4.6899 35.5671 4.6949"></polygon>
                <path d="M42.5463,0.7859 L42.4943,0.7409 C42.5143,0.7639 42.5323,0.7769 42.5463,0.7859" id="Fill-115" fill="#EBC6D0"></path>
                <g id="Group-119" transform="translate(41.717100, 0.183600)">
                    <mask id="mask-42" fill="white">
                        <use xlink:href="#path-41"></use>
                    </mask>
                    <g id="Clip-118"></g>
                    <path d="M0.508,0.4549 C0.499,0.4669 0.497,0.4739 0.492,0.4819 L0.508,0.4549 Z" id="Fill-117" fill="#EBC6D0" mask="url(#mask-42)"></path>
                </g>
                <path d="M44.7511,4.8015 C44.7461,4.8035 44.7441,4.8075 44.7421,4.8105 C44.7221,4.8375 44.7371,4.8215 44.7511,4.8015" id="Fill-120" fill="#EBC6D0"></path>
                <path d="M45.0113,3.2366 C45.0293,3.2476 45.0473,3.2586 45.0613,3.2746 C45.0563,3.2426 45.0493,3.2206 45.0113,3.2366" id="Fill-122" fill="#EBC6D0"></path>
                <polygon id="Fill-124" fill="#EBC6D0" points="43.2382 5.782 43.2362 5.78 43.2272 5.786"></polygon>
                <path d="M45.0633,3.2727 C45.0683,3.2977 45.0723,3.3267 45.0903,3.3447 C45.0923,3.3137 45.0793,3.2907 45.0633,3.2727" id="Fill-126" fill="#EBC6D0"></path>
                <g id="Group-130" transform="translate(40.222500, 0.025750)">
                    <mask id="mask-44" fill="white">
                        <use xlink:href="#path-43"></use>
                    </mask>
                    <g id="Clip-129"></g>
                    <path d="M0.492,0.30505 C0.492,0.30905 0.49,0.31405 0.49,0.31605 L0.51,0.30905 L0.492,0.30505 Z" id="Fill-128" fill="#EBC6D0" mask="url(#mask-44)"></path>
                </g>
                <g id="Group-133" transform="translate(40.171600, 0.035720)">
                    <mask id="mask-46" fill="white">
                        <use xlink:href="#path-45"></use>
                    </mask>
                    <g id="Clip-132"></g>
                    <path d="M0.4795,0.328780073 L0.5205,0.312780073 C0.5065,0.312780073 0.4905,0.307780073 0.4795,0.328780073" id="Fill-131" fill="#EBC6D0" mask="url(#mask-46)"></path>
                </g>
                <g id="Group-136" transform="translate(40.766300, 0.056753)">
                    <mask id="mask-48" fill="white">
                        <use xlink:href="#path-47"></use>
                    </mask>
                    <g id="Clip-135"></g>
                    <path d="M0.5655,0.366847314 C0.5335,0.355847314 0.4885,0.300847314 0.4415,0.309847314 L0.4345,0.330847314 C0.4615,0.293847314 0.5275,0.402847314 0.5655,0.366847314" id="Fill-134" fill="#EBC6D0" mask="url(#mask-48)"></path>
                </g>
                <polygon id="Fill-137" fill="#EBC6D0" points="44.7398 2.5593 44.7468 2.4973 44.6858 2.5093"></polygon>
            </g>
        </g>
    </g>
</svg>