<svg xmlns="http://www.w3.org/2000/svg" xmlns:xlink="http://www.w3.org/1999/xlink" width="424.5" height="213" viewBox="0 0 424.5 213">
  <defs>
    <filter id="filter_2" x="183.5" y="100.998" width="241" height="98" filterUnits="userSpaceOnUse">
      <feOffset dx="3" dy="3" input="SourceAlpha"/>
      <feGaussianBlur stdDeviation="1.5" result="blur"/>
      <feFlood flood-opacity="0.161"/>
      <feComposite operator="in" in2="blur"/>
      <feComposite in="SourceGraphic"/>
    </filter>
  </defs>
  <g id="title" transform="translate(-39 -115)">
    <g id="title_logo" transform="translate(39 115)">
      <rect id="長方形_10" data-name="長方形 10" width="209" height="209" fill="#659d3b"/>
      <g id="グループ_4" data-name="グループ 4" transform="translate(49.637 49.033)">
        <g id="グループ_2" data-name="グループ 2">
          <g id="グループ_1" data-name="グループ 1">
            <path id="パス_1" data-name="パス 1" d="M347.218,495.267c0,1.235-.786,1.685-2.19,1.685-.842,0-1.348-.505-1.348-1.515,0-.507.056-2.751.056-5.278A29.689,29.689,0,0,1,332.4,498.3c-1.516.616-2.469-.73-1.179-1.686a30.308,30.308,0,0,0,10.835-10.665h-3.76v.335c0,1.179-.786,1.685-2.19,1.685q-1.348,0-1.348-1.516a78.6,78.6,0,0,0-.225-9.993.636.636,0,0,1,.842-.674,10.764,10.764,0,0,1,3.594,1.516h4.941c0-1.011,0-2.134-.056-3.257H332.789c-.73,0-1.235-.225-1.235-1.123,0-.842.505-1.123,1.235-1.123h11.062c-.058-1.741-.17-3.313-.282-4.378a.669.669,0,0,1,.732-.786c1.514,0,5.445.279,5.445,1.458,0,.731-.9,1.179-2.414,1.291,0,.507-.056,1.405-.056,2.414h5.334c.9-1.292,2.021-2.694,2.637-2.694.956,0,4.267,2.75,4.267,3.873.056.73-.73,1.067-2.527,1.067h-9.769l-.056,3.257h4.884c.619-.9,1.405-1.683,1.909-1.683.955,0,3.874,2.244,3.874,3.424,0,.672-.785,1.123-1.627,1.516,0,1.4-.058,3.706-.058,4.548,0,1.739-.728,2.132-2.078,2.132a1.4,1.4,0,0,1-1.515-1.29h-5.39Zm26.163,18.191c1.235-1.8,2.808-3.874,3.7-3.874,1.125,0,5.278,3.425,5.278,4.829,0,.786-.9,1.291-3.144,1.291h-46.6c-.728,0-1.235-.225-1.235-1.123,0-.842.507-1.123,1.235-1.123h11.341c.056-3.536.056-8.2-.168-10.442a.706.706,0,0,1,.786-.842c.955,0,5.671.223,5.671,1.572,0,.9-.955,1.292-2.414,1.628v8.084h7.8V500.264H337.618c-.73,0-1.235-.225-1.235-1.121,0-.842.505-1.125,1.235-1.125h32.057c1.011-1.516,2.3-3.144,3.032-3.144,1.011,0,4.66,3.034,4.66,4.269,0,.728-.786,1.121-2.751,1.121h-13.98c0,.562-.337.955-1.067,1.179v4.043h8.2c1.065-1.516,2.357-3.2,3.087-3.2,1.011,0,4.659,3.088,4.659,4.324.058.728-.9,1.121-2.75,1.121H359.57v5.727ZM338.236,483.7h5.615l.056-2.471v-1.683h-5.615c0,.674-.056,2.188-.056,3.367Zm8.926-4.154V483.7H352.5c.056-1.29.112-2.918.112-4.154Zm8.2,11.509a2.1,2.1,0,0,1-1.854,2.471c-1.179.167-1.683-.954-2.413-1.965-.505-.674-1.125-1.348-1.685-1.965-.842-.9-.393-2.02,1.067-1.741C352.776,488.306,355.079,489.092,355.36,491.057ZM376.919,477.7a1.885,1.885,0,0,1,1.009,1.291c0,.672-.786,1.011-2.471,1.065a24.138,24.138,0,0,1-4.1,7.468,24.1,24.1,0,0,0,10.837,4.547c1.852.282,1.121,1.125.111,1.572a4.556,4.556,0,0,0-2.188,1.685c-.563.786-.844,1.235-2.641.674a20.311,20.311,0,0,1-8.814-5.67,30.536,30.536,0,0,1-13.082,6.175c-1.685.393-2.078-1.179-.56-1.8A30.871,30.871,0,0,0,366.7,487.8a26.406,26.406,0,0,1-3.424-7.3,24.005,24.005,0,0,1-4.548,5.166c-1.29,1.067-2.414.056-1.572-1.235a38.763,38.763,0,0,0,7.075-16.954c.055-.563.448-.842,1.123-.73,1.965.393,4.885,1.628,4.885,2.581,0,.786-.675,1.123-2.471,1.179-.563,1.628-1.179,3.257-1.855,4.941h9.265c1.067-1.516,2.3-3.2,3.032-3.2,1.009,0,4.434,3.088,4.491,4.267,0,.786-1.011,1.179-2.639,1.179Zm-12.129.168a20.121,20.121,0,0,0,4.1,7.354,19.5,19.5,0,0,0,3.257-7.523h-7.3Z" transform="translate(-330.612 -466.635)" fill="#fff"/>
            <path id="パス_2" data-name="パス 2" d="M381.735,515.518c0,1.234-.786,1.853-2.471,1.853a1.38,1.38,0,0,1-1.516-1.572c0-3.594.337-20.493.055-28.465a51.365,51.365,0,0,1-6.568,7.579c-1.178,1.179-2.527.114-1.514-1.291,6.175-8.028,11.116-17.347,12.688-26.105.112-.619.335-.9,1.009-.842,2.021.393,5.784,2.134,5.784,3.367.056.955-1.067,1.235-2.751,1.012a75.872,75.872,0,0,1-5.557,11.508c1.346.563,3.087,1.46,3.087,2.246s-.955,1.125-2.134,1.292c-.167,2.7-.167,11.509-.167,13.306Zm23.747-32.564c4.043,8.366,10.444,14.206,17.742,16.843,1.8.563,1.011,1.348.112,1.685a4.045,4.045,0,0,0-2.19,1.683c-.672,1.012-1.121,1.349-2.637.676-5.278-2.976-10.612-9.656-14.092-18.191v5.9c0,1.909.056,7.073.112,12.183h3.481c1.065-1.572,2.357-3.257,3.087-3.257,1.067,0,4.492,3.087,4.492,4.322,0,.786-1.011,1.179-2.583,1.179H404.53c.055,4.548.111,8.535.111,9.6,0,1.293-.785,2.021-2.525,2.021a1.535,1.535,0,0,1-1.684-1.683c0-1.123.112-5.334.225-9.939H392.4c-.73,0-1.235-.223-1.235-1.123,0-.842.505-1.121,1.235-1.121h8.309c.112-4.66.225-9.209.225-11.06v-4.211c-3.648,7.523-9.207,14.485-16.226,18.584-1.516.953-2.581-.337-1.291-1.462a53.271,53.271,0,0,0,15.327-22.625h-12.52c-.73,0-1.235-.223-1.235-1.122,0-.842.505-1.123,1.235-1.123h14.71a102.533,102.533,0,0,0-.674-12.634c-.111-.5.225-.786.73-.786,3.481,0,6.4.337,6.4,1.685,0,.956-1.123,1.516-2.862,1.853-.056,1.853-.056,5.84-.112,9.882h8.814c1.235-1.8,2.808-3.93,3.7-3.93,1.125,0,5.334,3.481,5.334,4.883,0,.786-1.065,1.292-3.2,1.292Z" transform="translate(-308.921 -466.617)" fill="#fff"/>
          </g>
        </g>
        <g id="グループ_3" data-name="グループ 3" transform="translate(5.728 68.542)">
          <path id="パス_3" data-name="パス 3" d="M421.54,500.222a2.456,2.456,0,0,1-1.855,1.178,2.213,2.213,0,0,1-1.964-2.469c0-1.685.169-1.853.842-2.527,1.627-1.741,3.706-3.985,7.579-13.529a23.994,23.994,0,0,1-5.334.56c-2.581,0-3.7-.674-4.6-1.853a3.969,3.969,0,0,1-.786-1.628c0-.393.223-.56.449-.56a9.581,9.581,0,0,1,1.346.56,7.223,7.223,0,0,0,3.09.563,30.682,30.682,0,0,0,6.793-.9,24.737,24.737,0,0,0,.954-6.233c0-.449-.337-2.357-.337-2.75a1.664,1.664,0,0,1,1.684-1.518,3.145,3.145,0,0,1,2.864,2.976c0,1.348-1.405,5.278-1.965,6.568.337-.167,2.076-.841,2.3-.953a5.452,5.452,0,0,1,1.571-.842c.956,0,2.358.674,2.358,1.851,0,1.012-1.348,1.686-1.572,1.8-1.065.449-2.75.953-5.838,1.852C427.659,486.188,423.223,498.032,421.54,500.222Zm30.934,11.509c0,1.179-.449,1.909-1.516,1.909a3,3,0,0,1-2.694-1.348c-.732-.73-4.269-4.267-6.29-5.333-.337,1.851-1.234,6.905-8.646,6.905-2.75,0-8.309-1.067-8.309-5.054,0-3.706,4.154-6.006,9.993-6.006,1.4,0,2.528.112,3.481.169-.112-2.078-.281-6.738-.281-7.973,0-3.7.112-5.614,3.65-8.253a3.98,3.98,0,0,1,1.628-.786.856.856,0,0,1,.842.786c0,.449-1.574,1.853-1.853,2.19a5.713,5.713,0,0,0-1.348,3.761c0,1.742.955,9.433.955,11.005C446.187,504.713,452.475,508.926,452.475,511.732Zm-19.425-6.626c-3.088,0-5.615,1.179-5.615,3.313,0,2.414,3.537,2.639,4.829,2.639,2.75,0,5.894-1.346,6.119-5.052A15.382,15.382,0,0,0,433.05,505.106Zm18.527-20.267c-.562,0-3.481.337-3.537.337-.111,0-.9,0-.9-.56,0-.619.954-.956,1.235-1.012.732-.279,1.235-.561,1.235-1.065,0-1.572-3.817-2.077-5.952-2.3-.279-.055-.786-.111-.786-.56,0-.73,2.751-1.349,4.38-1.349.842,0,7.861.282,7.861,4.324C455.114,484.839,452.531,484.839,451.576,484.839Z" transform="translate(-415.42 -469.118)" fill="#fff"/>
          <path id="パス_4" data-name="パス 4" d="M481.1,488.391c0,2.583-.226,10.835-2.807,15.833-3.65,6.905-9.1,7.579-12.071,7.579-7.243,0-11.959-4.434-11.959-11.565,0-6.793,4.659-14.092,6.68-16.619.562-.73,3.425-3.761,3.987-4.38-2.751,1.349-6.514,2.528-7.917,2.528-1.8,0-2.75-1.855-2.75-3.82,0-.223,0-.786.393-.786a11.4,11.4,0,0,1,1.178.563,4.225,4.225,0,0,0,1.909.393,16,16,0,0,0,8.365-2.639c1.068-.9,1.293-1.067,2.248-1.067a2.636,2.636,0,0,1,2.694,2.357c0,1.012-.335,1.179-2.19,2.079-3.257,1.571-10.667,11.79-10.667,20.436a9.2,9.2,0,0,0,2.19,6.513c1.965,1.965,4.94,2.132,6.063,2.132,6.85,0,13.25-7.3,13.25-26.5,0-.393,0-2.358-.056-2.527-.167-.956-1.739-4.885-1.739-5.727,0-1.123.449-1.4,1.46-1.4,2.244,0,2.357,1.067,2.637,3.145,1.125,9.321,7.749,19.088,11.118,20.943,2.132,1.179,2.637,1.4,2.637,3.087,0,1.572-1.685,1.909-2.808,1.909-2.862,0-4.49-2.358-7.41-8.03a51.288,51.288,0,0,1-4.773-12.913C480.819,481.147,481.1,487.829,481.1,488.391Zm4.6-14.373c0-.281.281-.393.561-.393,2.358,0,6.512,1.628,6.512,4.492a1.828,1.828,0,0,1-1.683,1.8c-1.125,0-1.291-.337-2.358-2.413a11.888,11.888,0,0,0-2.808-3.088A.714.714,0,0,1,485.7,474.018Zm10.105,1.684c-1.011,0-1.178-.225-2.357-2.078a8.6,8.6,0,0,0-3.145-3.031.506.506,0,0,1-.282-.451c0-.449.73-.449.842-.449,3.034,0,6.738,1.572,6.738,4.213A1.809,1.809,0,0,1,495.809,475.7Z" transform="translate(-393.678 -468.796)" fill="#fff"/>
        </g>
      </g>
      <g id="長方形_11" data-name="長方形 11" transform="translate(4 4)" fill="none" stroke="#fff" stroke-width="1">
        <rect width="209" height="209" stroke="none"/>
        <rect x="0.5" y="0.5" width="208" height="208" fill="none"/>
      </g>
    </g>
    <g id="title_text" transform="translate(224 217.498)">
      <g transform="matrix(1, 0, 0, 1, -185, -102.5)" filter="url(#filter_2)">
        <path id="合体_2-2" data-name="合体 2" d="M3,89a3,3,0,0,1-3-3V50.371a3,3,0,0,1,3-3H229a3,3,0,0,1,3,3V86a3,3,0,0,1-3,3ZM3,41.63a3,3,0,0,1-3-3V3A3,3,0,0,1,3,0H229a3,3,0,0,1,3,3V38.629a3,3,0,0,1-3,3Z" transform="translate(185 102.5)" fill="#fff"/>
      </g>
      <text id="集客を_に_整体院集客サービス" data-name="集客を 　　　　  に。
整体院集客サービス" transform="translate(14 30)" fill="#333" font-size="22" font-family="HiraKakuPro-W6, Hiragino Kaku Gothic Pro"><tspan x="0" y="0" xml:space="preserve">集客を 　　　　  に。</tspan><tspan x="0" y="47">整体院集客サービス</tspan></text>
      <path id="スマート" d="M-29.343-3.486a1.256,1.256,0,0,1,.82.376.478.478,0,0,1,.547.41,1.38,1.38,0,0,1-.068.752.807.807,0,0,1-.393.461.852.852,0,0,1-.53.068.853.853,0,0,1-.393-.154.8.8,0,0,0-.342-.154,1.265,1.265,0,0,1-.513-.308q-.291-.256-.393-.359a.52.52,0,0,0-.273-.137,26.564,26.564,0,0,1-2.461-1.812A25.739,25.739,0,0,1-36.675-7.5a22.7,22.7,0,0,1-2.581-3.538q-1.3,1.128-2.888,2.393t-3.025,2.393Q-46.6-5.127-47.8-4.05t-2.222,1.9a5.439,5.439,0,0,0-.615.222.935.935,0,0,1-.615.034,1.121,1.121,0,0,1-.564-.325q-.222-.239-.12-1.042t1.23-.53q.581-.376,1.042-.718t.581-.444a1.368,1.368,0,0,1,.461-.205.755.755,0,0,1,.461-.376,1.782,1.782,0,0,0,.632-.41l.41-.41a8.931,8.931,0,0,1,.735-.581q.6-.444,1.333-.974a24.988,24.988,0,0,0,2.1-1.794,2.88,2.88,0,0,1,.8-.479.528.528,0,0,0,.359-.273,1.987,1.987,0,0,1,.376-.479q.273-.41.444-.444a1.138,1.138,0,0,0,.41-.205A18.168,18.168,0,0,0-39.29-12.92a4.921,4.921,0,0,1,1.265-.752q0-.513.222-.547a2.139,2.139,0,0,0,.735-.41,1.01,1.01,0,0,1,.444-.479.419.419,0,0,0,.273-.308.47.47,0,0,1,.342-.325.569.569,0,0,0,.376-.325,2.237,2.237,0,0,0,.5-.564.746.746,0,0,1,.256-.308,1.545,1.545,0,0,0,.359-.393,6.98,6.98,0,0,1,.6-.718,7.468,7.468,0,0,0,.376-.8,1.724,1.724,0,0,0,.085-.94,1,1,0,0,0-.735-.752,1.208,1.208,0,0,0-.786-.154,1.259,1.259,0,0,1-.752-.085.461.461,0,0,0-.479-.256,1.958,1.958,0,0,0-.667.154.707.707,0,0,1-.564.034,1.32,1.32,0,0,0-.667.068,2.316,2.316,0,0,1-.94.068.77.77,0,0,1-.632.256,1.9,1.9,0,0,0-.872.154q-.581.205-1.094.376a13.229,13.229,0,0,0-3.486,1.5,1.212,1.212,0,0,1-.273.854.983.983,0,0,1-.752.154.725.725,0,0,1-.667-.564,2.055,2.055,0,0,1-.068-.974,1.053,1.053,0,0,1,.479-.718,5.706,5.706,0,0,1,.82-.444q.427-.188.769-.359,1.333-.41,2.751-.872a20.158,20.158,0,0,1,2.8-.7,14.128,14.128,0,0,1,2.341-.239q.444-.068.957-.1a7.082,7.082,0,0,1,1.06.068q.513.034,1.008.1a1.375,1.375,0,0,1,.872.513,1.09,1.09,0,0,1,.649.444q.171.342.291.53a1.885,1.885,0,0,1,.205.479.951.951,0,0,1-.085.667,1.049,1.049,0,0,1-.1.752.809.809,0,0,1-.051.667,1.349,1.349,0,0,0-.239.53,1.665,1.665,0,0,1-.53.752.876.876,0,0,1-.684.684,5.946,5.946,0,0,1-.82.957q-.649.581-1.094,1.06a8.84,8.84,0,0,1-.957.889q-.513.41-.7.6a8.3,8.3,0,0,0-.564.667q.273.786.308.889t.12.376a1.816,1.816,0,0,0,.239.5q.154.222.359.581a4.068,4.068,0,0,0,.513.7,3.8,3.8,0,0,0,.359.649q.154.205.239.342a1.674,1.674,0,0,0,.427.376,1.8,1.8,0,0,1,.581.718,1.983,1.983,0,0,0,.444.222,1.883,1.883,0,0,1,.581.5,4.705,4.705,0,0,0,1.179.923q.8.479,1.094.684a4.266,4.266,0,0,0,.769.41A6.823,6.823,0,0,1-29.343-3.486Zm14.868-8.989a4.524,4.524,0,0,0,.171.94,2.363,2.363,0,0,0,.222.479q.12.188.461.632a2.019,2.019,0,0,0,.7-.051q.325-.085.547-.154t.7-.205a.731.731,0,0,1,.479-.308,1.625,1.625,0,0,0,.649-.239q1.025-.41,1.658-.7a3.537,3.537,0,0,0,.872-.513,4.337,4.337,0,0,1,.547-.427,1.372,1.372,0,0,1,.581-.239,1.864,1.864,0,0,1,.427-.427q.188-.12.632-.393a.593.593,0,0,1,.547-.444,1.683,1.683,0,0,0,.427-.6.623.623,0,0,1,.5-.359q.273-.41.547-.752a5.314,5.314,0,0,1,.718-.718,3.829,3.829,0,0,0,.393-.8.635.635,0,0,0,0-.461,1.394,1.394,0,0,0-.308-.376,1.767,1.767,0,0,0-.735-.342A.71.71,0,0,1-4.29-19a1.164,1.164,0,0,0-.53-.171,1.231,1.231,0,0,1-.5-.137,2.643,2.643,0,0,1-.786.068,3.134,3.134,0,0,1-.547-.12.738.738,0,0,0-.5,0,2.393,2.393,0,0,1-.632.12.858.858,0,0,0-.615.017.772.772,0,0,1-.615-.017q-.547.1-.786.137a6.29,6.29,0,0,1-.957,0,1.191,1.191,0,0,1-.649.205.559.559,0,0,0-.41.1.359.359,0,0,1-.376.051.315.315,0,0,0-.359.068.74.74,0,0,1-.632.051,1.254,1.254,0,0,1-.649.154.349.349,0,0,0-.325.085.8.8,0,0,1-.6.068,1.579,1.579,0,0,1-.889.291.425.425,0,0,0-.393.068.25.25,0,0,1-.273.068.414.414,0,0,0-.359.085.842.842,0,0,1-.479.137,3.587,3.587,0,0,1-1.3.41,2.862,2.862,0,0,0-1.265.615q-.513.273-.991.581a2.155,2.155,0,0,1-.273.769,2.8,2.8,0,0,1-.376.239,1.044,1.044,0,0,1-.718.068.792.792,0,0,1-.615-.564,2.176,2.176,0,0,1,.41-1.384,2.5,2.5,0,0,1,1.025-.889,8.236,8.236,0,0,1,1.23-.427,39.631,39.631,0,0,1,3.879-1.077q2.41-.564,3.623-.718t2.615-.342a36,36,0,0,1,4.341-.188,9.16,9.16,0,0,1,1.572.137,6.326,6.326,0,0,1,1.333.427,6.146,6.146,0,0,1,.718.41,1.589,1.589,0,0,1,.479.564,3.513,3.513,0,0,1,.359.718,1.617,1.617,0,0,1,.034.82q-.085.479-.154.718a1.178,1.178,0,0,1-.222.427q-.154.188-.564.632-.581.718-.8.94t-.461.444Q-3.5-14.116-4.6-13.33t-3.179,2.153A30.154,30.154,0,0,1-12.6-8.955q.41.752.479.854t.513.82a3.57,3.57,0,0,1,.461.581,3.292,3.292,0,0,0,.564.649q.479.41.957.854a4.607,4.607,0,0,0,.41.359,5.831,5.831,0,0,0,.513.359,3,3,0,0,0,.752.308,1.66,1.66,0,0,1,.923.376,1.075,1.075,0,0,1,.325.581.757.757,0,0,1-.12.564,1.725,1.725,0,0,1-.342.393,1.126,1.126,0,0,1-.632.154,1.174,1.174,0,0,1-.8-.256,5.268,5.268,0,0,1-.7-.581,1.471,1.471,0,0,0-.5-.342,7.435,7.435,0,0,1-1.23-1.162q-.649-.752-1.4-1.743T-13.86-8.271q-.547-.205-.8-.308a.922.922,0,0,1-.427-.359,1.712,1.712,0,0,1-.068-1.042q-.376-.649-.615-1.008a4.273,4.273,0,0,1-.41-.786,2.328,2.328,0,0,1-.171-.872q-.1-.649.684-1.162a1.19,1.19,0,0,1,.632-.034,1.514,1.514,0,0,1,.53.205.627.627,0,0,1,.256.444A1.028,1.028,0,0,1-14.475-12.476Zm22.114-.581a1.9,1.9,0,0,1,.94-.171q.5.034,1.06.12a3.8,3.8,0,0,0,.906.051q.513.1.667.137a.49.49,0,0,0,.342-.068.624.624,0,0,1,.461-.034,5.938,5.938,0,0,0,.991.1,4.621,4.621,0,0,1,.974-.034l1.008.068a2.1,2.1,0,0,1,1.128.034,5.5,5.5,0,0,1,1.367-.12,11.012,11.012,0,0,0,1.606-.085,2.777,2.777,0,0,0,.615,0q.308-.034.615-.085a2.01,2.01,0,0,1,.581-.017q.273,0,.547-.017a1.887,1.887,0,0,0,.547-.12q.479,0,.82-.034t.854-.068a4.267,4.267,0,0,0,1.128-.273,4.357,4.357,0,0,1,.786,0,1.894,1.894,0,0,1,.53.171.59.59,0,0,1,.325.53,1.186,1.186,0,0,1-.085.632.568.568,0,0,1-.325.308,3.841,3.841,0,0,1-.735.12q-.53.051-1.025.068t-1.282.085q-1.128-.068-4.751.085t-4.1.171a2.507,2.507,0,0,1-.889-.12,3.794,3.794,0,0,1-.7.205,3.128,3.128,0,0,1-1.077-.068,1.15,1.15,0,0,1-.786.188,2.1,2.1,0,0,0-.6-.1,2.865,2.865,0,0,0-.7.051q-.752.205-1.042.256a1.235,1.235,0,0,1-.735-.171.946.946,0,0,1-.444-.94Q7.161-12.92,7.639-13.057ZM38.469-2.222a1.2,1.2,0,0,1,.12.667.641.641,0,0,0,.051.444,1.924,1.924,0,0,1,.171.53q.239.513.359.8a3.361,3.361,0,0,1,.171.513q.051.222-.273.581a.986.986,0,0,1-.667.376.965.965,0,0,1-.564-.12,1.136,1.136,0,0,1-.393-.564,5.359,5.359,0,0,1-.273-.94q-.137-.889-.222-1.436a7.65,7.65,0,0,1-.085-1.179V-3.862q.205-1.88.308-2.837t.479-2.769q.1-.444.444-2.461a3.938,3.938,0,0,1-.6-.256.437.437,0,0,1-.239-.5,1.324,1.324,0,0,1,.205-.564,1.963,1.963,0,0,1,.94-.461q.1-.513.171-.752.1-.479.205-1.367a.593.593,0,0,1,.171-.547q.068-.444.154-.837a6.2,6.2,0,0,0,.12-.8,4.079,4.079,0,0,0,.171-.889,2.015,2.015,0,0,1,.239-.82,1.528,1.528,0,0,1,.273-1.094q.034-.444.1-.854a.777.777,0,0,1,.085-.547,1.875,1.875,0,0,0,.222-.752,3.321,3.321,0,0,0,.239-.991l.137-.889q.239-.615.376-.991a.746.746,0,0,1,.393-.479,1.369,1.369,0,0,1,.632-.068,3,3,0,0,1,.718.342q.308.205.188.752a1.361,1.361,0,0,1-.359.752.588.588,0,0,0-.308.376.871.871,0,0,1-.205.41,1.275,1.275,0,0,1-.085.461,2.7,2.7,0,0,1-.222.444.588.588,0,0,0-.068.479.646.646,0,0,1-.137.547,1.074,1.074,0,0,0-.205.632,1.187,1.187,0,0,1-.085.581q-.12.308-.222.547A4.284,4.284,0,0,1,40.862-19a12.778,12.778,0,0,1-.325,1.333,13.979,13.979,0,0,0-.359,1.692q-.205,1.213-.41,2.307,1.538.171,2.307.205t1.179.034q.41,0,1.418-.085t3.23-.359l.889-.205a6.185,6.185,0,0,0,.974-.171q.359-.1.667-.222a.77.77,0,0,1,.632.034,2,2,0,0,1,.564.393.5.5,0,0,1,.1.581.887.887,0,0,1-.308.444,2.767,2.767,0,0,1-.444.205,2.209,2.209,0,0,1-.752.1,1.243,1.243,0,0,1-.649.222q-.239-.017-.718-.085-.718.342-1.06.137-.376.273-.564.205a2.145,2.145,0,0,0-.461-.1,1.349,1.349,0,0,1-.957.137,4.237,4.237,0,0,0-.718.034,3.916,3.916,0,0,1-.684.034,2.373,2.373,0,0,1-1.094.034q-.513.273-.632.12a.248.248,0,0,0-.308-.085,3.079,3.079,0,0,1-.444.12,1.945,1.945,0,0,1-.632,0,15.74,15.74,0,0,0-1.812-.017,2.056,2.056,0,0,0-.1.735q.034.222-.068.291t-.137.376a1.525,1.525,0,0,1-.137.513.6.6,0,0,0-.034.444,2.13,2.13,0,0,1-.239,1.025q-.273,1.948-.41,2.888A6.614,6.614,0,0,0,38.281-4.2q.051.547.1,1.042T38.469-2.222Z" transform="matrix(0.999, -0.035, 0.035, 0.999, 135.5, 33.499)" fill="#f2385e" stroke="#f2385e" stroke-width="1"/>
    </g>
  </g>
</svg>
