<svg xmlns="http://www.w3.org/2000/svg" width="70.052" height="128.016" viewBox="0 0 70.052 128.016">
    <defs>
        <clipPath id="4dl7s0taha">
            <path data-name="長方形 23" d="M0 0h70.052v128.016H0z"/>
        </clipPath>
    </defs>
    <g data-name="グループ 21" style="clip-path:url(#4dl7s0taha)">
        <path data-name="パス 71" d="M58.416 169.495c.109.662.213 1.325.33 1.986a5.648 5.648 0 0 0 .164.6 1.29 1.29 0 0 1 .1.257c.072 1.044.136 2.089.207 3.134.012.167.058.331.074.5.04.416.073.833.108 1.25 0 .045-.016.1.006.136.461.683.16 1.474.314 2.2a1.1 1.1 0 0 1-.719 1.206c-.082.035-.2.059-.235.125-.475.884-1.3.6-2.036.625-.851.028-1.7.061-2.556.061a1.97 1.97 0 0 1-.883-.158.743.743 0 0 0-.729-.047 4.012 4.012 0 0 1-2.419.271 9.437 9.437 0 0 0-1.977.044 23.129 23.129 0 0 1-3.341-.032 3.839 3.839 0 0 0-1.68.151 1.113 1.113 0 0 1-.762-.2 1.122 1.122 0 0 0-1.326-.05.5.5 0 0 1-.2.109 8.436 8.436 0 0 1-3.4.075 1.348 1.348 0 0 0-.813.01 1.511 1.511 0 0 1-1.193-.125.472.472 0 0 0-.361-.012 3.006 3.006 0 0 1-2.305.114 1.836 1.836 0 0 0-.651 0c-.145.018-.283.143-.423.142-.591-.006-1.18-.049-1.771-.065-.228-.006-.457.043-.685.034a6.747 6.747 0 0 0-1.16-.079c-.608.083-1.228-.451-1.824.059a.59.59 0 0 1-.434.122 10 10 0 0 0-2.3.011c-.747.034-1.5-.283-2.247.081a.627.627 0 0 1-.363.021 2.706 2.706 0 0 0-1.738.009c-.881-.338-1.758.259-2.643.006a2.782 2.782 0 0 0-1.469-.028c-.172.043-.381-.087-.576-.1a1.456 1.456 0 0 0-.7.039 1.425 1.425 0 0 1-1.193.041 1.247 1.247 0 0 0-.736-.034 1.8 1.8 0 0 1-1.608-.3.829.829 0 0 1-.283-1.075c.294-.557.08-1.059.055-1.594a11.828 11.828 0 0 1 .054-2.643 3.257 3.257 0 0 0 .2-1.542 4.156 4.156 0 0 1 .222-1.472.63.63 0 0 0-.04-.383 1.763 1.763 0 0 1-.249-1.448 3.25 3.25 0 0 0 .008-.737 3.585 3.585 0 0 0-.787.355 2.683 2.683 0 0 1-2.067.507c-.468-.037-.937-.063-1.4-.1a2 2 0 0 1-1.7-1.078 1.061 1.061 0 0 0-.549-.411 3.058 3.058 0 0 1-1.662-1.082.526.526 0 0 0-.2-.184 1.355 1.355 0 0 1-.758-1.217 9.3 9.3 0 0 0-.35-1.08 51.03 51.03 0 0 1-.532-2.258 2.638 2.638 0 0 1-.016-.732 7.091 7.091 0 0 0-.174-2.618 1.081 1.081 0 0 1 .027-.628 5.06 5.06 0 0 0 .2-1.972 29.929 29.929 0 0 1 .172-3.147c.008-.134-.025-.27-.03-.4a1.53 1.53 0 0 1 0-.632 4.39 4.39 0 0 0 .15-2.213 18.044 18.044 0 0 1 .123-2.274c.011-.168.04-.335.047-.5.032-.84.036-1.682.1-2.519a6.867 6.867 0 0 1 .283-1.008 2.717 2.717 0 0 0 .151-.925 3.014 3.014 0 0 1 .256-2.136.753.753 0 0 0 .036-.494 5.986 5.986 0 0 1 .492-2.907 1.167 1.167 0 0 0 .078-.309c0-.557-.043-1.117.005-1.67a5.083 5.083 0 0 1 .3-1.329 9.638 9.638 0 0 0 .331-2.42c.075-.679.244-1.348.374-2.021.031-.164.07-.327.109-.491.155-.674.315-1.348.466-2.024.053-.236.069-.482.13-.716.31-1.2.632-2.388.943-3.583a.529.529 0 0 0 .007-.316A2.158 2.158 0 0 1 5 122.53c.269-.663.586-1.307.9-1.948.134-.27.324-.513.485-.769a2.665 2.665 0 0 0 .3-.51 7.5 7.5 0 0 1 1.574-2.603 7.566 7.566 0 0 0 .843-1.246 6.135 6.135 0 0 1 1.908-1.619 4.9 4.9 0 0 0 .7-.635 1.008 1.008 0 0 1 .9-.357.744.744 0 0 0 .4-.018c.912-.511 1.788-1.093 2.726-1.544a12.056 12.056 0 0 1 1.947-.584c.057-.016.14.025.182 0a4.875 4.875 0 0 1 1.852-.458c.55-.122 1.114-.175 1.668-.281a6.858 6.858 0 0 0 .813-.237c.1-.032.188-.118.288-.131.852-.106 1.707-.191 2.558-.31.142-.019.266-.166.4-.253a2.447 2.447 0 0 0 1.307.7 5.485 5.485 0 0 1 1.566 2.344.71.71 0 0 0 .147.231 17.81 17.81 0 0 1 2.744 4.056 4.347 4.347 0 0 0 .471.734c.636.795.969 1.769 1.566 2.589.473.65.92.71 1.362.031a31.351 31.351 0 0 0 1.988-2.978c.37-.745.857-1.4 1.257-2.119a6.477 6.477 0 0 1 .5-1.081 10.9 10.9 0 0 0 .787-1.164c.537-.859.9-1.815 1.493-2.634a.81.81 0 0 1 .364-.181 1.094 1.094 0 0 0 .865-.892.243.243 0 0 1 .12-.183 4.862 4.862 0 0 1 2.7.5c.11.058.274 0 .408.028.326.059.649.128.972.2.515.118 1.026.255 1.543.361.416.085.845.116 1.259.211a1.526 1.526 0 0 1 .614.286 1.094 1.094 0 0 0 1.187.217 1.531 1.531 0 0 1 1.065-.01 10.6 10.6 0 0 1 2.144.893c.2.109.491.061.709.155.529.226 1.021.553 1.563.73a5.512 5.512 0 0 1 1.721 1.046 11.046 11.046 0 0 1 1.528 1.663 7.167 7.167 0 0 1 .961 1.131 2 2 0 0 1 .259 1.521A3.142 3.142 0 0 1 61.8 119.1c.2.528.359 1.068.537 1.6.049.145.162.3.142.432a5.551 5.551 0 0 0 .638 2.5c.044.143.01.311.056.453.1.3.219.588.336.879a17 17 0 0 1 .652 1.646c.261.924.4 1.884.683 2.8a1.433 1.433 0 0 1-.177 1.505c-.067.079-.093.305-.039.354a4.09 4.09 0 0 1 1.109 2.347c.186.855.5 1.683.683 2.539.12.562.1 1.155.164 1.73a1.517 1.517 0 0 0 .2.625 1.608 1.608 0 0 1 .174 1.451 1.044 1.044 0 0 0 .149.946 5.207 5.207 0 0 1 .371 1.01 2.669 2.669 0 0 0 .188.546 2.008 2.008 0 0 1 .307 1.663 1.072 1.072 0 0 0 .24 1.071 1.142 1.142 0 0 1 .277.516A17.485 17.485 0 0 1 68.9 148a13.884 13.884 0 0 1 .2 3.524 6.955 6.955 0 0 0 .2 1.8c.036.358.014.72.024 1.08a5.932 5.932 0 0 0 .049.879c.089.489.242.966.33 1.455a5.792 5.792 0 0 1 .171 1.493 4.761 4.761 0 0 0 .067 1.761 2.062 2.062 0 0 1-.588 2.28.412.412 0 0 0-.111.329 2.422 2.422 0 0 1-.859 1.943c-.14.169-.208.4-.334.579-.169.245-.368.469-.546.708a3.232 3.232 0 0 0-.554.8 1.954 1.954 0 0 1-1.533 1.228 8.547 8.547 0 0 0-2.157.545 3.436 3.436 0 0 1-1.025.189 8.982 8.982 0 0 0-1.14.276 3.622 3.622 0 0 1-2.247.175c-.087-.172 0-.328.043-.489a1.13 1.13 0 0 0-1.119-1.475 3.783 3.783 0 0 0-1.458.125.292.292 0 0 1-.181.024 8.238 8.238 0 0 0-1.721-.008 6.593 6.593 0 0 0-1.983.3 10.73 10.73 0 0 1-2.241.138 7.209 7.209 0 0 0-2.681.245.873.873 0 0 1-.454.038 2.555 2.555 0 0 0-1.691.3.766.766 0 0 1-.7.031 2.224 2.224 0 0 1-1.466-1.161c-.088-.211-.294-.251-.494-.288-.177-.034-.374-.008-.517-.156a.411.411 0 0 1-.074-.216 30.123 30.123 0 0 1-.019-3.711.305.305 0 0 1 .138-.115 1.191 1.191 0 0 0 .847-1.508c-.093-.61-.072-.636.482-.921a5.238 5.238 0 0 1 3.616-.527 1.3 1.3 0 0 0 .771-.032.908.908 0 0 1 .588 0 2.457 2.457 0 0 0 1.006.072 10.674 10.674 0 0 0 2.42-.5 6.107 6.107 0 0 1 2.424-.533 1.087 1.087 0 0 0 .694-.337 1.118 1.118 0 0 1 1.1-.3.958.958 0 0 0 .413.014 1.256 1.256 0 0 1 1.1.292.8.8 0 0 0 1.221-.273 1.761 1.761 0 0 0 .208-1.335 8.933 8.933 0 0 1-.241-2.1.941.941 0 0 0-.074-.452 8.917 8.917 0 0 1-.572-2.962c-.073-.455-.2-.895-.309-1.34a7.917 7.917 0 0 1-.429-2.053 6.929 6.929 0 0 0-.311-1.949.663.663 0 0 0-.637-.515.614.614 0 0 0-.626.509 3.4 3.4 0 0 0-.037 2.215.833.833 0 0 1 .091.4c-.127.658.1 1.307.036 1.963a3.307 3.307 0 0 0 .121 1 10.427 10.427 0 0 1 .4 3 1.96 1.96 0 0 0 .117.725.419.419 0 0 1-.313.6 1.254 1.254 0 0 0-.462.2 1.4 1.4 0 0 1-1.415.259 1.572 1.572 0 0 0-1.266.307 1.8 1.8 0 0 1-1.4.306 1.249 1.249 0 0 0-.682.064 8.245 8.245 0 0 1-1.7.414 1.892 1.892 0 0 0-.937.367 1.4 1.4 0 0 1-1.5.231 1.117 1.117 0 0 0-.963.2 1.736 1.736 0 0 1-.908.286 1.3 1.3 0 0 0-.579.143 1.448 1.448 0 0 1-1.067.089 1.5 1.5 0 0 0-1.544.846 6.573 6.573 0 0 0-.683 1.929.529.529 0 0 1-.528.028 4.48 4.48 0 0 0-1.521-.282.291.291 0 0 1-.083-.29 5.543 5.543 0 0 0 .028-1.212 1.351 1.351 0 0 1 .891-.386c.738-.134.8-.18.91-.888.077-.222.279-.313.457-.427.7-.453.73-1.018.067-1.523a.418.418 0 0 1-.122-.134 5.765 5.765 0 0 0-.116-1.5.489.489 0 0 1 .184-.3 1.261 1.261 0 0 0 .48-1.245.231.231 0 0 1 .047-.171 1.349 1.349 0 0 0 .862-1.818c-.242-.757-.543-.971-1.447-.986a1.77 1.77 0 0 1-1.052-.246 2.66 2.66 0 0 1-.9-1 .464.464 0 0 1 .13-.5 2.2 2.2 0 0 0 .376-.784.574.574 0 0 0-.489-.776 4.96 4.96 0 0 1-1.6-.552 1.869 1.869 0 0 0-1.462-.182.467.467 0 0 1-.544-.137.735.735 0 0 0-.326-.248c-.766-.2-1.475-.578-2.248-.759a1.811 1.811 0 0 0-1.795.769c-.061.066-.081.187-.161.22-.887.369-1.177 1.287-1.778 1.917a4.179 4.179 0 0 1-.855.754.5.5 0 0 1-.392-.206 2.063 2.063 0 0 0-2.33-.354 14.61 14.61 0 0 0-2.409 1.217c-1.5 1.012-3.322 1.246-4.853 2.159a8.1 8.1 0 0 1-1.674.639 1.011 1.011 0 0 0-.133.039 6.5 6.5 0 0 1-1.934.878.527.527 0 0 0-.315.259c-.286.458-.761.4-1.194.445-.241.023-.324-.125-.272-.357a16.26 16.26 0 0 0 .336-2.409 1.638 1.638 0 0 0 .025-.367 3.308 3.308 0 0 1 .4-1.846 5.271 5.271 0 0 0 .225-2.5 4.051 4.051 0 0 1-.01-.915.8.8 0 0 0-.716-.946.743.743 0 0 0-.832.775c-.019.6-.381 1.089-.447 1.68a4.672 4.672 0 0 0-.05 2.267.848.848 0 0 1-.008.547 14.234 14.234 0 0 0-.573 2.921 1.476 1.476 0 0 0 .111.941.471.471 0 0 1-.156.676 1.066 1.066 0 0 0-.358 1.461q.07.171.15.337a1.172 1.172 0 0 0 1.589.69 4.474 4.474 0 0 0 2.124-1.042.638.638 0 0 1 .511-.174 1.5 1.5 0 0 0 1.189-.507.666.666 0 0 1 .264-.18c1.744-.59 3.32-1.553 5.013-2.256a5.429 5.429 0 0 0 .855-.543 6.053 6.053 0 0 1 1.257-.529 10.442 10.442 0 0 0 2.428-.952 2.329 2.329 0 0 1 1.574-.306.462.462 0 0 1 .176.312 26.622 26.622 0 0 0 .649 2.62 7.106 7.106 0 0 0 .368.988c.288.634.206 1.362.469 2s.284 1.358.6 2a2.218 2.218 0 0 1 .187 1.478c-.134.2-.356.3-.515.473a8.948 8.948 0 0 0-1.606.871c-.46.087-.9-.153-1.369-.071-.575.1-.772.3-.727.889a1.169 1.169 0 0 1-.034.545 5.8 5.8 0 0 1-1.543.908c-.195-.065-.2-.256-.266-.4a.923.923 0 0 0-1.572-.321 1.354 1.354 0 0 1-1.007.432 2.407 2.407 0 0 0-1.393.742 3.327 3.327 0 0 1-1.049.647 2.628 2.628 0 0 0-.753.427 1.933 1.933 0 0 1-1.254.379.787.787 0 0 0-.723.315.642.642 0 0 1-.57.24 1.35 1.35 0 0 0-1.2.637 1.62 1.62 0 0 1-1.186.628 9.216 9.216 0 0 0-3.07 1.192 1.476 1.476 0 0 0-.65.919.974.974 0 0 0 .438 1.074c.515.311.95.33 1.308-.036a2.24 2.24 0 0 1 1.231-.648 3.645 3.645 0 0 0 1.328-.618 2.513 2.513 0 0 1 1.764-.645.883.883 0 0 0 .807-.379c.4-.572 1.034-.648 1.609-.886a7.881 7.881 0 0 0 2.724-1.568 2.111 2.111 0 0 1 .756-.5 2.363 2.363 0 0 0 1-.548.4.4 0 0 1 .332-.134 1.819 1.819 0 0 0 1.037-.294 24.088 24.088 0 0 1 3.413 1.48c.815.4 1.683.654 2.488 1.057a21.417 21.417 0 0 1 2.895 1.368 7.526 7.526 0 0 0 1.553.851 1.832 1.832 0 0 0 1.422.074 13.058 13.058 0 0 1 2.509-.689 9.4 9.4 0 0 0 2.177-.54c.2-.087.419-.229.647-.045a15.127 15.127 0 0 1 .268 1.533.839.839 0 0 0 .635.806 2.975 2.975 0 0 0 2.411.083.66.66 0 0 1 .617.075 2.6 2.6 0 0 0 1.743.252 1.522 1.522 0 0 1 .5-.033 8.078 8.078 0 0 0 2.891-.308 7.189 7.189 0 0 1 2.871-.2 3.082 3.082 0 0 0 .958-.032c.657-.076 1.323-.076 1.98-.123.685-.048 1.4-.041 2.095-.072" transform="translate(0 -38.342)" style="fill:#fff"/>
        <path data-name="パス 72" d="M22.171 48.4c-.2-.825-.412-1.65-.61-2.476a3.425 3.425 0 0 1-.049-.455 7.59 7.59 0 0 1-.134-1.526 11.717 11.717 0 0 0-.2-2.071 7.553 7.553 0 0 0-.233-1.743.671.671 0 0 1-.027-.445c.306-.568.018-1.065-.14-1.583a2.046 2.046 0 0 1-.1-.445c-.04-.6-.067-1.211-.1-1.817-.058-1.1-.2-2.2-.146-3.291a8.933 8.933 0 0 0 .078-2.044 4.106 4.106 0 0 1 .118-1.242.571.571 0 0 1 .489-.514c.8-.224 1.575-.561 2.378-.789.717-.2 1.468-.288 2.186-.485.774-.212 1.533-.486 2.29-.754.107-.037.26-.228.237-.3-.118-.382.232-.512.333-.756a2.176 2.176 0 0 0 .052-1.146 2.052 2.052 0 0 1 .189-1.552.546.546 0 0 0 .08-.307 1.176 1.176 0 0 1 .487-1.037.455.455 0 0 0 .144-.378 3.371 3.371 0 0 1 .34-2 1.151 1.151 0 0 1 .248-.484 1.191 1.191 0 0 1 .612-.388c.509-.038 1.028.059 1.54.036.387-.017.767-.176 1.155-.2.74-.053 1.483-.066 2.225-.079.464-.008.93.009 1.394.025.57.02 1.144.017 1.707.092a1.991 1.991 0 0 0 .8.051 6.816 6.816 0 0 1 1.556.009 7.65 7.65 0 0 1 1.1.01c.74.122 1.6-.144 2.15.652a.8.8 0 0 0 .352.2 1.157 1.157 0 0 1 .788.768.5.5 0 0 0 .14.231c.4.369.8.728 1.194 1.1.1.092.158.226.257.319.134.126.275.3.437.331a1.274 1.274 0 0 1 .842.646 1 1 0 0 0 .43.3c.262.117.539.2.81.3.581.208 1.15.456 1.744.614.927.244 1.874.414 2.806.642.443.109.864.308 1.307.416.69.168 1.388.311 2.088.432a13.174 13.174 0 0 0 1.526.173c.334.017.671-.055 1.007-.063a.722.722 0 0 1 .721.972 4.94 4.94 0 0 1-.323.657 10.461 10.461 0 0 0-1.248 2.6c-.022.123-.142.229-.3.468l1.54.19c.377.046.757.077 1.131.141.3.051.555.229.9.051a.667.667 0 0 1 .611.213c.107.153.037.444.006.67-.026.189-.128.367-.161.555a5.276 5.276 0 0 1-.866 2.435 1.243 1.243 0 0 0-.148.756 3.145 3.145 0 0 1-.633 2.02 1.512 1.512 0 0 0-.159.528c-.1.43-.2.86-.279 1.294-.065.352-.1.71-.158 1.063a1.482 1.482 0 0 1-.175.653 2.966 2.966 0 0 0-.533 1.7.474.474 0 0 1-.01.091c-.31 1.087-.624 2.172-.929 3.259-.091.324-.153.656-.231.983q-.175.735-.353 1.469c-.83.2-1.029.439-1.1 1.307-.008.1-.021.182-.118.229a3.336 3.336 0 0 1-1.674-.171.657.657 0 0 1-.478-.462 6.132 6.132 0 0 0-.445-1.06.922.922 0 0 1-.121-.394 11.732 11.732 0 0 0-.416-2.481c-.11-.526-.085-1.07-.2-1.6-.105-.484-.229-.608-.707-.714a3.351 3.351 0 0 0-1.371.045 4.631 4.631 0 0 1-1.1.006 5.151 5.151 0 0 0-1.631.121 6.745 6.745 0 0 1-1.965.1.2.2 0 0 1-.132-.035c-.443-.412-.884-.261-1.407-.119a2.471 2.471 0 0 1-1.619-.184 3.284 3.284 0 0 0-.8-.147c-.99-.18-2.09-.058-2.885-.857a5.541 5.541 0 0 1-1.625-2.408c-.185-.671-.6-1.276-.766-1.968a1.174 1.174 0 0 1-.084-.542 1.973 1.973 0 0 0-.334-1.569 1.279 1.279 0 0 1-.1-.943 3.281 3.281 0 0 0-.111-1.458c-.069-.275-.2-.444-.526-.321a1.075 1.075 0 0 1-.5.058 33.65 33.65 0 0 0-3.567.061 12.389 12.389 0 0 1-1.786-.025.278.278 0 0 0-.137-.008 3.5 3.5 0 0 1-1.822.313c-.193-.029-.306.208-.328.392a5.337 5.337 0 0 1-.453 1.773.64.64 0 0 0-.014.409 3.993 3.993 0 0 1-.15 2.219.816.816 0 0 0-.035.364 12.47 12.47 0 0 1-.158 2.419c-.072.882-.37 1.713-.46 2.572a17.3 17.3 0 0 0-.068 2.479 1.4 1.4 0 0 1-.05.684 5.661 5.661 0 0 0-.316 2.623 1.638 1.638 0 0 1-.16.8.471.471 0 0 1-.609.268 2.7 2.7 0 0 1-.922-.408 1.456 1.456 0 0 0-1.163-.319c-.03 0-.07 0-.088-.018a1.677 1.677 0 0 0-1.669-.7c-.038.008-.078-.042-.107-.078" transform="translate(-7.218 -6.405)" style="fill:#1a1311"/>
        <path data-name="パス 73" d="M22.036 64.928c.3-.01.657-.121.9-.005a4.321 4.321 0 0 1 .885.749.741.741 0 0 1-.246 1.282c-.239.11-.445.275-.676.392a1.1 1.1 0 0 0-.028 1.85c.545.341 1.043.747 1.61 1.062a10.861 10.861 0 0 1 1.529 1.376 4.4 4.4 0 0 1 1.031 2.066c.2.511-.01 1.093.064 1.64.008.059-.034.132-.012.182a11.29 11.29 0 0 1 .471 2.347 2.273 2.273 0 0 1 .134.943 1.976 1.976 0 0 0 .077.774 2.5 2.5 0 0 1-.037 1.407.709.709 0 0 0 .123.652 2.821 2.821 0 0 1 .3 2.254 1.121 1.121 0 0 0 .01.542 9.454 9.454 0 0 0 .981 2.014.248.248 0 0 0 .317.115 4.972 4.972 0 0 1 2.087.2 8.5 8.5 0 0 1 1.939.544 1.353 1.353 0 0 1 .954 1.488 1.587 1.587 0 0 0 .153.979 1.674 1.674 0 0 1 .172.895c-.047.934-.1 1.868-.1 2.8a.773.773 0 0 1-.893.844 1.2 1.2 0 0 1-1.25-.7 10.245 10.245 0 0 1-.24-4.088 2.052 2.052 0 0 0-.351-.066c-.668-.024-1.336-.026-2-.061a1.283 1.283 0 0 1-.611-.171c-.592-.388-1.16-.813-1.738-1.221a1.889 1.889 0 0 1-.378-.255 2.466 2.466 0 0 1-.59-.835c-.193-.781-.283-1.588-.416-2.384a.517.517 0 0 0-.063-.215 2.562 2.562 0 0 1-.3-2.563 1.126 1.126 0 0 0-.085-.59c-.03-.114-.157-.209-.171-.322a8.583 8.583 0 0 1-.239-2.969c.027-.118-.048-.255-.058-.384a68.689 68.689 0 0 1-.081-1.3c-.01-.186-.009-.372-.017-.557-.035-.774-.555-1.5-.178-2.322.141-.305-.043-.482-.392-.449a2.125 2.125 0 0 1-1.837-.51c-.2-.191-.557-.206-.769-.388a9.052 9.052 0 0 1-.9-.977c-.089-.1-.12-.268-.223-.343a1.99 1.99 0 0 1-.689-1.725 1.4 1.4 0 0 0-.074-.4 1.16 1.16 0 0 1 .348-1.372c.091-.081.2-.228.189-.324-.157-.939.487-1.348 1.129-1.765.076-.05.16-.088.24-.132" transform="translate(-7.084 -22.933)" style="fill:#1a1311"/>
        <path data-name="パス 74" d="M71.335 65.983a1.072 1.072 0 0 1 1.135-1.439 2.512 2.512 0 0 1 1.437 2.756 6.445 6.445 0 0 1-2.7 4.419 1.923 1.923 0 0 0-1 1.6 7.253 7.253 0 0 1-.308 1.326.9.9 0 0 0 .036.388c.028.118.151.239.13.337-.231 1.082.228 2.32-.752 3.263a2.985 2.985 0 0 1 .183 2.339c-.111.629-.092 1.281-.14 1.923a1.329 1.329 0 0 1-.772 1.168 1.22 1.22 0 0 0-.431 1.254 1.851 1.851 0 0 1-.163 1.509 1.162 1.162 0 0 0-.148.428 1.656 1.656 0 0 1-1.142 1.475 10.458 10.458 0 0 1-3.294.8c-.261.022-.351.118-.426.365a2.229 2.229 0 0 0 .082 1.98 2.87 2.87 0 0 1 .166 1.073 1.2 1.2 0 0 1-.886 1.147c-.145.047-.289.1-.433.151a.43.43 0 0 1-.612-.311 5.459 5.459 0 0 1-.387-2.734 1.264 1.264 0 0 0-.074-.634 5.59 5.59 0 0 1-.257-1.12.823.823 0 0 0-.209-.453 1.219 1.219 0 0 1-.14-1.306 1.14 1.14 0 0 1 1.121-.672 3.024 3.024 0 0 0 1.371-.3 3.257 3.257 0 0 1 1.486-.263 2.251 2.251 0 0 0 .859-.13.858.858 0 0 0 .649-.7.755.755 0 0 1 .131-.343 6.064 6.064 0 0 0 .867-2.776 14.372 14.372 0 0 0 .354-2.547 2.041 2.041 0 0 1 .453-1.284.453.453 0 0 0 .061-.509 2.509 2.509 0 0 1-.024-1.657 10.14 10.14 0 0 1 .506-2.058 2.951 2.951 0 0 0 .085-1.178 3.419 3.419 0 0 1 .923-2.512 11.183 11.183 0 0 0 1.379-2.008c.069-.12.135-.24.213-.355a2.689 2.689 0 0 0 .673-2.411" transform="translate(-21.248 -22.812)" style="fill:#1a1311"/>
        <path data-name="パス 75" d="M64.9 198.521c.5-.026.929-.028 1.166.592.115.3.547.487.849.706.108.078.269.08.382.153a.563.563 0 0 0 .652 0 5.423 5.423 0 0 1 1.407-.363 8.936 8.936 0 0 1 1.162-.105c.774-.036 1.548-.044 2.322-.087.7-.039 1.391-.106 2.086-.164s1.329-.488 2.061-.273a1.086 1.086 0 0 0 .449-.055c.151-.028.319-.131.445-.092.938.285 1.857-.184 2.8-.036a1.317 1.317 0 0 1 .972 1.555c-.045.177-.118.346-.178.52l-.429.46c-.579.067-1.158.14-1.738.2-.247.024-.5.006-.746.016-.358.015-.716.04-1.075.053-.09 0-.2-.065-.268-.034-.738.345-1.483 0-2.222.043a6.332 6.332 0 0 0-.723.09c-1.027.184-2.047.435-3.082.542a8.107 8.107 0 0 1-2.493-.053 4.872 4.872 0 0 0-2.067-.125 4.7 4.7 0 0 1-2.025-.419.774.774 0 0 1-.368-.541c-.107-.582-.149-1.176-.216-1.766-.039-.51.266-.792.88-.815" transform="translate(-22.632 -70.177)" style="fill:#ff0"/>
        <path data-name="パス 76" d="M63.092 1.2c-.118.557-.253 1.111-.35 1.672-.109.63-.139 1.276-.286 1.9a6.518 6.518 0 0 1-.517 1.149c-.114.247-.241.489-.336.744a.6.6 0 0 1-1.1.228 2.4 2.4 0 0 1-.463-1.1 3.54 3.54 0 0 1 .125-2.112c.082-.261.19-.513.286-.77s.189-.48.269-.725c.173-.533.314-1.076.509-1.6a.886.886 0 0 1 1.046-.55c.475.112.709.5.7 1.145z" transform="translate(-21.187)" style="fill:#1a1311"/>
        <path data-name="パス 77" d="M48.544 4.839c-.032-.841-.1-1.683-.081-2.524a5.652 5.652 0 0 1 .253-1.439A1.007 1.007 0 0 1 49.8.2a1.03 1.03 0 0 1 .941.929c.059.981.062 1.964.091 2.946a.774.774 0 0 0 .047.268 1.5 1.5 0 0 1-.4 1.646.829.829 0 0 1-1.085.22 1.546 1.546 0 0 1-.851-1.371" transform="translate(-17.132 -.069)" style="fill:#1a1311"/>
        <path data-name="パス 78" d="M41.769 6.724a1.294 1.294 0 0 1-.784 1.315 1.2 1.2 0 0 1-1.356-.422.8.8 0 0 1-.179-.317 25.919 25.919 0 0 0-1.031-2.771 3.121 3.121 0 0 1 .376-2.172c.169-.348.484-.342.776-.106a4.364 4.364 0 0 1 1.654 3.061 2.333 2.333 0 0 0 .206.593c.129.324.266.645.339.82" transform="translate(-13.556 -.736)" style="fill:#1a1311"/>
        <path data-name="パス 79" d="M58.348 57.289a1.073 1.073 0 0 1 .059 1.392c-.776 1.208-1.454 2.49-2.329 3.62a3.7 3.7 0 0 0-.793 2.362c0 .182-.021.365-.005.545a3.206 3.206 0 0 1-.349 1.31 9.412 9.412 0 0 0-.349 2.319 3.06 3.06 0 0 0 .3.983 2.736 2.736 0 0 0-.7 1.938c-.114 1.048-.331 2.084-.507 3.124a3.193 3.193 0 0 1-.133.582c-.116.307-.259.6-.4.9-.071.152-.215.29-.23.444-.09.9-.785.994-1.453 1.1a9.409 9.409 0 0 0-1.361.161 5.626 5.626 0 0 1-1.991.433.86.86 0 0 0-.8.665 1.12 1.12 0 0 0 .2 1.082 2.134 2.134 0 0 1 .257.635c.059.189.078.39.126.582a1.99 1.99 0 0 1 .074 1.431.7.7 0 0 0 .008.4c.119.551.284 1.094.366 1.65a.623.623 0 0 0 .573.6c-.176.314-.361.624-.527.943-.39.755-.757 1.522-1.163 2.269-.133.244-.393.417-.533.659-.295.508-.536 1.047-.824 1.561a38.9 38.9 0 0 1-1.143 1.943c-.557.874-1.142 1.73-1.723 2.589-.542.8-1.112.789-1.606-.05-.379-.643-.707-1.315-1.1-1.951-.592-.971-1.211-1.926-1.829-2.881-.436-.674-.889-1.336-1.334-2-.008-.013-.013-.031-.024-.039-.725-.512-.852-1.4-1.321-2.076-.251-.359-.56-.678-.843-1.016.619-.18.753-.455.742-1.137-.014-.873.076-1.747.069-2.62a4.6 4.6 0 0 0-.24-.96 1.517 1.517 0 0 1-.078-.521c.135-1.027-.04-1.384-1.015-1.663a38.327 38.327 0 0 0-3.1-.737 3.9 3.9 0 0 0-1.065.1c-.35-.76-.727-1.546-1.069-2.347a1.008 1.008 0 0 1 .01-.558 2.69 2.69 0 0 0-.257-2.08c-.2-.317-.365-.6-.131-.968a.423.423 0 0 0 .065-.265 8.873 8.873 0 0 0-.425-2.906.925.925 0 0 1-.014-.389c0-.243.091-.527 0-.721a5.021 5.021 0 0 1-.3-2.519.931.931 0 0 0-.047-.317 6.4 6.4 0 0 0-.423-1.232 5.863 5.863 0 0 0-.836-1 3.992 3.992 0 0 0-.6-.558c-.678-.487-1.352-.983-2.06-1.422a1.529 1.529 0 0 1-.721-1.787c.046-.123.213-.207.332-.3a6.667 6.667 0 0 1 .639-.448 7.786 7.786 0 0 1 .709-.325L25 56.861a.953.953 0 0 1 .995.059 8.317 8.317 0 0 0 1.224.593.453.453 0 0 0 .415-.149 1.472 1.472 0 0 0 .167-.652c.02-.552 0-1.105 0-1.659 0-.137-.031-.307.036-.407a4.273 4.273 0 0 0 .347-2.327 6.8 6.8 0 0 1 .338-2.7 1.557 1.557 0 0 0 .112-.491 12.264 12.264 0 0 0 .248-2.53c-.08-.837.251-1.588.228-2.389-.009-.315-.069-.63-.069-.945a3.581 3.581 0 0 1 .085-.764c.1-.438.26-.866.319-1.308.083-.626.273-.761.9-.7a3.3 3.3 0 0 0 1-.182c.112-.026.215-.143.32-.14.608.016 1.217.1 1.822.076.9-.032 1.789-.131 2.683-.2.076-.006.162-.05.223-.026a2.315 2.315 0 0 0 1.847-.08 4.4 4.4 0 0 1 .292 2.23 1.983 1.983 0 0 0 .3 1.108 1.879 1.879 0 0 1 .182.995 5.1 5.1 0 0 0 .292 1.552 12.974 12.974 0 0 0 .654 1.638 3.791 3.791 0 0 0 .6.971c.5.545.9 1.253 1.679 1.428.729.166 1.49.19 2.236.284.13.017.253.076.383.1a10.553 10.553 0 0 0 1.652.3c.295.012.6-.235.917-.372.782.795 1.728.61 2.69.344a2.779 2.779 0 0 1 .443-.047c.283-.03.564-.063.847-.093a1.826 1.826 0 0 1 .265-.019c.389.017.777.054 1.166.059a13.049 13.049 0 0 1 1.63.011.853.853 0 0 1 .568.549c.192 1.045.285 2.108.456 3.158a11.611 11.611 0 0 0 .432 1.767c.133.4.29.973.594 1.1a6.853 6.853 0 0 0 1.831.279" transform="translate(-8.26 -14.118)" style="fill:#fefefe"/>
        <path data-name="パス 80" d="m56.612 174.684.092 1.537a.568.568 0 0 1-.44.071 6.515 6.515 0 0 0-1.9.2.923.923 0 0 0-.729.925.888.888 0 0 0 .837.822 6.758 6.758 0 0 0 1.372-.03.774.774 0 0 1 .494.014c0 .843-.151.992-.994 1.1a5.165 5.165 0 0 0-.873.27c-.445-.359-1.02-.238-1.517-.407a.654.654 0 0 0-.531.1 1.978 1.978 0 0 1-1.149.242c-.476-.027-.928.218-1.41.174a5.241 5.241 0 0 0-2.134.144 1.211 1.211 0 0 1-.682-.047 10.329 10.329 0 0 1-1.295-.162 3.259 3.259 0 0 0-.433-1.843.637.637 0 0 1-.091-.21c-.206-.98-.381-1.968-.623-2.939-.143-.571-.409-1.109-.587-1.673-.123-.389-.184-.8-.285-1.194-.133-.52-.279-1.037-.419-1.555a.269.269 0 0 1 .073-.208 1.751 1.751 0 0 0 .52-1.38 7.084 7.084 0 0 0 1.691-2.023.32.32 0 0 1 .087-.106c.64-.5 1.257-1.035 1.928-1.491.6-.4 1.2-.094 1.786.131.2.079.4.17.612.24.454.154.977.163 1.276.641a.287.287 0 0 0 .272.065 1.738 1.738 0 0 1 1.624.137 4.494 4.494 0 0 0 1.658.552.679.679 0 0 1 .5.911c-.133.317-.333.6-.491.912a1.821 1.821 0 0 0-.1.339c-.162.168-.349.066-.517.032a8.044 8.044 0 0 0-2.315-.282 16.991 16.991 0 0 1-1.992-.052 1.215 1.215 0 0 0-1.184.781 1.153 1.153 0 0 0 .742 1.16 20.528 20.528 0 0 0 2.537.453 1.4 1.4 0 0 1 1.682.133.824.824 0 0 0 .795-.06 1.636 1.636 0 0 0 1.1-1.216c.663.127 1.325.264 1.991.375a.538.538 0 0 1 .521.515 2.908 2.908 0 0 1 .151 1.332c-.174.636-.4.868-1.033.939a.255.255 0 0 1-.2-.1 1.439 1.439 0 0 0-1.66-.453 6.56 6.56 0 0 1-1.082.2.9.9 0 0 0-.859.959.894.894 0 0 0 .913.8c.759.032 1.5.213 2.265.215" transform="translate(-15.312 -58.267)" style="fill:#fefdfc"/>
        <path data-name="パス 81" d="M55.578 195.457c-.4.161-.8.308-.88.815-.469.135-.933.289-1.407.4-.55.131-1.114.207-1.662.343-.508.127-1 .317-1.507.451-.619.164-1.235.525-1.89.265a14.241 14.241 0 0 1-1.447-.775c-.667-.358-1.321-.744-2.007-1.06-.795-.366-1.628-.648-2.429-1-1.258-.555-2.5-1.142-3.754-1.711-.315-.144-.635-.274-.954-.41a.843.843 0 0 1 .358-.75l1.52-.867a1.671 1.671 0 0 1 1.023.352 1.087 1.087 0 0 0 .787.173.938.938 0 0 1 .583.071.645.645 0 0 0 .217.074 1.882 1.882 0 0 1 1.577.78 4.059 4.059 0 0 0 2.994 1.276 1.2 1.2 0 0 0 1.246-.592.568.568 0 0 0 .006-.683 1.681 1.681 0 0 0-.95-.753 9.834 9.834 0 0 1-1.164-.432.549.549 0 0 1-.369-.432c-.061-.391.114-.591.482-.467a6 6 0 0 0 2.368.128c.2-.014.4.037.6.032a1.54 1.54 0 0 0 1.115-.474 1.035 1.035 0 0 1 1.044-.321 2.3 2.3 0 0 0 1.383-.043c.541.09 1.082.185 1.625.268a4.393 4.393 0 0 0 .489.022c.042.018.094.04.106.08a4.052 4.052 0 0 0 .787 1.235c-.015.527-.056 1.055-.037 1.581.028.809.1 1.616.15 2.424" transform="translate(-13.307 -67.114)" style="fill:#fefdfc"/>
        <path data-name="パス 82" d="M34.518 168.34c.324.724-.131 1.158-.593 1.588a8.656 8.656 0 0 0-1.864.595 14.488 14.488 0 0 1-2.359.821c-.438.165-.832.445-1.255.654-1.013.5-2.034.987-3.048 1.489-.491.244-.955.543-1.457.761a10.541 10.541 0 0 0-2.045 1.007c-.1.07-.275.012-.4.05a3.455 3.455 0 0 0-.648.251c-.4.215-.777.478-1.185.679a7.349 7.349 0 0 1-.95.332 1.246 1.246 0 0 1-1.555-.634 6.843 6.843 0 0 1-.293-.624 1.136 1.136 0 0 1 .469-1.476c.177-.114.323-.22.173-.429-.492-.68-.084-1.4-.084-2.092a4.737 4.737 0 0 1 .2-.937c.1-.469.376-.991.259-1.4a6.817 6.817 0 0 1 .155-2.9 10.082 10.082 0 0 1 .377-1.484.911.911 0 0 1 .976-.608.938.938 0 0 1 .8.884c0 .65.018 1.3-.017 1.95a4.069 4.069 0 0 1-.486 2.25c-.147.215-.092.573-.12.867-.068.729-.116 1.46-.2 2.187-.047.4-.149.8-.241 1.281.465-.153 1.008.081 1.365-.479a.937.937 0 0 1 .639-.4 2.394 2.394 0 0 0 1.211-.549 9.058 9.058 0 0 1 1.232-.484c1.066-.46 2.12-.948 3.19-1.4.394-.166.829-.226 1.227-.384a9.938 9.938 0 0 0 1-.524c.709-.38 1.415-.767 2.126-1.142.187-.1.406-.14.587-.248a2.015 2.015 0 0 1 2.631.418.909.909 0 0 0 .187.125" transform="translate(-5.924 -57.969)" style="fill:#ff0"/>
        <path data-name="パス 83" d="M64.717 182.793c-.592-.239-.73-.786-.893-1.316a1.92 1.92 0 0 1 .392-1.555.474.474 0 0 0 .14-.235.933.933 0 0 1 .764-.9 1.76 1.76 0 0 1 1.2-.081.84.84 0 0 0 .436-.027q.6-.121 1.193-.267a1 1 0 0 0 .368-.147 1.624 1.624 0 0 1 1.733-.219c.121.05.336.074.411.005a5.4 5.4 0 0 1 2.548-.944 3.725 3.725 0 0 1 1.883-.224 1 1 0 0 0 .632-.23 2.106 2.106 0 0 1 1.963-.326.683.683 0 0 0 .465-.074c.393-.19.772-.41 1.219-.654l-.07-.306a2.022 2.022 0 0 1-.139-.671 9.811 9.811 0 0 0-.409-3.161 10.013 10.013 0 0 1-.06-1.185 3.354 3.354 0 0 0-.037-.4c-.021-.12-.118-.252-.088-.352.248-.844-.249-1.622-.2-2.439a3.671 3.671 0 0 1 .264-1.29.988.988 0 0 1 .721-.434.671.671 0 0 1 .711.6c.115.751.186 1.51.289 2.263a4.164 4.164 0 0 0 .161.6 2.126 2.126 0 0 1 .094.209c.235 1.334.461 2.669.7 4 .054.3.157.582.228.875.076.308.158.617.206.93.1.647.162 1.3.27 1.947a2.093 2.093 0 0 1-.319 1.583.893.893 0 0 1-1.435.087c-.209-.21-.389-.326-.676-.194a.347.347 0 0 1-.226.022 2.064 2.064 0 0 0-1.843.463 2.188 2.188 0 0 1-1.153.164 1.9 1.9 0 0 0-1.2.355 2.578 2.578 0 0 1-.9.281c-.385.09-.778.153-1.166.229a3.038 3.038 0 0 1-.629.126c-1.093-.025-2.184-.091-3.276-.105a5.928 5.928 0 0 0-1.546.13 16.36 16.36 0 0 0-1.813.689c.122.661.326 1.31-.144 1.841-.167.189-.506.227-.766.334" transform="translate(-22.558 -58.456)" style="fill:#ff0"/>
        <path data-name="パス 84" d="M39.152 122.732a1.117 1.117 0 0 1-1.186.193 1.061 1.061 0 0 0-1.206.3 1.577 1.577 0 0 1-1.4.446c-.344-.038-.7.043-1.049.026-.663-.032-1.325-.1-2.02-.149-.176.36-.052.61.412.731.3.076.57.253.867.3a1.849 1.849 0 0 1 1.262.982.624.624 0 0 1-.008.537c-.44.76-.932.934-1.924.734-.359-.072-.72-.136-1.076-.226a1.3 1.3 0 0 1-.548-.222c-.484-.432-.934-.9-1.407-1.348a.687.687 0 0 0-.328-.145c-.354-.07-.711-.122-1.067-.184-.088-.016-.193-.089-.256-.061-.5.227-.877-.029-1.272-.29a4.25 4.25 0 0 0-.737-.313 6.139 6.139 0 0 1 0-1.011c.066-.417.427-.535.789-.528.479.01.957.076 1.435.119.418.032.745.34 1.162.38.156.015.327.172.456-.014a.5.5 0 0 0-.019-.522c-.107-.217-.263-.421-.112-.678l.513-.419c.479.025.959.057 1.438.073a7.6 7.6 0 0 0 .723-.021c.664-.042 1.332-.061 1.991-.143a7.054 7.054 0 0 0 2.7-.461c.129-.071.339-.006.51.014s.343.125.487.086a.738.738 0 0 1 .866.409 1.731 1.731 0 0 1 0 1.4"/>
        <path data-name="パス 85" d="m30.1 192.61-.358.751c-.134.1-.275.286-.4.276-.848-.07-1.371.653-2.113.833a1.3 1.3 0 0 0-.447.3 5.205 5.205 0 0 1-.731.62 10 10 0 0 1-3 1.334.725.725 0 0 0-.386.275 1.712 1.712 0 0 1-1.583.734 1.985 1.985 0 0 0-1.064.445 5 5 0 0 1-2.037.908 1.153 1.153 0 0 0-.555.353 1.164 1.164 0 0 1-1.8.113c-.451-.318-.418-.994-.086-1.574a2.36 2.36 0 0 1 1.264-.911c.764-.336 1.595-.518 2.386-.8.418-.147.877-.213 1.139-.683A1.334 1.334 0 0 1 21.47 195a2.007 2.007 0 0 0 .617-.287 1.634 1.634 0 0 1 .462-.235c.618-.074 1.259-.033 1.7-.623.091-.12.356-.092.507-.187.63-.4 1.223-.855 1.878-1.2.341-.18.809-.107 1.171-.263.346-.149.6-.524.945-.659a.99.99 0 0 1 1.166.6c.069.149.121.306.18.46" transform="translate(-5.407 -67.7)" style="fill:#ff0"/>
        <path data-name="パス 86" d="M40.295 111.629c.094.859-.592 1.067-1.156 1.36a1.171 1.171 0 0 1-1.314-.255.628.628 0 0 0-.551-.049 1.475 1.475 0 0 1-1.489.025 1.159 1.159 0 0 0-.613-.092 1.713 1.713 0 0 1-1.788-.946.734.734 0 0 1 .2-.989 1.816 1.816 0 0 1 1.812-.344 2.064 2.064 0 0 0 .615.039c.621.005 1.244-.032 1.861.018a15.542 15.542 0 0 1 1.574.284l.852.95"/>
        <path data-name="パス 87" d="M41.301 116.417c-.544-.03-1.089-.063-1.633-.089a3.225 3.225 0 0 0-.454.011 1.018 1.018 0 1 1-.107-2.014 2.48 2.48 0 0 0 .667-.118 1.675 1.675 0 0 1 2.151.583c.318.744-.155 1.185-.624 1.627"/>
        <path data-name="パス 88" d="M41.022 119.957c-.588.055-1.175.129-1.764.16a1.016 1.016 0 0 1-.176-2.022c.767-.073 1.54-.1 2.31-.14a.906.906 0 0 1 .657.846.975.975 0 0 1-.635.923c-.136.068-.261.155-.392.234"/>
        <path data-name="パス 89" d="M45.478 188.389a2.88 2.88 0 0 0 .18.546.88.88 0 0 1-.062.984l-1.606-.7a2.838 2.838 0 0 1 1.488-.833" transform="translate(-15.551 -66.599)" style="fill:#f2edea"/>
        <path data-name="パス 90" d="M49.754 83.629c.039.02-.044 0-.092-.051-.654-.69-1.455-.476-2.245-.391a3.76 3.76 0 0 1-1.078-.011 1.154 1.154 0 0 0-1.142.3.964.964 0 0 0-.164 1.151.66.66 0 0 1 .09.255 3.289 3.289 0 0 0 1.819 2.8 8.457 8.457 0 0 1 1.036.94c.337.329.65.681.984 1.014a1.376 1.376 0 0 0 2.093-.111 3.8 3.8 0 0 0 1.116-1.964c.015-.1.151-.179.233-.267a2.05 2.05 0 0 0 .676-1.311 5.34 5.34 0 0 1 .391-1.114 2.944 2.944 0 0 0 .15-.851.891.891 0 0 0-.9-.967 9.342 9.342 0 0 0-1.778.089 5.879 5.879 0 0 0-1.189.494" transform="translate(-15.878 -29.355)" style="fill:#1a1311"/>
        <path data-name="パス 91" d="M53.038 72.653c-.142-.229-.273-.446-.409-.661-.066-.1-.186-.2-.2-.3-.167-1.1-1.1-1.815-1.39-2.848a5.289 5.289 0 0 0-.19-.7c-.187-.427-.417-.834-.614-1.257a1.682 1.682 0 0 1-.235-.693.907.907 0 0 1 .286-.683.849.849 0 0 1 .729.12 2.5 2.5 0 0 1 .622.732q.842 1.343 1.639 2.713a4.448 4.448 0 0 1 .266.729c.036.1.052.226.122.286a5.882 5.882 0 0 1 1.324 2.422c.334.756.07 1.213-.724 1.468-.085.027-.2.052-.242.116a3.16 3.16 0 0 1-1.387.851 3.336 3.336 0 0 0-.678.462 1.632 1.632 0 0 1-1.512.336.627.627 0 0 1-.475-.815 1.67 1.67 0 0 1 1.083-1.168 3.6 3.6 0 0 0 .619-.285c.433-.25.858-.515 1.369-.824" transform="translate(-17.653 -23.144)" style="fill:#1a1311"/>
        <path data-name="パス 92" d="M41.374 67.643a1.752 1.752 0 0 1-1.8 1.707 2.472 2.472 0 0 1-1.56-1.564A1.8 1.8 0 0 1 39.63 66.1a1.718 1.718 0 0 1 1.744 1.541" transform="translate(-13.439 -23.368)" style="fill:#1a1311"/>
        <path data-name="パス 93" d="M63.881 67.289c.02 1.1-.537 1.846-1.38 1.855a1.827 1.827 0 0 1-1.535-1.828A1.807 1.807 0 0 1 62.206 66c1.315-.069 1.5.462 1.675 1.293" transform="translate(-21.552 -23.328)" style="fill:#1a1311"/>
        <path data-name="パス 94" d="m48.1 85.965 2.761 2.572c1.06-.491 1.207-1.526 1.665-2.389a2.9 2.9 0 0 1-.55-.065c-.255-.078-.492-.213-.745-.3-.135-.046-.347-.113-.422-.05a2.491 2.491 0 0 1-2.437.239 1.862 1.862 0 0 0-.273-.008" transform="translate(-17.005 -30.299)" style="fill:#fefefe"/>
        <path data-name="交差 1" d="M58.837 60.553c-.07-.164.014-.314.053-.469a1.131 1.131 0 0 0-1.119-1.475 3.8 3.8 0 0 0-1.459.126.287.287 0 0 1-.18.023 2.6 2.6 0 0 0-1.024-.034 3.606 3.606 0 0 1-.7.027 6.62 6.62 0 0 0-1.983.3 10.781 10.781 0 0 1-2.241.138 7.23 7.23 0 0 0-2.681.244.871.871 0 0 1-.455.039 2.554 2.554 0 0 0-1.69.3.767.767 0 0 1-.7.031 2.224 2.224 0 0 1-1.458-1.167c-.089-.211-.294-.251-.494-.289-.177-.033-.374-.008-.517-.156a.409.409 0 0 1-.074-.216 30.116 30.116 0 0 1-.02-3.712.318.318 0 0 1 .139-.115 1.19 1.19 0 0 0 .846-1.507c-.093-.611-.072-.636.482-.921a5.243 5.243 0 0 1 3.616-.526 1.3 1.3 0 0 0 .771-.032.916.916 0 0 1 .588 0 2.446 2.446 0 0 0 1.006.073 10.69 10.69 0 0 0 2.42-.5 6.118 6.118 0 0 1 2.424-.534 1.085 1.085 0 0 0 .694-.336 1.117 1.117 0 0 1 1.1-.3.961.961 0 0 0 .412.013 1.254 1.254 0 0 1 1.1.292.8.8 0 0 0 1.221-.273 1.761 1.761 0 0 0 .208-1.335 8.891 8.891 0 0 1-.242-2.1.928.928 0 0 0-.073-.451 8.909 8.909 0 0 1-.572-2.963c-.073-.455-.2-.895-.31-1.34a7.922 7.922 0 0 1-.428-2.053 6.948 6.948 0 0 0-.312-1.949.663.663 0 0 0-.636-.515.615.615 0 0 0-.626.51 3.4 3.4 0 0 0-.037 2.215.84.84 0 0 1 .091.4c-.127.658.105 1.307.037 1.963a3.3 3.3 0 0 0 .121 1 10.472 10.472 0 0 1 .4 3 1.933 1.933 0 0 0 .117.724.419.419 0 0 1-.313.6 1.268 1.268 0 0 0-.462.2 1.405 1.405 0 0 1-1.416.259 1.573 1.573 0 0 0-1.265.307 1.8 1.8 0 0 1-1.4.305 1.255 1.255 0 0 0-.681.064 8.27 8.27 0 0 1-1.7.415 1.9 1.9 0 0 0-.937.366 1.4 1.4 0 0 1-1.5.231 1.118 1.118 0 0 0-.963.2 1.73 1.73 0 0 1-.908.286 1.292 1.292 0 0 0-.578.143 1.454 1.454 0 0 1-1.067.09 1.329 1.329 0 0 0-1.248.451l-.141-6.069A1.334 1.334 0 0 0 42.8 42.8c-.169-.529-.367-.793-.781-.909l-.95-40.824A1.082 1.082 0 0 0 41.855.2.328.328 0 0 1 41.9.079L42.616 0a4.585 4.585 0 0 1 2.063.518.463.463 0 0 0 .234.024.754.754 0 0 1 .174 0c.326.06.649.128.972.2.515.118 1.025.255 1.543.362.416.085.845.116 1.258.21a1.528 1.528 0 0 1 .614.286 1.094 1.094 0 0 0 1.187.217 1.527 1.527 0 0 1 1.065-.01 10.521 10.521 0 0 1 2.143.893c.206.11.491.061.71.155.529.226 1.021.552 1.563.729a5.548 5.548 0 0 1 1.721 1.046 11.033 11.033 0 0 1 1.529 1.67 7.179 7.179 0 0 1 .961 1.131 2 2 0 0 1 .26 1.521 3.149 3.149 0 0 1 1.187 1.69c.195.529.358 1.068.537 1.6.049.145.161.3.142.432a5.561 5.561 0 0 0 .638 2.5c.044.143.01.311.056.452.1.3.219.587.335.879a16.921 16.921 0 0 1 .651 1.646c.261.925.4 1.884.684 2.8a1.433 1.433 0 0 1-.177 1.505c-.067.079-.094.305-.04.353a4.086 4.086 0 0 1 1.108 2.348c.187.855.5 1.683.684 2.539.119.562.1 1.155.162 1.73a1.517 1.517 0 0 0 .206.625 1.609 1.609 0 0 1 .174 1.451 1.045 1.045 0 0 0 .149.947 5.217 5.217 0 0 1 .372 1.01 2.608 2.608 0 0 0 .188.546 2.006 2.006 0 0 1 .306 1.662 1.074 1.074 0 0 0 .241 1.072 1.13 1.13 0 0 1 .276.515 17.349 17.349 0 0 1 .4 2.282 13.835 13.835 0 0 1 .2 3.524 6.956 6.956 0 0 0 .2 1.8c.035.357.013.72.023 1.079a5.806 5.806 0 0 0 .05.879c.089.489.241.966.33 1.454a5.807 5.807 0 0 1 .17 1.493 4.754 4.754 0 0 0 .067 1.761 2.062 2.062 0 0 1-.588 2.281.41.41 0 0 0-.11.328 2.422 2.422 0 0 1-.859 1.943c-.14.17-.208.4-.334.58-.169.246-.368.47-.546.708a3.253 3.253 0 0 0-.554.8 1.951 1.951 0 0 1-1.534 1.228 8.558 8.558 0 0 0-2.157.545 3.432 3.432 0 0 1-1.025.189 9.066 9.066 0 0 0-1.14.275 6.534 6.534 0 0 1-.507.155zm-56.758 0-.02-.03a.542.542 0 0 0-.2-.184 1.356 1.356 0 0 1-.759-1.216 9.091 9.091 0 0 0-.342-1.085c-.194-.749-.373-1.5-.532-2.258a2.609 2.609 0 0 1-.015-.732 7.106 7.106 0 0 0-.176-2.618 1.078 1.078 0 0 1 .027-.63 5.052 5.052 0 0 0 .2-1.971 30.137 30.137 0 0 1 .173-3.148c.008-.134-.026-.27-.031-.4a1.541 1.541 0 0 1 0-.632 4.405 4.405 0 0 0 .153-2.205A17.865 17.865 0 0 1 .68 41.17c.011-.168.04-.335.046-.5.032-.841.035-1.682.1-2.519a6.819 6.819 0 0 1 .282-1.008 2.725 2.725 0 0 0 .151-.925 3.018 3.018 0 0 1 .255-2.137.748.748 0 0 0 .035-.493 6 6 0 0 1 .492-2.908 1.163 1.163 0 0 0 .079-.309c0-.556-.043-1.117.006-1.67a5.112 5.112 0 0 1 .3-1.329 9.646 9.646 0 0 0 .332-2.42c.074-.679.244-1.347.374-2.021.031-.164.071-.327.108-.49.156-.675.315-1.348.467-2.025.053-.236.068-.481.129-.716.311-1.194.632-2.388.944-3.582a.525.525 0 0 0 .007-.316A2.162 2.162 0 0 1 5 14.069c.269-.663.586-1.306.9-1.948a8.919 8.919 0 0 1 .486-.77 2.723 2.723 0 0 0 .3-.51 7.5 7.5 0 0 1 1.573-2.605A7.525 7.525 0 0 0 9.1 6.99a6.123 6.123 0 0 1 1.909-1.619 4.987 4.987 0 0 0 .7-.635 1.007 1.007 0 0 1 .9-.357.748.748 0 0 0 .4-.018c.911-.511 1.787-1.093 2.726-1.545a12.111 12.111 0 0 1 1.947-.584.206.206 0 0 1 .086 0 .143.143 0 0 0 .1 0 4.85 4.85 0 0 1 1.853-.458c.549-.122 1.114-.175 1.668-.281a6.67 6.67 0 0 0 .812-.238c.1-.032.189-.117.288-.131.853-.106 1.707-.191 2.558-.31.142-.019.267-.165.4-.252a3.988 3.988 0 0 0 .368.3v38.924a13.858 13.858 0 0 0-2.284 1.164c-1.5 1.012-3.322 1.245-4.852 2.158a8.113 8.113 0 0 1-1.679.639.921.921 0 0 0-.133.039 6.5 6.5 0 0 1-1.934.878.53.53 0 0 0-.315.259c-.287.458-.761.4-1.193.445-.241.023-.324-.125-.272-.357a16.357 16.357 0 0 0 .335-2.41 1.576 1.576 0 0 0 .025-.366 3.31 3.31 0 0 1 .4-1.846 5.267 5.267 0 0 0 .224-2.5 4.01 4.01 0 0 1-.009-.916.8.8 0 0 0-.716-.947.744.744 0 0 0-.833.775c-.019.6-.38 1.089-.447 1.68a4.668 4.668 0 0 0-.05 2.267.846.846 0 0 1-.009.547 14.271 14.271 0 0 0-.573 2.925 1.478 1.478 0 0 0 .111.94.472.472 0 0 1-.156.677 1.065 1.065 0 0 0-.357 1.461c.046.113.1.226.149.336a1.172 1.172 0 0 0 1.589.69 4.479 4.479 0 0 0 2.124-1.042.641.641 0 0 1 .511-.175 1.5 1.5 0 0 0 1.189-.508.682.682 0 0 1 .264-.18c1.744-.59 3.319-1.553 5.013-2.256a5.356 5.356 0 0 0 .855-.543 6.045 6.045 0 0 1 1.257-.529 10.436 10.436 0 0 0 2.427-.951 2.336 2.336 0 0 1 1.575-.306.465.465 0 0 1 .176.312 26.313 26.313 0 0 0 .649 2.62 7.125 7.125 0 0 0 .368.988c.289.634.206 1.361.469 2s.284 1.358.6 2a2.218 2.218 0 0 1 .188 1.479c-.135.2-.356.3-.514.472a8.938 8.938 0 0 0-1.606.87 1.936 1.936 0 0 1-.687-.034 1.962 1.962 0 0 0-.683-.037c-.575.1-.772.3-.728.889a1.149 1.149 0 0 1-.033.545q-.026.029-.054.057l-1.545.826c-.14-.081-.15-.247-.21-.38a.922.922 0 0 0-1.572-.321 1.357 1.357 0 0 1-1.008.431 2.4 2.4 0 0 0-1.393.742 3.331 3.331 0 0 1-1.049.647 2.622 2.622 0 0 0-.752.427 1.937 1.937 0 0 1-1.254.379.785.785 0 0 0-.723.315.644.644 0 0 1-.571.241 1.351 1.351 0 0 0-1.2.637 1.622 1.622 0 0 1-1.185.628 9.205 9.205 0 0 0-3.07 1.191 1.421 1.421 0 0 0-.61.793z" transform="translate(0 70.119)" style="stroke:transparent;stroke-miterlimit:10;fill:#070707"/>
    </g>
    <path data-name="パス 214" d="m1836.419 219.058-1.475 9.094-6.144-7.865 7.619-3.687z" transform="translate(-1809.381 -148.274)" style="fill:#070707"/>
    <path data-name="パス 215" d="m1828.8 219.058 1.475 9.094 6.144-7.865-7.619-3.687z" transform="translate(-1788.49 -148.274)" style="fill:#070707"/>
    <path data-name="パス 220" d="M29.1 68.887c.719.266.537.737.221 1.563-.376.982-.744 1.967-1.156 2.934-.256.6-.59 1.165-.889 1.745-.051.1-.147.195-.145.29a1.989 1.989 0 0 1-.582 1.4c-.258.291-.274.542.122.728.3.142.593.294.889.44.029.015.063.019.09.036.7.419 1.423.812 2.1 1.268.5.334.473.836.179 1.365-.384.689-.659 1.439-1 2.153a3.08 3.08 0 0 1-.479.719c-.482.531-.564 1.4-1.394 1.637a.132.132 0 0 0-.076.057c-.324.624-.654 1.244-.958 1.877a.44.44 0 0 0 .046.4 9.76 9.76 0 0 1 1.671 2.71 1.184 1.184 0 0 0 .295.308c.118.11.28.191.358.324.575.984 1.134 1.977 1.7 2.968a.69.69 0 0 0 .039.089c.41.55.847 1.082 1.224 1.653s.7 1.186 1.043 1.781c.182.4-.146.587-.356.806a.47.47 0 0 1-.691.091c-.493-.52-1.007-1.021-1.472-1.565a3.556 3.556 0 0 1-.743-1.131c-.282-.881-1.064-1.426-1.412-2.217-.321-.732-.965-1.292-1.053-2.161-.031-.311-.4-.616-.663-.871a8.533 8.533 0 0 1-1.555-2.545 1.33 1.33 0 0 1 .378-1.661c.458-.469.913-.941 1.358-1.424.068-.074.072-.208.1-.315.041-.139.037-.321.126-.413a8.1 8.1 0 0 0 1.118-1.781 5.954 5.954 0 0 1 .826-.939c.251-.277.252-.49-.116-.682a13.817 13.817 0 0 1-1.369-.8c-.339-.23-.632-.528-.949-.79a.692.692 0 0 0-.214-.113 1.662 1.662 0 0 1-.874-2.74c.348-.481.736-.935 1.055-1.433a8.308 8.308 0 0 0 .53-1.113c.389-.864.711-1.765 1.181-2.581a6.607 6.607 0 0 0 .764-1.424l.738-.641" transform="translate(-8.313 5.215)" style="fill:#ff0"/>
    <path data-name="パス 221" d="M27.635 68.887c-.719.266-.537.737-.221 1.563.376.982.744 1.967 1.156 2.934.256.6.59 1.165.889 1.745.051.1.147.195.145.29a1.989 1.989 0 0 0 .582 1.4c.258.291.274.542-.121.728-.3.142-.593.294-.889.44-.029.015-.063.019-.09.036-.7.419-1.423.812-2.1 1.268-.5.334-.473.836-.179 1.365.384.689.659 1.439 1 2.153a3.08 3.08 0 0 0 .479.719c.482.531.564 1.4 1.394 1.637a.132.132 0 0 1 .076.057c.324.624.654 1.244.958 1.877a.44.44 0 0 1-.046.4A9.76 9.76 0 0 0 29 90.209a1.184 1.184 0 0 1-.295.308c-.118.11-.28.191-.358.324-.575.984-1.134 1.977-1.7 2.968a.691.691 0 0 1-.039.089c-.41.55-.847 1.082-1.224 1.653s-.7 1.186-1.043 1.781c-.182.4.146.587.356.806a.47.47 0 0 0 .691.091c.493-.52 1.007-1.021 1.472-1.565a3.556 3.556 0 0 0 .743-1.131c.282-.881 1.064-1.426 1.412-2.217.321-.732.965-1.292 1.053-2.161.031-.311.4-.616.663-.871a8.533 8.533 0 0 0 1.555-2.545 1.33 1.33 0 0 0-.378-1.661 67.684 67.684 0 0 1-1.358-1.424c-.068-.074-.072-.208-.1-.315-.041-.139-.037-.321-.126-.413a8.1 8.1 0 0 1-1.118-1.781 5.954 5.954 0 0 0-.826-.939c-.251-.277-.252-.49.116-.682a13.817 13.817 0 0 0 1.369-.8c.339-.23.632-.528.949-.79a.692.692 0 0 1 .214-.113 1.662 1.662 0 0 0 .874-2.74c-.348-.481-.736-.935-1.055-1.433a8.308 8.308 0 0 1-.53-1.113c-.389-.864-.711-1.765-1.181-2.581a6.607 6.607 0 0 1-.764-1.424l-.738-.641" transform="translate(19.337 5.215)" style="fill:#ff0"/>
    <path data-name="パス 285" d="M1.857 0C.572.266.9.737 1.462 1.563c.673.981 1.33 1.967 2.069 2.934.458.6 1.055 1.164 1.59 1.745.09.1.263.195.259.29-.026.559.4 1 1.041 1.4.461.291.49.542-.217.728-.534.142-1.061.294-1.591.44-.051.015-.113.019-.161.036-1.257.419-2.545.812-3.756 1.268-.886.334-.846.836-.319 1.365.686.689 2.366.055 3.025-.137a33.414 33.414 0 0 0 2.448-.8c.606-.23 1.13-.528 1.7-.79a1.729 1.729 0 0 1 .384-.113c2.327-.449 3-1.626 1.563-2.74-.622-.481-1.316-.935-1.888-1.433a7.749 7.749 0 0 1-.948-1.113 26.109 26.109 0 0 0-2.116-2.578A6.73 6.73 0 0 1 3.179.641L1.857 0" transform="rotate(-3 1350.067 -425.44)" style="fill:#070707"/>
    <path data-name="パス 286" d="M8.39 0c1.286.266.961.737.4 1.563-.673.981-1.33 1.967-2.069 2.934-.458.6-1.055 1.164-1.59 1.745-.09.1-.263.195-.259.29.026.559-.4 1-1.041 1.4-.461.291-.49.542.217.728.534.142 1.061.294 1.591.44.051.015.113.019.161.036 1.257.419 2.545.812 3.757 1.268.886.334.846.836.319 1.365-.686.689-2.366.055-3.025-.137a33.414 33.414 0 0 1-2.448-.8c-.606-.23-1.13-.528-1.7-.79a1.729 1.729 0 0 0-.384-.113C-.008 9.48-.681 8.303.756 7.19c.622-.481 1.316-.935 1.888-1.433a7.75 7.75 0 0 0 .946-1.11A26.107 26.107 0 0 1 5.7 2.065 6.73 6.73 0 0 0 7.069.641L8.39 0" transform="rotate(-3 1345.586 -596.548)" style="fill:#070707"/>
    <path data-name="パス 285" d="M255.5 95.75v28.084" transform="translate(-221.565 -16.873)" style="fill:none;stroke:#070707;stroke-linecap:round;stroke-width:2px"/>
</svg>
