<svg xmlns="http://www.w3.org/2000/svg" width="39" height="42" viewBox="0 0 39 42">
  <g id="icon_search_orange" transform="translate(1.5 1.5)">
    <g id="グループ_7" data-name="グループ 7" transform="translate(-1.5 -1.5)">
      <path id="楕円形_7" data-name="楕円形 7" fill="currentColor" d="M15.707-1.5A17.337,17.337,0,0,1,32.914,15.925,17.337,17.337,0,0,1,15.707,33.351,17.337,17.337,0,0,1-1.5,15.925,17.337,17.337,0,0,1,15.707-1.5Zm0,29.348A11.924,11.924,0,0,0,15.707,4a11.924,11.924,0,0,0,0,23.845Z" transform="translate(6.086 1.5)"/>
      <path id="線_1" data-name="線 1" fill="currentColor" d="M1.251,14.082a2.751,2.751,0,0,1-1.946-4.7L9.385-.694A2.751,2.751,0,0,1,13.276,3.2L3.2,13.276A2.743,2.743,0,0,1,1.251,14.082Z" transform="translate(1.5 27.918)"/>
    </g>
  </g>
</svg>
