<svg xmlns="http://www.w3.org/2000/svg" width="16.64" height="13.629" viewBox="0 0 16.64 13.629">
  <g id="Icon_-_Twitter" data-name="Icon - Twitter" transform="translate(0 0)">
    <path id="パス_779" data-name="パス 779" fill="currentColor" d="M1814.337,917.255a3.37,3.37,0,0,1,2.18-3.914c1.708-.774,3.448.882,3.448.882l2.08-.831c0,.891-1.486,1.783-1.486,1.783a7.258,7.258,0,0,0,2.08-.3c0,.3-1.783,1.783-1.783,1.783,0,7.131-5.349,10.1-9.806,10.1s-5.051-1.783-5.051-1.783c3.566,0,4.754-1.486,4.754-1.486-.891.594-2.971-2.08-2.971-2.08a3.406,3.406,0,0,0,1.783,0c-1.783-.3-2.971-3.566-2.971-3.566.3.594,1.783.594,1.783.594a4.194,4.194,0,0,1-1.189-4.754C1808.971,916.661,1814.337,917.255,1814.337,917.255Z" transform="translate(-1806 -913.135)"/>
  </g>
</svg>
